<svg width="28" height="28" viewBox="0 0 28 28" fill="none" xmlns="http://www.w3.org/2000/svg">
<path d="M14 2.625C11.7502 2.625 9.551 3.29213 7.68039 4.54203C5.80978 5.79193 4.35182 7.56847 3.49088 9.64698C2.62993 11.7255 2.40467 14.0126 2.84357 16.2192C3.28248 18.4257 4.36584 20.4525 5.95667 22.0433C7.54749 23.6342 9.57432 24.7175 11.7809 25.1564C13.9874 25.5953 16.2745 25.3701 18.353 24.5091C20.4315 23.6482 22.2081 22.1902 23.458 20.3196C24.7079 18.449 25.375 16.2498 25.375 14C25.3718 10.9841 24.1724 8.09271 22.0398 5.96018C19.9073 3.82764 17.0159 2.62818 14 2.625ZM18.375 15.75C18.375 15.9821 18.2828 16.2046 18.1187 16.3687C17.9546 16.5328 17.7321 16.625 17.5 16.625C17.2679 16.625 17.0454 16.5328 16.8813 16.3687C16.7172 16.2046 16.625 15.9821 16.625 15.75V12.612L11.1191 18.1191C11.0378 18.2004 10.9413 18.2648 10.835 18.3088C10.7288 18.3528 10.615 18.3755 10.5 18.3755C10.385 18.3755 10.2712 18.3528 10.165 18.3088C10.0588 18.2648 9.96224 18.2004 9.88094 18.1191C9.79965 18.0378 9.73516 17.9413 9.69116 17.835C9.64716 17.7288 9.62452 17.615 9.62452 17.5C9.62452 17.385 9.64716 17.2712 9.69116 17.165C9.73516 17.0587 9.79965 16.9622 9.88094 16.8809L15.388 11.375H12.25C12.0179 11.375 11.7954 11.2828 11.6313 11.1187C11.4672 10.9546 11.375 10.7321 11.375 10.5C11.375 10.2679 11.4672 10.0454 11.6313 9.88128C11.7954 9.71719 12.0179 9.625 12.25 9.625H17.5C17.7321 9.625 17.9546 9.71719 18.1187 9.88128C18.2828 10.0454 18.375 10.2679 18.375 10.5V15.75Z" fill="white"/>
</svg>
