<svg width="28" height="28" viewBox="0 0 28 28" fill="none" xmlns="http://www.w3.org/2000/svg">
<path d="M22.7499 4.49976H20.1249V3.62476C20.1249 3.39269 20.0327 3.17013 19.8686 3.00604C19.7045 2.84194 19.4819 2.74976 19.2499 2.74976C19.0178 2.74976 18.7953 2.84194 18.6312 3.00604C18.4671 3.17013 18.3749 3.39269 18.3749 3.62476V4.49976H9.62488V3.62476C9.62488 3.39269 9.53269 3.17013 9.3686 3.00604C9.2045 2.84194 8.98194 2.74976 8.74988 2.74976C8.51781 2.74976 8.29525 2.84194 8.13116 3.00604C7.96707 3.17013 7.87488 3.39269 7.87488 3.62476V4.49976H5.24988C4.78575 4.49976 4.34063 4.68413 4.01244 5.01232C3.68425 5.34051 3.49988 5.78563 3.49988 6.24976V23.7498C3.49988 24.2139 3.68425 24.659 4.01244 24.9872C4.34063 25.3154 4.78575 25.4998 5.24988 25.4998H22.7499C23.214 25.4998 23.6591 25.3154 23.9873 24.9872C24.3155 24.659 24.4999 24.2139 24.4999 23.7498V6.24976C24.4999 5.78563 24.3155 5.34051 23.9873 5.01232C23.6591 4.68413 23.214 4.49976 22.7499 4.49976ZM12.2499 21.1248C12.2499 21.3568 12.1577 21.5794 11.9936 21.7435C11.8295 21.9076 11.6069 21.9998 11.3749 21.9998C11.1428 21.9998 10.9203 21.9076 10.7562 21.7435C10.5921 21.5794 10.4999 21.3568 10.4999 21.1248V15.5401L10.0164 15.7829C9.80874 15.8867 9.5683 15.9038 9.348 15.8304C9.12771 15.757 8.9456 15.599 8.84175 15.3913C8.7379 15.1836 8.72082 14.9432 8.79425 14.7229C8.86768 14.5026 9.02562 14.3205 9.23332 14.2166L10.9833 13.3416C11.1168 13.2749 11.2651 13.2433 11.4142 13.25C11.5632 13.2567 11.7081 13.3014 11.835 13.3799C11.962 13.4584 12.0667 13.568 12.1393 13.6984C12.2119 13.8288 12.25 13.9755 12.2499 14.1248V21.1248ZM18.3749 20.2498C18.6069 20.2498 18.8295 20.3419 18.9936 20.506C19.1577 20.6701 19.2499 20.8927 19.2499 21.1248C19.2499 21.3568 19.1577 21.5794 18.9936 21.7435C18.8295 21.9076 18.6069 21.9998 18.3749 21.9998H14.8749C14.7124 21.9998 14.5531 21.9545 14.4149 21.8691C14.2766 21.7836 14.1649 21.6614 14.0923 21.5161C14.0196 21.3707 13.9888 21.208 14.0034 21.0462C14.018 20.8843 14.0774 20.7298 14.1749 20.5998L17.3227 16.403C17.3943 16.3077 17.4457 16.1988 17.4736 16.0829C17.5016 15.967 17.5056 15.8466 17.4854 15.7291C17.4652 15.6116 17.4212 15.4995 17.3561 15.3997C17.291 15.2998 17.2061 15.2143 17.1068 15.1484C17.0075 15.0825 16.8957 15.0376 16.7784 15.0164C16.661 14.9953 16.5406 14.9983 16.4245 15.0253C16.3084 15.0524 16.1991 15.1029 16.1032 15.1737C16.0073 15.2445 15.9269 15.3342 15.8669 15.4373C15.8112 15.5399 15.7354 15.6304 15.6441 15.7033C15.5528 15.7763 15.4478 15.8302 15.3354 15.8619C15.2229 15.8936 15.1052 15.9024 14.9893 15.8879C14.8734 15.8734 14.7615 15.8358 14.6603 15.7774C14.5591 15.7189 14.4707 15.6408 14.4002 15.5477C14.3297 15.4545 14.2786 15.3481 14.2498 15.2349C14.2211 15.1216 14.2153 15.0037 14.2329 14.8882C14.2505 14.7727 14.291 14.6619 14.3521 14.5623C14.6411 14.0621 15.0871 13.6712 15.6208 13.4502C16.1546 13.2293 16.7463 13.1906 17.3043 13.3401C17.8623 13.4896 18.3554 13.8191 18.7072 14.2773C19.0589 14.7356 19.2497 15.2971 19.2499 15.8748C19.2517 16.4454 19.0657 17.0008 18.7205 17.4552L16.6249 20.2498H18.3749ZM5.24988 9.74976V6.24976H7.87488V7.12476C7.87488 7.35682 7.96707 7.57938 8.13116 7.74347C8.29525 7.90757 8.51781 7.99976 8.74988 7.99976C8.98194 7.99976 9.2045 7.90757 9.3686 7.74347C9.53269 7.57938 9.62488 7.35682 9.62488 7.12476V6.24976H18.3749V7.12476C18.3749 7.35682 18.4671 7.57938 18.6312 7.74347C18.7953 7.90757 19.0178 7.99976 19.2499 7.99976C19.4819 7.99976 19.7045 7.90757 19.8686 7.74347C20.0327 7.57938 20.1249 7.35682 20.1249 7.12476V6.24976H22.7499V9.74976H5.24988Z" fill="white"/>
</svg>
