<svg width="226" height="62" viewBox="0 0 226 62" fill="none" xmlns="http://www.w3.org/2000/svg">
<path opacity="0.5" d="M217.341 60.2142C218.075 60.5993 218.981 60.3169 219.367 59.5835L225.642 47.6308C226.027 46.8973 225.745 45.9905 225.011 45.6054C224.278 45.2203 223.371 45.5027 222.986 46.2362L217.408 56.8608L206.783 51.2824C206.05 50.8973 205.143 51.1797 204.758 51.9132C204.373 52.6467 204.655 53.5534 205.389 53.9386L217.341 60.2142ZM1.1913 58.6558C0.697786 59.3212 0.83712 60.2607 1.50251 60.7542C2.16789 61.2477 3.10736 61.1083 3.60087 60.443L1.1913 58.6558ZM5.86246 57.4969C6.37762 56.8482 6.26931 55.9046 5.62054 55.3895C4.97178 54.8743 4.02822 54.9826 3.51306 55.6314L5.86246 57.4969ZM8.44257 49.8139C7.88751 50.4289 7.93608 51.3774 8.55106 51.9325C9.16604 52.4875 10.1145 52.439 10.6696 51.824L8.44257 49.8139ZM15.8197 46.4529C16.4106 45.8722 16.4188 44.9225 15.8381 44.3317C15.2574 43.7408 14.3077 43.7326 13.7169 44.3133L15.8197 46.4529ZM19.3008 39.132C18.6778 39.6781 18.6155 40.6258 19.1616 41.2488C19.7076 41.8718 20.6553 41.9341 21.2783 41.388L19.3008 39.132ZM27.0116 36.6348C27.6635 36.1235 27.7775 35.1806 27.2662 34.5288C26.755 33.8769 25.8121 33.7629 25.1603 34.2742L27.0116 36.6348ZM31.2696 29.7385C30.5918 30.2148 30.4284 31.1504 30.9046 31.8282C31.3809 32.5061 32.3164 32.6695 32.9943 32.1932L31.2696 29.7385ZM39.2024 28.0647C39.9037 27.6236 40.1145 26.6975 39.6734 25.9963C39.2323 25.2951 38.3062 25.0842 37.605 25.5253L39.2024 28.0647ZM44.1403 21.6374C43.4181 22.0433 43.1617 22.9578 43.5676 23.68C43.9735 24.4021 44.8879 24.6585 45.6101 24.2526L44.1403 21.6374ZM52.1985 20.7571C52.9394 20.3865 53.2397 19.4855 52.8691 18.7445C52.4985 18.0036 51.5975 17.7034 50.8566 18.0739L52.1985 20.7571ZM57.7347 14.8354C56.9771 15.1706 56.6347 16.0564 56.9698 16.814C57.3049 17.5717 58.1908 17.9141 58.9484 17.579L57.7347 14.8354ZM65.8396 14.7203C66.6119 14.4206 66.9951 13.5516 66.6954 12.7793C66.3957 12.0069 65.5267 11.6237 64.7544 11.9234L65.8396 14.7203ZM71.9006 9.33716C71.1154 9.60128 70.693 10.4519 70.9571 11.2371C71.2212 12.0223 72.0719 12.4447 72.8571 12.1806L71.9006 9.33716ZM80.361 9.8533C81.1579 9.62677 81.6202 8.79715 81.3937 8.0003C81.1672 7.20344 80.3375 6.74111 79.5407 6.96764L80.361 9.8533ZM87.6496 4.88091C86.8423 5.06705 86.3388 5.87235 86.525 6.67959C86.7111 7.48684 87.5164 7.99034 88.3236 7.8042L87.6496 4.88091ZM96.394 6.15973C97.2098 6.0153 97.754 5.23693 97.6095 4.42119C97.4651 3.60545 96.6867 3.06124 95.871 3.20567L96.394 6.15973ZM104.16 1.96047C103.337 2.06194 102.753 2.81072 102.855 3.63291C102.956 4.45509 103.705 5.03935 104.527 4.93788L104.16 1.96047ZM112.713 4.14934C113.539 4.0922 114.163 3.37591 114.106 2.54945C114.049 1.723 113.333 1.09934 112.506 1.15648L112.713 4.14934ZM120.89 0.808552C120.062 0.819848 119.399 1.50052 119.411 2.32887C119.422 3.15722 120.103 3.81957 120.931 3.80827L120.89 0.808552ZM129.144 3.92991C129.972 3.96603 130.672 3.32437 130.708 2.49673C130.744 1.66909 130.102 0.968882 129.275 0.93276L129.144 3.92991ZM137.652 1.54729C136.828 1.4619 136.091 2.06068 136.006 2.8847C135.92 3.70871 136.519 4.44592 137.343 4.53131L137.652 1.54729ZM145.476 5.62908C146.293 5.76565 147.066 5.21397 147.203 4.39688C147.339 3.57978 146.787 2.80669 145.97 2.67013L145.476 5.62908ZM154.213 4.32551C153.407 4.13554 152.599 4.63522 152.409 5.44157C152.219 6.24792 152.719 7.0556 153.525 7.24557L154.213 4.32551ZM161.437 9.39992C162.228 9.64561 163.068 9.20342 163.314 8.41226C163.56 7.62111 163.117 6.78058 162.326 6.53489L161.437 9.39992ZM170.263 9.32354C169.492 9.01969 168.621 9.39815 168.317 10.1688C168.013 10.9395 168.392 11.8106 169.162 12.1145L170.263 9.32354ZM176.656 15.4168C177.4 15.7813 178.299 15.4738 178.663 14.7298C179.028 13.9859 178.72 13.0873 177.976 12.7228L176.656 15.4168ZM185.383 16.7521C184.673 16.3247 183.751 16.5536 183.324 17.2633C182.897 17.973 183.125 18.8948 183.835 19.3221L185.383 16.7521ZM190.622 23.848C191.289 24.3397 192.228 24.1979 192.72 23.5312C193.212 22.8645 193.07 21.9254 192.403 21.4337L190.622 23.848ZM198.951 26.7881C198.337 26.2315 197.388 26.2776 196.832 26.8912C196.275 27.5048 196.321 28.4534 196.935 29.01L198.951 26.7881ZM202.66 34.7953C203.21 35.4153 204.158 35.4726 204.778 34.9232C205.398 34.3738 205.455 33.4258 204.906 32.8057L202.66 34.7953ZM210.152 39.4604C209.678 38.7809 208.743 38.6143 208.063 39.0883C207.384 39.5623 207.217 40.4973 207.691 41.1767L210.152 39.4604ZM211.926 48.1023C212.314 48.8341 213.222 49.1126 213.954 48.7243C214.686 48.3361 214.964 47.4281 214.576 46.6962L211.926 48.1023ZM218.083 54.4254C217.788 53.6512 216.921 53.2626 216.147 53.5574C215.373 53.8522 214.984 54.7189 215.279 55.493L218.083 54.4254ZM3.60087 60.443C4.33447 59.4539 5.08845 58.4717 5.86246 57.4969L3.51306 55.6314C2.71876 56.6317 1.94471 57.64 1.1913 58.6558L3.60087 60.443ZM10.6696 51.824C12.315 50.0009 14.0326 48.2094 15.8197 46.4529L13.7169 44.3133C11.8877 46.111 10.1287 47.9458 8.44257 49.8139L10.6696 51.824ZM21.2783 41.388C23.1281 39.7666 25.04 38.1811 27.0116 36.6348L25.1603 34.2742C23.1461 35.8538 21.1921 37.4742 19.3008 39.132L21.2783 41.388ZM32.9943 32.1932C35.0107 30.7765 37.0808 29.3993 39.2024 28.0647L37.605 25.5253C35.4406 26.8869 33.3281 28.2923 31.2696 29.7385L32.9943 32.1932ZM45.6101 24.2526C47.7606 23.044 49.9573 21.878 52.1985 20.7571L50.8566 18.0739C48.5724 19.2163 46.3329 20.405 44.1403 21.6374L45.6101 24.2526ZM58.9484 17.579C61.206 16.5803 63.5037 15.6266 65.8396 14.7203L64.7544 11.9234C62.3753 12.8465 60.0348 13.818 57.7347 14.8354L58.9484 17.579ZM72.8571 12.1806C74.0324 11.7853 75.2164 11.4018 76.4088 11.0304L75.5168 8.16607C74.3028 8.54416 73.0973 8.93462 71.9006 9.33716L72.8571 12.1806ZM76.4088 11.0304C77.7265 10.62 79.0441 10.2277 80.361 9.8533L79.5407 6.96764C78.1997 7.34886 76.8583 7.74828 75.5168 8.16607L76.4088 11.0304ZM88.3236 7.8042C91.0212 7.18219 93.7126 6.63447 96.394 6.15973L95.871 3.20567C93.1389 3.68939 90.3971 4.24737 87.6496 4.88091L88.3236 7.8042ZM104.527 4.93788C107.272 4.59912 110.002 4.33676 112.713 4.14934L112.506 1.15648C109.741 1.34763 106.958 1.61515 104.16 1.96047L104.527 4.93788ZM120.931 3.80827C123.695 3.77057 126.434 3.81167 129.144 3.92991L129.275 0.93276C126.508 0.812002 123.711 0.770072 120.89 0.808552L120.931 3.80827ZM137.343 4.53131C140.093 4.81628 142.806 5.18284 145.476 5.62908L145.97 2.67013C143.238 2.21346 140.464 1.83859 137.652 1.54729L137.343 4.53131ZM153.525 7.24557C156.217 7.87968 158.856 8.59854 161.437 9.39992L162.326 6.53489C159.678 5.71241 156.971 4.97529 154.213 4.32551L153.525 7.24557ZM169.162 12.1145C171.734 13.1281 174.234 14.2298 176.656 15.4168L177.976 12.7228C175.48 11.4997 172.906 10.3658 170.263 9.32354L169.162 12.1145ZM183.835 19.3221C186.192 20.7415 188.457 22.2512 190.622 23.848L192.403 21.4337C190.161 19.7797 187.818 18.2183 185.383 16.7521L183.835 19.3221ZM196.935 29.01C198.962 30.8488 200.873 32.7782 202.66 34.7953L204.906 32.8057C203.044 30.7049 201.056 28.698 198.951 26.7881L196.935 29.01ZM207.691 41.1767C209.241 43.399 210.656 45.7085 211.926 48.1023L214.576 46.6962C213.248 44.1934 211.77 41.7804 210.152 39.4604L207.691 41.1767ZM215.279 55.493C215.759 56.7529 216.202 58.0328 216.606 59.3322L219.471 58.4401C219.047 57.0815 218.584 55.7431 218.083 54.4254L215.279 55.493Z" fill="black"/>
</svg>
