<svg width="221" height="60" viewBox="0 0 221 60" fill="none" xmlns="http://www.w3.org/2000/svg">
<path fill-rule="evenodd" clip-rule="evenodd" d="M92.4914 12.047C83.9504 12.047 78.6449 18.8314 78.6449 29.7536C78.6449 40.6758 83.9504 47.4602 92.4914 47.4602C95.7002 47.4602 98.6817 46.5502 101.112 44.8282L101.23 44.745V32.4744H88.9401V28.1175H106.258V46.4022C102.592 49.9458 97.8342 51.817 92.4914 51.817C81.0259 51.817 73.6172 43.1564 73.6172 29.7536C73.6172 16.3508 81.0259 7.69019 92.4914 7.69019C98.0733 7.69019 102.785 9.72784 106.139 13.5864L102.789 16.3692C100.261 13.5015 96.7974 12.047 92.4914 12.047ZM189.188 51.1188H185.307L184.003 47.5171L183.694 47.7947C183.651 47.8333 179.32 51.6773 173.868 51.6773C168.366 51.6773 164.372 48.0165 164.372 42.9732C164.372 35.6716 170.675 34.1389 175.963 34.1389C180.082 34.1389 183.772 35.0661 183.809 35.0756L184.157 35.1644V34.2785C184.157 30.3043 181.675 28.289 176.78 28.289C173.815 28.289 170.681 29.0213 167.703 30.4071L165.69 26.9373C168.319 25.227 172.311 23.2619 176.78 23.2619C184.55 23.2619 189.188 27.4825 189.188 34.5511V51.1188ZM178.465 38.0075C172.534 38.0075 169.399 39.7246 169.399 42.9732C169.399 45.2415 171.112 46.6502 173.868 46.6502C178.41 46.6502 182.397 44.7891 184.037 43.6887L184.16 43.606V38.4784L183.928 38.4387C183.903 38.4343 181.364 38.0075 178.465 38.0075ZM161.577 46.7619V51.1188H144.819V9.78481H149.847V46.7619H161.577ZM206.538 51.817C203.273 51.817 199.693 51.3679 195.897 50.4814V9.78481H200.924V25.4599L201.356 25.1795C201.384 25.1616 204.189 23.3697 208.053 23.3697C208.824 23.3697 209.596 23.4418 210.341 23.5825C216.679 24.8806 220.462 29.9938 220.462 37.2602C220.462 45.8308 214.737 51.817 206.538 51.817ZM207.097 28.289C205.098 28.289 203.007 28.9733 201.05 30.2669L200.924 30.3501V47.0144L201.163 47.0496C203.051 47.3261 204.859 47.4669 206.538 47.4669C211.776 47.4669 215.435 43.2692 215.435 37.2602C215.435 31.5589 212.396 28.289 207.097 28.289ZM138.111 23.749V28.1058H129.731V40.897C129.731 42.4638 130.341 43.9367 131.449 45.0438C131.992 45.5903 132.639 46.0236 133.351 46.3185C134.063 46.6135 134.826 46.7642 135.597 46.7619H138.11V51.1188H135.597C129.59 51.1188 124.703 46.2324 124.703 40.2267V9.78481H129.731V23.749H138.111ZM112.967 12.5776H117.994V17.6047H112.967V12.5776ZM112.967 23.749H117.994V51.1188H112.967V23.749Z" fill="#BCBFC6"/>
<path fill-rule="evenodd" clip-rule="evenodd" d="M32.9583 59.8689L44.9252 23.0388H20.9915L32.9583 59.8689Z" fill="#E24329"/>
<path fill-rule="evenodd" clip-rule="evenodd" d="M32.9584 59.8689L20.9915 23.0388H4.22021L32.9584 59.8689Z" fill="#FC6D26"/>
<path fill-rule="evenodd" clip-rule="evenodd" d="M4.22017 23.0388L0.583653 34.2311C0.421983 34.7287 0.421985 35.2647 0.583659 35.7623C0.745333 36.2599 1.06038 36.6936 1.48365 37.0011L32.9586 59.8689L4.22017 23.0388Z" fill="#FCA326"/>
<path fill-rule="evenodd" clip-rule="evenodd" d="M4.22021 23.0391H20.9915L13.7838 0.856055C13.4131 -0.285506 11.7986 -0.285197 11.4276 0.856055L4.22021 23.0391Z" fill="#E24329"/>
<path fill-rule="evenodd" clip-rule="evenodd" d="M32.9583 59.8689L44.9251 23.0388H61.6964L32.9583 59.8689Z" fill="#FC6D26"/>
<path fill-rule="evenodd" clip-rule="evenodd" d="M61.6964 23.0388L65.3329 34.2311C65.4946 34.7287 65.4946 35.2647 65.3329 35.7623C65.1713 36.2599 64.8562 36.6936 64.4329 37.0011L32.9583 59.8689L61.6964 23.0388Z" fill="#FCA326"/>
<path fill-rule="evenodd" clip-rule="evenodd" d="M61.6966 23.0391H44.9253L52.133 0.856055C52.5037 -0.285506 54.1185 -0.285197 54.4892 0.856055L61.6966 23.0391Z" fill="#E24329"/>
</svg>
