<svg width="60" height="60" viewBox="0 0 60 60" fill="none" xmlns="http://www.w3.org/2000/svg">
<path d="M53.25 15.75H15.75C14.7554 15.75 13.8016 16.1451 13.0983 16.8483C12.3951 17.5516 12 18.5054 12 19.5V45.75C12 46.7446 12.3951 47.6984 13.0983 48.4017C13.8016 49.1049 14.7554 49.5 15.75 49.5H53.25C54.2446 49.5 55.1984 49.1049 55.9017 48.4017C56.6049 47.6984 57 46.7446 57 45.75V19.5C57 18.5054 56.6049 17.5516 55.9017 16.8483C55.1984 16.1451 54.2446 15.75 53.25 15.75Z" fill="#86BA97"/>
<path d="M48.75 9.375H11.25C9.75816 9.375 8.32742 9.96763 7.27252 11.0225C6.21763 12.0774 5.625 13.5082 5.625 15V41.25C5.625 42.7418 6.21763 44.1726 7.27252 45.2275C8.32742 46.2824 9.75816 46.875 11.25 46.875H48.75C50.2418 46.875 51.6726 46.2824 52.7275 45.2275C53.7824 44.1726 54.375 42.7418 54.375 41.25V15C54.375 13.5082 53.7824 12.0774 52.7275 11.0225C51.6726 9.96763 50.2418 9.375 48.75 9.375ZM50.625 41.25C50.625 41.7473 50.4275 42.2242 50.0758 42.5758C49.7242 42.9275 49.2473 43.125 48.75 43.125H11.25C10.7527 43.125 10.2758 42.9275 9.92418 42.5758C9.57254 42.2242 9.375 41.7473 9.375 41.25V15C9.375 14.5027 9.57254 14.0258 9.92418 13.6742C10.2758 13.3225 10.7527 13.125 11.25 13.125H48.75C49.2473 13.125 49.7242 13.3225 50.0758 13.6742C50.4275 14.0258 50.625 14.5027 50.625 15V41.25ZM39.375 52.5C39.375 52.9973 39.1775 53.4742 38.8258 53.8258C38.4742 54.1775 37.9973 54.375 37.5 54.375H22.5C22.0027 54.375 21.5258 54.1775 21.1742 53.8258C20.8225 53.4742 20.625 52.9973 20.625 52.5C20.625 52.0027 20.8225 51.5258 21.1742 51.1742C21.5258 50.8225 22.0027 50.625 22.5 50.625H37.5C37.9973 50.625 38.4742 50.8225 38.8258 51.1742C39.1775 51.5258 39.375 52.0027 39.375 52.5Z" fill="black"/>
<path d="M23.7999 36.9526L16.2999 29.4526C16.1256 29.2785 15.9873 29.0717 15.8929 28.8441C15.7986 28.6164 15.75 28.3724 15.75 28.126C15.75 27.8796 15.7986 27.6357 15.8929 27.408C15.9873 27.1804 16.1256 26.9736 16.2999 26.7995L23.7999 19.2995C24.1517 18.9477 24.6289 18.75 25.1265 18.75C25.624 18.75 26.1012 18.9477 26.453 19.2995C26.8049 19.6513 27.0025 20.1285 27.0025 20.626C27.0025 21.1236 26.8049 21.6008 26.453 21.9526L20.2773 28.126L26.453 34.2995C26.8049 34.6513 27.0025 35.1285 27.0025 35.626C27.0025 36.1236 26.8049 36.6008 26.453 36.9526C26.1012 37.3044 25.624 37.5021 25.1265 37.5021C24.6289 37.5021 24.1517 37.3044 23.7999 36.9526ZM33.1749 36.9526C33.349 37.1269 33.5558 37.2652 33.7835 37.3596C34.0111 37.454 34.2551 37.5025 34.5015 37.5025C34.7479 37.5025 34.9919 37.454 35.2195 37.3596C35.4471 37.2652 35.6539 37.1269 35.828 36.9526L43.328 29.4526C43.5024 29.2785 43.6407 29.0717 43.735 28.8441C43.8294 28.6164 43.8779 28.3724 43.8779 28.126C43.8779 27.8796 43.8294 27.6357 43.735 27.408C43.6407 27.1804 43.5024 26.9736 43.328 26.7995L35.828 19.2995C35.4762 18.9477 34.999 18.75 34.5015 18.75C34.0039 18.75 33.5267 18.9477 33.1749 19.2995C32.8231 19.6513 32.6254 20.1285 32.6254 20.626C32.6254 21.1236 32.8231 21.6008 33.1749 21.9526L39.3507 28.126L33.1749 34.2995C33.0006 34.4736 32.8623 34.6804 32.7679 34.908C32.6736 35.1357 32.625 35.3796 32.625 35.626C32.625 35.8724 32.6736 36.1164 32.7679 36.3441C32.8623 36.5717 33.0006 36.7785 33.1749 36.9526Z" fill="black"/>
</svg>
