<svg width="97" height="97" viewBox="0 0 97 97" fill="none" xmlns="http://www.w3.org/2000/svg">
<g clip-path="url(#clip0_292_104)">
<path d="M96.5 53.4185C96.5012 57.1417 95.3477 60.7738 93.1986 63.8141C91.0494 66.8545 88.0103 69.1536 84.5 70.3947V72.9185C84.5 76.8967 82.9196 80.712 80.1066 83.5251C77.2936 86.3381 73.4782 87.9185 69.5 87.9185C65.5218 87.9185 61.7064 86.3381 58.8934 83.5251C56.0803 80.712 54.5 76.8967 54.5 72.9185C54.5 76.8967 52.9196 80.712 50.1066 83.5251C47.2936 86.3381 43.4782 87.9185 39.5 87.9185C35.5217 87.9185 31.7064 86.3381 28.8934 83.5251C26.0803 80.712 24.5 76.8967 24.5 72.9185V70.3947C20.9867 69.1563 17.9441 66.8583 15.7919 63.8177C13.6397 60.7771 12.4839 57.1437 12.4839 53.4185C12.4839 49.6932 13.6397 46.0598 15.7919 43.0192C17.9441 39.9786 20.9867 37.6806 24.5 36.4422V33.9185C24.5 29.9402 26.0803 26.1249 28.8934 23.3119C31.7064 20.4988 35.5217 18.9185 39.5 18.9185C43.4782 18.9185 47.2936 20.4988 50.1066 23.3119C52.9196 26.1249 54.5 29.9402 54.5 33.9185C54.5 29.9402 56.0803 26.1249 58.8934 23.3119C61.7064 20.4988 65.5218 18.9185 69.5 18.9185C73.4782 18.9185 77.2936 20.4988 80.1066 23.3119C82.9196 26.1249 84.5 29.9402 84.5 33.9185V36.4422C88.0103 37.6833 91.0494 39.9824 93.1986 43.0228C95.3477 46.0632 96.5012 49.6952 96.5 53.4185Z" fill="#86BA97"/>
<path d="M93.4999 47.4185C93.4959 43.4447 92.3668 39.5533 90.2431 36.1946C88.1194 32.8359 85.0881 30.1472 81.4999 28.4397V27.9185C81.4964 24.053 80.2487 20.2914 77.9414 17.1901C75.6341 14.0889 72.3897 11.8128 68.6883 10.6986C64.987 9.58436 61.0252 9.69128 57.3893 11.0035C53.7535 12.3157 50.6366 14.7635 48.4999 17.9847C46.3632 14.7635 43.2463 12.3157 39.6104 11.0035C35.9745 9.69128 32.0128 9.58436 28.3114 10.6986C24.6101 11.8128 21.3657 14.0889 19.0584 17.1901C16.751 20.2914 15.5033 24.053 15.4999 27.9185V28.4397C11.9086 30.1425 8.87437 32.8295 6.74966 36.1884C4.62496 39.5473 3.49707 43.4402 3.49707 47.4147C3.49707 51.3892 4.62496 55.2821 6.74966 58.641C8.87437 61.9999 11.9086 64.6869 15.4999 66.3897V66.9185C15.5033 70.7839 16.751 74.5455 19.0584 77.6468C21.3657 80.748 24.6101 83.0242 28.3114 84.1384C32.0128 85.2526 35.9745 85.1456 39.6104 83.8334C43.2463 82.5212 46.3632 80.0734 48.4999 76.8522C50.6366 80.0734 53.7535 82.5212 57.3893 83.8334C61.0252 85.1456 64.987 85.2526 68.6883 84.1384C72.3897 83.0242 75.6341 80.748 77.9414 77.6468C80.2487 74.5455 81.4964 70.7839 81.4999 66.9185V66.3897C85.0875 64.6835 88.1186 61.9961 90.2423 58.6387C92.366 55.2813 93.4954 51.3911 93.4999 47.4185ZM33.4999 78.9185C30.5409 78.918 27.6865 77.8244 25.4847 75.8476C23.283 73.8708 21.8892 71.1503 21.5711 68.2085C22.5413 68.3469 23.5199 68.417 24.4999 68.4185H27.4999C28.2955 68.4185 29.0586 68.1024 29.6212 67.5398C30.1838 66.9772 30.4999 66.2141 30.4999 65.4185C30.4999 64.6228 30.1838 63.8597 29.6212 63.2971C29.0586 62.7345 28.2955 62.4185 27.4999 62.4185H24.4999C20.9582 62.4226 17.5293 61.1734 14.8203 58.8921C12.1113 56.6108 10.2968 53.4445 9.69818 49.9538C9.09955 46.4631 9.75538 42.8732 11.5495 39.8196C13.3437 36.7661 16.1605 34.4458 19.5011 33.2697C20.0857 33.0628 20.5917 32.6798 20.9496 32.1734C21.3075 31.6671 21.4998 31.0623 21.4999 30.4422V27.9185C21.4999 24.7359 22.7642 21.6836 25.0146 19.4332C27.265 17.1827 30.3173 15.9185 33.4999 15.9185C36.6825 15.9185 39.7347 17.1827 41.9852 19.4332C44.2356 21.6836 45.4999 24.7359 45.4999 27.9185V53.516C42.2056 50.553 37.9306 48.9152 33.4999 48.9185C32.7042 48.9185 31.9412 49.2345 31.3786 49.7971C30.816 50.3597 30.4999 51.1228 30.4999 51.9185C30.4999 52.7141 30.816 53.4772 31.3786 54.0398C31.9412 54.6024 32.7042 54.9185 33.4999 54.9185C36.6825 54.9185 39.7347 56.1827 41.9852 58.4332C44.2356 60.6836 45.4999 63.7359 45.4999 66.9185C45.4999 70.1011 44.2356 73.1533 41.9852 75.4037C39.7347 77.6542 36.6825 78.9185 33.4999 78.9185ZM72.4999 62.4185H69.4999C68.7042 62.4185 67.9412 62.7345 67.3786 63.2971C66.816 63.8597 66.4999 64.6228 66.4999 65.4185C66.4999 66.2141 66.816 66.9772 67.3786 67.5398C67.9412 68.1024 68.7042 68.4185 69.4999 68.4185H72.4999C73.4798 68.417 74.4585 68.3469 75.4286 68.2085C75.1794 70.5135 74.2678 72.6969 72.804 74.4948C71.3402 76.2927 69.387 77.6281 67.1804 78.3395C64.9738 79.051 62.6084 79.1079 60.3701 78.5036C58.1318 77.8992 56.1165 76.6594 54.5679 74.9341C53.0192 73.2087 52.0036 71.0717 51.6437 68.7813C51.2837 66.491 51.595 64.1455 52.5398 62.0283C53.4846 59.9111 55.0225 58.1129 56.9675 56.8512C58.9126 55.5894 61.1814 54.9181 63.4999 54.9185C64.2955 54.9185 65.0586 54.6024 65.6212 54.0398C66.1838 53.4772 66.4999 52.7141 66.4999 51.9185C66.4999 51.1228 66.1838 50.3597 65.6212 49.7971C65.0586 49.2345 64.2955 48.9185 63.4999 48.9185C59.0691 48.9152 54.7942 50.553 51.4999 53.516V27.9185C51.4999 24.7359 52.7642 21.6836 55.0146 19.4332C57.265 17.1827 60.3173 15.9185 63.4999 15.9185C66.6825 15.9185 69.7347 17.1827 71.9852 19.4332C74.2356 21.6836 75.4999 24.7359 75.4999 27.9185V30.4422C75.5 31.0623 75.6922 31.6671 76.0502 32.1734C76.4081 32.6798 76.9141 33.0628 77.4986 33.2697C80.8393 34.4458 83.6561 36.7661 85.4502 39.8196C87.2444 42.8732 87.9002 46.4631 87.3016 49.9538C86.703 53.4445 84.8885 56.6108 82.1795 58.8921C79.4704 61.1734 76.0415 62.4226 72.4999 62.4185ZM78.4999 42.9185C78.4999 43.7141 78.1838 44.4772 77.6212 45.0398C77.0586 45.6024 76.2955 45.9185 75.4999 45.9185H73.9999C70.4195 45.9185 66.9857 44.4961 64.4539 41.9644C61.9222 39.4327 60.4999 35.9989 60.4999 32.4185V30.9185C60.4999 30.1228 60.816 29.3597 61.3786 28.7971C61.9412 28.2345 62.7042 27.9185 63.4999 27.9185C64.2955 27.9185 65.0586 28.2345 65.6212 28.7971C66.1838 29.3597 66.4999 30.1228 66.4999 30.9185V32.4185C66.4999 34.4076 67.2901 36.3152 68.6966 37.7218C70.1031 39.1283 72.0108 39.9185 73.9999 39.9185H75.4999C76.2955 39.9185 77.0586 40.2345 77.6212 40.7971C78.1838 41.3597 78.4999 42.1228 78.4999 42.9185ZM22.9999 45.9185H21.4999C20.7042 45.9185 19.9412 45.6024 19.3786 45.0398C18.816 44.4772 18.4999 43.7141 18.4999 42.9185C18.4999 42.1228 18.816 41.3597 19.3786 40.7971C19.9412 40.2345 20.7042 39.9185 21.4999 39.9185H22.9999C24.989 39.9185 26.8967 39.1283 28.3032 37.7218C29.7097 36.3152 30.4999 34.4076 30.4999 32.4185V30.9185C30.4999 30.1228 30.816 29.3597 31.3786 28.7971C31.9412 28.2345 32.7042 27.9185 33.4999 27.9185C34.2955 27.9185 35.0586 28.2345 35.6212 28.7971C36.1838 29.3597 36.4999 30.1228 36.4999 30.9185V32.4185C36.4999 35.9989 35.0776 39.4327 32.5458 41.9644C30.0141 44.4961 26.5803 45.9185 22.9999 45.9185Z" fill="black"/>
</g>
<defs>
<clipPath id="clip0_292_104">
<rect width="96" height="96" fill="white" transform="translate(0.5 0.918457)"/>
</clipPath>
</defs>
</svg>
