<svg width="120" height="120" viewBox="0 0 120 120" fill="none" xmlns="http://www.w3.org/2000/svg">
<rect opacity="0.2" width="120" height="120" rx="16" fill="#32A74D"/>
<path d="M89.9563 63.4938L95.2 56.9313C94.4927 54.2726 93.4345 51.7199 92.0532 49.3407L83.7094 48.4032C83.0429 47.6522 82.3322 46.9416 81.5813 46.275L80.6438 37.9282C78.2619 36.5551 75.7084 35.5043 73.05 34.8032L66.4875 40.0438C65.4842 39.9844 64.4783 39.9844 63.475 40.0438L56.9125 34.8C54.2624 35.5094 51.7183 36.5676 49.3469 37.9469L48.4094 46.2907C47.6584 46.9572 46.9478 47.6678 46.2813 48.4188L37.9344 49.3563C36.5614 51.7382 35.5105 54.2917 34.8094 56.95L40.05 63.5125C39.9907 64.5158 39.9907 65.5218 40.05 66.5251L34.8063 73.0876C35.5136 75.7463 36.5718 78.2989 37.9531 80.6782L46.2969 81.6157C46.9634 82.3666 47.6741 83.0773 48.425 83.7438L49.3625 92.0907C51.7444 93.4637 54.2979 94.5145 56.9563 95.2157L63.5188 89.975C64.5221 90.0344 65.528 90.0344 66.5313 89.975L73.0938 95.2188C75.7525 94.5115 78.3051 93.4533 80.6844 92.0719L81.6219 83.7282C82.3729 83.0616 83.0835 82.351 83.75 81.6L92.0969 80.6625C93.4699 78.2807 94.5208 75.7272 95.2219 73.0688L89.9813 66.5063C90.0323 65.5025 90.024 64.4966 89.9563 63.4938ZM65 77.5C62.5278 77.5 60.111 76.7669 58.0554 75.3934C55.9998 74.0199 54.3976 72.0677 53.4515 69.7836C52.5054 67.4995 52.2579 64.9862 52.7402 62.5614C53.2225 60.1367 54.413 57.9094 56.1612 56.1612C57.9093 54.4131 60.1366 53.2225 62.5614 52.7402C64.9862 52.2579 67.4995 52.5055 69.7836 53.4516C72.0676 54.3976 74.0199 55.9998 75.3934 58.0554C76.7669 60.111 77.5 62.5278 77.5 65C77.5 68.3153 76.1831 71.4947 73.8389 73.8389C71.4947 76.1831 68.3152 77.5 65 77.5Z" fill="#2A8E41" fill-opacity="0.5"/>
<path d="M59.7003 44.7003C56.7336 44.7003 53.8335 45.5801 51.3668 47.2283C48.9 48.8765 46.9775 51.2192 45.8421 53.9601C44.7068 56.701 44.4098 59.717 44.9886 62.6267C45.5673 65.5364 46.9959 68.2092 49.0937 70.3069C51.1915 72.4047 53.8643 73.8333 56.774 74.4121C59.6837 74.9909 62.6997 74.6938 65.4406 73.5585C68.1815 72.4232 70.5242 70.5006 72.1724 68.0339C73.8206 65.5672 74.7003 62.6671 74.7003 59.7003C74.6962 55.7234 73.1145 51.9105 70.3024 49.0983C67.4902 46.2862 63.6773 44.7045 59.7003 44.7003ZM59.7003 69.7003C57.7225 69.7003 55.7891 69.1138 54.1446 68.015C52.5001 66.9162 51.2184 65.3544 50.4615 63.5272C49.7047 61.6999 49.5066 59.6892 49.8925 57.7494C50.2783 55.8096 51.2307 54.0278 52.6293 52.6293C54.0278 51.2307 55.8096 50.2783 57.7494 49.8925C59.6892 49.5066 61.6999 49.7047 63.5272 50.4615C65.3544 51.2184 66.9162 52.5001 68.015 54.1446C69.1138 55.7891 69.7003 57.7225 69.7003 59.7003C69.7003 62.3525 68.6468 64.896 66.7714 66.7714C64.896 68.6468 62.3525 69.7003 59.7003 69.7003ZM87.2003 60.3753C87.2128 59.9253 87.2128 59.4753 87.2003 59.0253L91.8628 53.2003C92.1073 52.8945 92.2765 52.5355 92.3569 52.1523C92.4372 51.7691 92.4264 51.3724 92.3253 50.9941C91.5596 48.1214 90.4163 45.363 88.9253 42.791C88.7299 42.4545 88.4587 42.1682 88.1332 41.955C87.8077 41.7418 87.4369 41.6075 87.0503 41.5628L79.6378 40.7378C79.3295 40.4128 79.017 40.1003 78.7003 39.8003L77.8253 32.3691C77.7803 31.9823 77.6456 31.6113 77.4318 31.2857C77.218 30.9602 76.9312 30.6891 76.5941 30.4941C74.0222 29.0042 71.2637 27.863 68.391 27.1003C68.0127 26.9993 67.616 26.9885 67.2328 27.0688C66.8495 27.1491 66.4906 27.3184 66.1847 27.5628L60.3753 32.2003C59.9253 32.2003 59.4753 32.2003 59.0253 32.2003L53.2003 27.5472C52.8945 27.3027 52.5355 27.1335 52.1523 27.0532C51.7691 26.9729 51.3724 26.9837 50.9941 27.0847C48.1214 27.8504 45.363 28.9937 42.791 30.4847C42.4545 30.6801 42.1682 30.9514 41.955 31.2769C41.7418 31.6024 41.6075 31.9732 41.5628 32.3597L40.7378 39.7847C40.4128 40.0951 40.1003 40.4076 39.8003 40.7222L32.3691 41.5753C31.9823 41.6203 31.6113 41.7551 31.2857 41.9689C30.9602 42.1826 30.6891 42.4695 30.4941 42.8066C29.0045 45.379 27.8623 48.1373 27.0972 51.0097C26.9966 51.3882 26.9863 51.7851 27.0672 52.1683C27.148 52.5515 27.3178 52.9104 27.5628 53.216L32.2003 59.0253C32.2003 59.4753 32.2003 59.9253 32.2003 60.3753L27.5472 66.2003C27.3027 66.5062 27.1335 66.8652 27.0532 67.2484C26.9729 67.6316 26.9837 68.0283 27.0847 68.4066C27.8504 71.2792 28.9937 74.0377 30.4847 76.6097C30.6801 76.9462 30.9514 77.2325 31.2769 77.4457C31.6024 77.6589 31.9732 77.7932 32.3597 77.8378L39.7722 78.6628C40.0826 78.9878 40.3951 79.3003 40.7097 79.6003L41.5753 87.0316C41.6203 87.4184 41.7551 87.7894 41.9689 88.1149C42.1826 88.4405 42.4695 88.7116 42.8066 88.9066C45.379 90.3961 48.1373 91.5384 51.0097 92.3035C51.3882 92.4041 51.7851 92.4144 52.1683 92.3335C52.5515 92.2526 52.9104 92.0828 53.216 91.8378L59.0253 87.2003C59.4753 87.2128 59.9253 87.2128 60.3753 87.2003L66.2003 91.8628C66.5062 92.1073 66.8652 92.2765 67.2484 92.3569C67.6316 92.4372 68.0283 92.4264 68.4066 92.3253C71.2797 91.561 74.0383 90.4176 76.6097 88.9253C76.9462 88.7299 77.2325 88.4587 77.4457 88.1332C77.6589 87.8077 77.7932 87.4369 77.8378 87.0503L78.6628 79.6378C78.9878 79.3295 79.3003 79.017 79.6003 78.7003L87.0316 77.8253C87.4184 77.7803 87.7894 77.6456 88.1149 77.4318C88.4405 77.218 88.7116 76.9312 88.9066 76.5941C90.3961 74.0217 91.5384 71.2633 92.3035 68.391C92.4041 68.0124 92.4144 67.6156 92.3335 67.2324C92.2526 66.8491 92.0828 66.4903 91.8378 66.1847L87.2003 60.3753ZM82.1691 58.3441C82.2222 59.2475 82.2222 60.1532 82.1691 61.0566C82.1319 61.6751 82.3256 62.2854 82.7128 62.7691L87.1472 68.3097C86.6384 69.9268 85.9869 71.4955 85.2003 72.9972L78.1378 73.7972C77.5228 73.8655 76.9549 74.1594 76.5441 74.6222C75.9426 75.2987 75.3019 75.9394 74.6253 76.541C74.1626 76.9518 73.8686 77.5197 73.8003 78.1347L73.016 85.191C71.5144 85.9779 69.9457 86.6294 68.3285 87.1378L62.7847 82.7035C62.3411 82.349 61.79 82.1561 61.2222 82.1566H61.0722C60.1688 82.2097 59.2631 82.2097 58.3597 82.1566C57.7414 82.1212 57.1318 82.3147 56.6472 82.7003L51.091 87.1378C49.4739 86.629 47.9052 85.9775 46.4035 85.191L45.6035 78.1378C45.5352 77.5228 45.2412 76.9549 44.7785 76.5441C44.1019 75.9426 43.4612 75.3019 42.8597 74.6253C42.4489 74.1626 41.881 73.8686 41.266 73.8003L34.2097 73.0128C33.4228 71.5113 32.7713 69.9426 32.2628 68.3253L36.6972 62.7816C37.0844 62.2979 37.2782 61.6876 37.241 61.0691C37.1878 60.1657 37.1878 59.26 37.241 58.3566C37.2782 57.7381 37.0844 57.1278 36.6972 56.6441L32.2628 51.091C32.7717 49.4739 33.4232 47.9052 34.2097 46.4035L41.2628 45.6035C41.8779 45.5352 42.4458 45.2412 42.8566 44.7785C43.4581 44.1019 44.0988 43.4612 44.7753 42.8597C45.24 42.4486 45.5351 41.8794 45.6035 41.2628L46.3878 34.2097C47.8894 33.4228 49.4581 32.7713 51.0753 32.2628L56.6191 36.6972C57.1028 37.0844 57.7131 37.2782 58.3316 37.241C59.235 37.1878 60.1407 37.1878 61.0441 37.241C61.6624 37.2764 62.272 37.0828 62.7566 36.6972L68.3097 32.2628C69.9268 32.7717 71.4955 33.4232 72.9972 34.2097L73.7972 41.2628C73.8655 41.8779 74.1594 42.4458 74.6222 42.8566C75.2987 43.4581 75.9394 44.0988 76.541 44.7753C76.9518 45.2381 77.5197 45.5321 78.1347 45.6003L85.191 46.3847C85.9779 47.8863 86.6294 49.455 87.1378 51.0722L82.7035 56.616C82.3125 57.1038 82.1185 57.7203 82.1597 58.3441H82.1691Z" fill="black"/>
</svg>
