<svg width="60" height="61" viewBox="0 0 60 61" fill="none" xmlns="http://www.w3.org/2000/svg">
<g clip-path="url(#clip0_396_101)">
<path d="M24.8719 14.858L18.6887 49.9248C18.5396 50.7703 18.7325 51.6403 19.2249 52.3436C19.7174 53.0469 20.469 53.5257 21.3145 53.6748L40.4418 57.0474C41.2873 57.1965 42.1574 57.0036 42.8606 56.5112C43.5639 56.0188 44.0427 55.2671 44.1918 54.4217L50.375 19.3549C50.5241 18.5094 50.3312 17.6393 49.8388 16.9361C49.3464 16.2328 48.5947 15.754 47.7492 15.6049L28.6219 12.2322C27.7764 12.0831 26.9064 12.276 26.2031 12.7685C25.4998 13.2609 25.021 14.0125 24.8719 14.858Z" fill="#86BA97"/>
<path d="M24.3711 6.10643L43.4984 9.4791C44.7667 9.70272 45.8941 10.421 46.6327 11.4759C47.3714 12.5308 47.6607 13.8359 47.4371 15.1041L41.2539 50.1709C41.0303 51.4391 40.312 52.5665 39.2571 53.3052C38.2022 54.0438 36.8971 54.3332 35.6289 54.1095L16.5016 50.7369C15.2333 50.5133 14.1059 49.795 13.3672 48.7401C12.6286 47.6852 12.3393 46.3801 12.5629 45.1119L18.7461 10.0451C18.9697 8.77688 19.688 7.64944 20.7429 6.91079C21.7978 6.17215 23.1029 5.88281 24.3711 6.10643ZM15.7508 45.674C15.6762 46.0967 15.7727 46.5318 16.0189 46.8834C16.2651 47.235 16.6409 47.4745 17.0637 47.549L36.191 50.9217C36.6137 50.9962 37.0488 50.8998 37.4004 50.6535C37.752 50.4073 37.9915 50.0315 38.066 49.6088L44.2492 14.542C44.3238 14.1192 44.2273 13.6842 43.9811 13.3326C43.7349 12.9809 43.3591 12.7415 42.9363 12.667L23.809 9.29432C23.3863 9.21978 22.9512 9.31623 22.5996 9.56244C22.248 9.80866 22.0085 10.1845 21.934 10.6072L15.7508 45.674ZM29.9981 16.1379C29.9147 16.6108 29.9734 17.0977 30.1668 17.5373C30.3602 17.9768 30.6795 18.3491 31.0845 18.607C31.4895 18.865 31.9619 18.9972 32.4419 18.9867C32.922 18.9762 33.3882 18.8236 33.7815 18.5482C34.1748 18.2728 34.4777 17.8869 34.6517 17.4394C34.8257 16.9919 34.8631 16.5028 34.7592 16.034C34.6553 15.5652 34.4147 15.1378 34.0678 14.8057C33.721 14.4737 33.2834 14.2519 32.8106 14.1685C32.1764 14.0567 31.5239 14.2014 30.9964 14.5707C30.469 14.94 30.1099 15.5038 29.9981 16.1379Z" fill="black"/>
</g>
<defs>
<clipPath id="clip0_396_101">
<rect width="51.7931" height="51.7931" fill="white" transform="matrix(-0.984808 -0.173648 -0.173648 0.984808 60 9.10181)"/>
</clipPath>
</defs>
</svg>
