<svg width="60" height="62" viewBox="0 0 60 62" fill="none" xmlns="http://www.w3.org/2000/svg">
<rect width="60" height="62" rx="8" fill="#F4F4F4"/>
<path d="M40 20H20C19.2044 20 18.4413 20.3161 17.8787 20.8787C17.3161 21.4413 17 22.2044 17 23V37C17 37.7957 17.3161 38.5587 17.8787 39.1213C18.4413 39.6839 19.2044 40 20 40H40C40.7957 40 41.5587 39.6839 42.1213 39.1213C42.6839 38.5587 43 37.7957 43 37V23C43 22.2044 42.6839 21.4413 42.1213 20.8787C41.5587 20.3161 40.7957 20 40 20ZM41 37C41 37.2652 40.8946 37.5196 40.7071 37.7071C40.5196 37.8946 40.2652 38 40 38H20C19.7348 38 19.4804 37.8946 19.2929 37.7071C19.1054 37.5196 19 37.2652 19 37V23C19 22.7348 19.1054 22.4804 19.2929 22.2929C19.4804 22.1054 19.7348 22 20 22H40C40.2652 22 40.5196 22.1054 40.7071 22.2929C40.8946 22.4804 41 22.7348 41 23V37ZM35 43C35 43.2652 34.8946 43.5196 34.7071 43.7071C34.5196 43.8946 34.2652 44 34 44H26C25.7348 44 25.4804 43.8946 25.2929 43.7071C25.1054 43.5196 25 43.2652 25 43C25 42.7348 25.1054 42.4804 25.2929 42.2929C25.4804 42.1054 25.7348 42 26 42H34C34.2652 42 34.5196 42.1054 34.7071 42.2929C34.8946 42.4804 35 42.7348 35 43Z" fill="black"/>
<path d="M26.6933 34.7081L22.6933 30.7081C22.6003 30.6152 22.5266 30.5049 22.4763 30.3835C22.4259 30.2621 22.4 30.132 22.4 30.0006C22.4 29.8691 22.4259 29.739 22.4763 29.6176C22.5266 29.4962 22.6003 29.3859 22.6933 29.2931L26.6933 25.2931C26.881 25.1054 27.1354 25 27.4008 25C27.6662 25 27.9207 25.1054 28.1083 25.2931C28.296 25.4807 28.4014 25.7352 28.4014 26.0006C28.4014 26.2659 28.296 26.5204 28.1083 26.7081L24.8146 30.0006L28.1083 33.2931C28.296 33.4807 28.4014 33.7352 28.4014 34.0006C28.4014 34.2659 28.296 34.5204 28.1083 34.7081C27.9207 34.8957 27.6662 35.0011 27.4008 35.0011C27.1354 35.0011 26.881 34.8957 26.6933 34.7081ZM31.6933 34.7081C31.7862 34.801 31.8965 34.8748 32.0179 34.9251C32.1393 34.9754 32.2694 35.0013 32.4008 35.0013C32.5322 35.0013 32.6624 34.9754 32.7838 34.9251C32.9051 34.8748 33.0154 34.801 33.1083 34.7081L37.1083 30.7081C37.2013 30.6152 37.275 30.5049 37.3254 30.3835C37.3757 30.2621 37.4016 30.132 37.4016 30.0006C37.4016 29.8691 37.3757 29.739 37.3254 29.6176C37.275 29.4962 37.2013 29.3859 37.1083 29.2931L33.1083 25.2931C32.9207 25.1054 32.6662 25 32.4008 25C32.1354 25 31.881 25.1054 31.6933 25.2931C31.5057 25.4807 31.4003 25.7352 31.4003 26.0006C31.4003 26.2659 31.5057 26.5204 31.6933 26.7081L34.9871 30.0006L31.6933 33.2931C31.6003 33.3859 31.5266 33.4962 31.4763 33.6176C31.4259 33.739 31.4 33.8691 31.4 34.0006C31.4 34.132 31.4259 34.2621 31.4763 34.3835C31.5266 34.5049 31.6003 34.6152 31.6933 34.7081Z" fill="black"/>
</svg>
