<svg width="120" height="121" viewBox="0 0 120 121" fill="none" xmlns="http://www.w3.org/2000/svg">
<rect opacity="0.2" y="0.26001" width="120" height="120" rx="16" fill="#32A74D"/>
<rect x="42.4932" y="37.7947" width="44.8667" height="54.8372" fill="#86BA97"/>
<path d="M76.7688 65.9913C77.0012 66.2234 77.1856 66.4992 77.3114 66.8027C77.4372 67.1062 77.502 67.4315 77.502 67.76C77.502 68.0885 77.4372 68.4139 77.3114 68.7174C77.1856 69.0209 77.0012 69.2966 76.7688 69.5288L69.2688 77.0288C68.7996 77.4979 68.1634 77.7614 67.5 77.7614C66.8366 77.7614 66.2004 77.4979 65.7312 77.0288C65.2621 76.5597 64.9986 75.9234 64.9986 75.26C64.9986 74.5966 65.2621 73.9604 65.7312 73.4913L71.4656 67.76L65.7312 62.0288C65.2621 61.5597 64.9986 60.9234 64.9986 60.26C64.9986 59.5966 65.2621 58.9604 65.7312 58.4913C66.2004 58.0222 66.8366 57.7586 67.5 57.7586C68.1634 57.7586 68.7996 58.0222 69.2688 58.4913L76.7688 65.9913ZM54.2688 58.4913C54.0366 58.2588 53.7608 58.0744 53.4574 57.9486C53.1539 57.8228 52.8285 57.758 52.5 57.758C52.1715 57.758 51.8461 57.8228 51.5426 57.9486C51.2392 58.0744 50.9634 58.2588 50.7312 58.4913L43.2312 65.9913C42.9988 66.2234 42.8144 66.4992 42.6886 66.8027C42.5628 67.1062 42.498 67.4315 42.498 67.76C42.498 68.0885 42.5628 68.4139 42.6886 68.7174C42.8144 69.0209 42.9988 69.2966 43.2312 69.5288L50.7312 77.0288C50.9635 77.261 51.2393 77.4453 51.5428 77.571C51.8462 77.6967 52.1715 77.7614 52.5 77.7614C52.8285 77.7614 53.1538 77.6967 53.4572 77.571C53.7607 77.4453 54.0365 77.261 54.2688 77.0288C54.501 76.7965 54.6853 76.5207 54.811 76.2173C54.9367 75.9138 55.0014 75.5885 55.0014 75.26C55.0014 74.9315 54.9367 74.6063 54.811 74.3028C54.6853 73.9993 54.501 73.7235 54.2688 73.4913L48.5344 67.76L54.2688 62.0288C54.5012 61.7966 54.6856 61.5209 54.8114 61.2174C54.9372 60.9139 55.002 60.5885 55.002 60.26C55.002 59.9315 54.9372 59.6062 54.8114 59.3027C54.6856 58.9992 54.5012 58.7234 54.2688 58.4913ZM87.5 47.76V87.76C87.5 89.0861 86.9732 90.3579 86.0355 91.2955C85.0979 92.2332 83.8261 92.76 82.5 92.76H37.5C36.1739 92.76 34.9021 92.2332 33.9645 91.2955C33.0268 90.3579 32.5 89.0861 32.5 87.76V32.76C32.5 31.4339 33.0268 30.1622 33.9645 29.2245C34.9021 28.2868 36.1739 27.76 37.5 27.76H67.5C67.8284 27.7598 68.1536 27.8242 68.4571 27.9497C68.7606 28.0751 69.0364 28.2592 69.2688 28.4913L86.7688 45.9913C87.0008 46.2236 87.1849 46.4994 87.3103 46.8029C87.4358 47.1064 87.5003 47.4316 87.5 47.76ZM70 45.26H78.9656L70 36.2944V45.26ZM82.5 87.76V50.26H67.5C66.837 50.26 66.2011 49.9966 65.7322 49.5278C65.2634 49.0589 65 48.4231 65 47.76V32.76H37.5V87.76H82.5Z" fill="black"/>
</svg>
