<svg width="60" height="62" viewBox="0 0 60 62" fill="none" xmlns="http://www.w3.org/2000/svg">
<rect width="60" height="62" rx="8" fill="#F4F4F4"/>
<path d="M38 27C38 30.5638 34.9412 33.5138 31 33.945V35C31 35.2652 30.8946 35.5196 30.7071 35.7071C30.5196 35.8946 30.2652 36 30 36C29.7348 36 29.4804 35.8946 29.2929 35.7071C29.1054 35.5196 29 35.2652 29 35V33C29 32.7348 29.1054 32.4804 29.2929 32.2929C29.4804 32.1054 29.7348 32 30 32C33.3088 32 36 29.7575 36 27C36 24.2425 33.3088 22 30 22C26.6912 22 24 24.2425 24 27C24 27.2652 23.8946 27.5196 23.7071 27.7071C23.5196 27.8946 23.2652 28 23 28C22.7348 28 22.4804 27.8946 22.2929 27.7071C22.1054 27.5196 22 27.2652 22 27C22 23.14 25.5887 20 30 20C34.4113 20 38 23.14 38 27ZM30 39C29.6044 39 29.2178 39.1173 28.8889 39.3371C28.56 39.5568 28.3036 39.8692 28.1522 40.2346C28.0009 40.6001 27.9613 41.0022 28.0384 41.3902C28.1156 41.7781 28.3061 42.1345 28.5858 42.4142C28.8655 42.6939 29.2219 42.8844 29.6098 42.9616C29.9978 43.0387 30.3999 42.9991 30.7654 42.8478C31.1308 42.6964 31.4432 42.44 31.6629 42.1111C31.8827 41.7822 32 41.3956 32 41C32 40.4696 31.7893 39.9609 31.4142 39.5858C31.0391 39.2107 30.5304 39 30 39Z" fill="black"/>
</svg>
