<svg width="60" height="62" viewBox="0 0 60 62" fill="none" xmlns="http://www.w3.org/2000/svg">
<rect width="60" height="62" rx="8" fill="#F4F4F4"/>
<path d="M30 29C29.1595 29.0003 28.3472 29.303 27.7115 29.8529C27.0758 30.4027 26.6592 31.163 26.5378 31.9947C26.4165 32.8264 26.5985 33.674 27.0506 34.3825C27.5027 35.0911 28.1946 35.6133 29 35.8538V38C29 38.2652 29.1054 38.5196 29.2929 38.7071C29.4804 38.8946 29.7348 39 30 39C30.2652 39 30.5196 38.8946 30.7071 38.7071C30.8946 38.5196 31 38.2652 31 38V35.8538C31.8054 35.6133 32.4973 35.0911 32.9494 34.3825C33.4015 33.674 33.5835 32.8264 33.4622 31.9947C33.3408 31.163 32.9242 30.4027 32.2885 29.8529C31.6528 29.303 30.8405 29.0003 30 29ZM30 34C29.7033 34 29.4133 33.912 29.1666 33.7472C28.92 33.5824 28.7277 33.3481 28.6142 33.074C28.5006 32.7999 28.4709 32.4983 28.5288 32.2074C28.5867 31.9164 28.7296 31.6491 28.9393 31.4393C29.1491 31.2296 29.4164 31.0867 29.7074 31.0288C29.9983 30.9709 30.2999 31.0007 30.574 31.1142C30.8481 31.2277 31.0824 31.42 31.2472 31.6666C31.412 31.9133 31.5 32.2033 31.5 32.5C31.5 32.8978 31.342 33.2794 31.0607 33.5607C30.7794 33.842 30.3978 34 30 34ZM40 25H36V22C36 20.4087 35.3679 18.8826 34.2426 17.7574C33.1174 16.6321 31.5913 16 30 16C28.4087 16 26.8826 16.6321 25.7574 17.7574C24.6321 18.8826 24 20.4087 24 22V25H20C19.4696 25 18.9609 25.2107 18.5858 25.5858C18.2107 25.9609 18 26.4696 18 27V41C18 41.5304 18.2107 42.0391 18.5858 42.4142C18.9609 42.7893 19.4696 43 20 43H40C40.5304 43 41.0391 42.7893 41.4142 42.4142C41.7893 42.0391 42 41.5304 42 41V27C42 26.4696 41.7893 25.9609 41.4142 25.5858C41.0391 25.2107 40.5304 25 40 25ZM26 22C26 20.9391 26.4214 19.9217 27.1716 19.1716C27.9217 18.4214 28.9391 18 30 18C31.0609 18 32.0783 18.4214 32.8284 19.1716C33.5786 19.9217 34 20.9391 34 22V25H26V22ZM40 41H20V27H40V41Z" fill="black"/>
</svg>
