<svg width="120" height="120" viewBox="0 0 120 120" fill="none" xmlns="http://www.w3.org/2000/svg">
<rect opacity="0.2" width="120" height="120" rx="16" fill="#32A74D"/>
<path d="M91 58.5C91.0034 62.2879 90.1443 66.027 88.4881 69.4337C86.8318 72.8404 84.4218 75.8254 81.4406 78.1625C80.5302 78.8681 79.7923 79.7716 79.2828 80.8046C78.7734 81.8377 78.5057 82.9731 78.5 84.125V86C78.5 86.663 78.2366 87.2989 77.7678 87.7677C77.2989 88.2366 76.6631 88.5 76 88.5H56C55.337 88.5 54.7011 88.2366 54.2323 87.7677C53.7634 87.2989 53.5 86.663 53.5 86V84.125C53.4988 82.9795 53.2364 81.8493 52.7328 80.8204C52.2292 79.7916 51.4977 78.8911 50.5938 78.1875C47.6218 75.8658 45.2146 72.9008 43.553 69.5154C41.8913 66.1298 41.0185 62.4118 41 58.6406C40.925 45.0906 51.85 33.8125 65.3969 33.5C68.7303 33.4195 72.0462 34.0067 75.1493 35.227C78.2524 36.4473 81.08 38.2761 83.4658 40.6056C85.8515 42.9351 87.7471 45.7183 89.041 48.7915C90.3349 51.8646 91.001 55.1655 91 58.5Z" fill="#2A8E41" fill-opacity="0.5"/>
<path d="M75 92.5C75 93.163 74.7367 93.7989 74.2678 94.2678C73.799 94.7366 73.1631 95 72.5 95H47.5C46.837 95 46.2011 94.7366 45.7323 94.2678C45.2634 93.7989 45 93.163 45 92.5C45 91.8369 45.2634 91.2011 45.7323 90.7322C46.2011 90.2634 46.837 90 47.5 90H72.5C73.1631 90 73.799 90.2634 74.2678 90.7322C74.7367 91.2011 75 91.8369 75 92.5ZM87.5 52.5C87.5108 56.6676 86.5693 60.7826 84.7474 64.531C82.9255 68.2793 80.2714 71.5618 76.9875 74.1281C76.3735 74.5988 75.8752 75.2036 75.5308 75.8963C75.1863 76.589 75.0048 77.3513 75 78.125V80C75 81.3261 74.4733 82.5978 73.5356 83.5355C72.5979 84.4732 71.3261 85 70 85H50C48.674 85 47.4022 84.4732 46.4645 83.5355C45.5268 82.5978 45 81.3261 45 80V78.125C44.9995 77.3606 44.8238 76.6065 44.4863 75.9207C44.1488 75.2348 43.6585 74.6355 43.0532 74.1687C39.778 71.618 37.1259 68.3556 35.2975 64.6286C33.4692 60.9016 32.5126 56.8075 32.5 52.6562C32.4188 37.7594 44.4563 25.3594 59.3375 25C63.0043 24.9116 66.6516 25.5577 70.0649 26.9C73.4782 28.2424 76.5885 30.2541 79.2127 32.8165C81.8369 35.379 83.922 38.4405 85.3452 41.8209C86.7685 45.2013 87.5011 48.8322 87.5 52.5ZM82.5 52.5C82.5009 49.4989 81.9014 46.528 80.7368 43.7621C79.5723 40.9963 77.8661 38.4913 75.7189 36.3947C73.5716 34.2981 71.0266 32.6523 68.2337 31.5541C65.4408 30.4559 62.4565 29.9275 59.4563 30C47.2688 30.2875 37.4344 40.4344 37.5 52.6219C37.5112 56.0175 38.2947 59.3661 39.7911 62.4142C41.2876 65.4623 43.4578 68.1301 46.1375 70.2156C47.3421 71.152 48.3163 72.3516 48.9858 73.7225C49.6553 75.0934 50.0022 76.5993 50 78.125V80H57.5V66.0344L48.2313 56.7687C47.7622 56.2996 47.4987 55.6634 47.4987 55C47.4987 54.3366 47.7622 53.7003 48.2313 53.2312C48.7004 52.7621 49.3366 52.4986 50 52.4986C50.6635 52.4986 51.2997 52.7621 51.7688 53.2312L60 61.4656L68.2313 53.2312C68.4636 52.999 68.7393 52.8147 69.0428 52.689C69.3463 52.5633 69.6716 52.4986 70 52.4986C70.3285 52.4986 70.6538 52.5633 70.9573 52.689C71.2608 52.8147 71.5365 52.999 71.7688 53.2312C72.0011 53.4635 72.1853 53.7393 72.311 54.0427C72.4367 54.3462 72.5014 54.6715 72.5014 55C72.5014 55.3285 72.4367 55.6537 72.311 55.9572C72.1853 56.2607 72.0011 56.5365 71.7688 56.7687L62.5 66.0344V80H70V78.125C70.0028 76.5949 70.3554 75.0856 71.0308 73.7126C71.7062 72.3396 72.6865 71.1392 73.8969 70.2031C76.5847 68.1026 78.757 65.4157 80.2481 62.3476C81.7391 59.2794 82.5093 55.9112 82.5 52.5Z" fill="black"/>
</svg>
