<svg width="80" height="80" viewBox="0 0 80 80" fill="none" xmlns="http://www.w3.org/2000/svg">
<path d="M15 45C15.0012 39.7342 16.3884 34.5614 19.0222 30.0016C21.656 25.4418 25.4436 21.6556 30.0044 19.0234C34.5652 16.3913 39.7384 15.006 45.0042 15.0067C50.27 15.0075 55.4429 16.3942 60.0029 19.0276C64.563 21.6611 68.3495 25.4484 70.982 30.0089C73.6145 34.5695 75.0003 39.7426 75 45.0084C74.9997 50.2742 73.6134 55.4472 70.9803 60.0074C68.3473 64.5677 64.5603 68.3546 60 70.9875V60L45 27.5L30 60V70.9875C25.4384 68.3539 21.6507 64.5657 19.0176 60.0038C16.3844 55.4419 14.9988 50.2672 15 45Z" fill="#2A8E41" fill-opacity="0.5"/>
<path d="M17.0187 17.0188C23.1137 10.9238 31.3803 7.49963 40 7.49963C48.6196 7.49963 56.8862 10.9238 62.9812 17.0188C69.0762 23.1138 72.5004 31.3804 72.5004 40C72.5004 48.6197 69.0762 56.8863 62.9812 62.9813C56.8862 69.0763 48.6196 72.5004 40 72.5004C31.3803 72.5004 23.1137 69.0763 17.0187 62.9813C10.9237 56.8863 7.49957 48.6197 7.49957 40C7.49957 31.3804 10.9237 23.1138 17.0187 17.0188ZM52.5 60C52.5 58.6739 51.9732 57.4022 51.0355 56.4645C50.0978 55.5268 48.8261 55 47.5 55C46.1739 55 44.9021 55.5268 43.9644 56.4645C43.0268 57.4022 42.5 58.6739 42.5 60V67.3719C45.9863 67.0567 49.3804 66.0788 52.5 64.4907V60ZM37.5 60C37.5 58.6739 36.9732 57.4022 36.0355 56.4645C35.0978 55.5268 33.8261 55 32.5 55C31.1739 55 29.9021 55.5268 28.9644 56.4645C28.0268 57.4022 27.5 58.6739 27.5 60V64.4907C30.6195 66.0788 34.0136 67.0567 37.5 67.3719V60ZM46.4781 42.5H33.5218L29.9031 50.3438C31.7033 49.8586 33.6034 49.8874 35.388 50.4271C37.1726 50.9667 38.7703 51.9955 40 53.3969C41.2297 51.9955 42.8274 50.9667 44.612 50.4271C46.3966 49.8874 48.2967 49.8586 50.0968 50.3438L46.4781 42.5ZM44.1687 37.5L40 28.4657L35.8312 37.5H44.1687ZM20.5562 59.4469C21.1812 60.0719 21.8312 60.6563 22.5 61.2094V55C22.4995 54.6384 22.5785 54.281 22.7312 53.9532L37.7312 21.4532C37.9316 21.0202 38.2517 20.6536 38.6537 20.3967C39.0558 20.1398 39.5229 20.0033 40 20.0033C40.4771 20.0033 40.9442 20.1398 41.3462 20.3967C41.7482 20.6536 42.0683 21.0202 42.2687 21.4532L57.2687 53.9532C57.4215 54.281 57.5004 54.6384 57.5 55V61.2094C58.1687 60.6563 58.8187 60.0719 59.4437 59.4469C63.2901 55.6012 65.9097 50.7011 66.9712 45.3665C68.0327 40.0319 67.4884 34.5023 65.4071 29.4771C63.3258 24.4518 59.8011 20.1566 55.2786 17.1347C50.7562 14.1127 45.4392 12.4998 40 12.4998C34.5608 12.4998 29.2437 14.1127 24.7213 17.1347C20.1988 20.1566 16.6741 24.4518 14.5928 29.4771C12.5116 34.5023 11.9672 40.0319 13.0287 45.3665C14.0902 50.7011 16.7098 55.6012 20.5562 59.4469Z" fill="black"/>
</svg>
