<svg width="60" height="60" viewBox="0 0 60 60" fill="none" xmlns="http://www.w3.org/2000/svg">
<g clip-path="url(#clip0_396_91)">
<path d="M60.75 34.5C60.75 39.4728 58.7746 44.2419 55.2583 47.7582C51.742 51.2745 46.9729 53.25 42 53.25H21.375C19.514 53.2477 17.6747 52.8496 15.9793 52.0823C14.2838 51.3149 12.7709 50.1957 11.541 48.799C10.3111 47.4023 9.39228 45.7601 8.8455 43.9812C8.29872 42.2023 8.1365 40.3274 8.3696 38.4811C8.6027 36.6347 9.22579 34.859 10.1975 33.2718C11.1693 31.6846 12.4674 30.3222 14.0059 29.275C15.5443 28.2278 17.2879 27.5198 19.1209 27.1979C20.9538 26.8759 22.8343 26.9475 24.6375 27.4078V27.4312C26.2783 23.4068 29.2661 20.0773 33.0901 18.0121C36.9141 15.9468 41.3368 15.2741 45.6019 16.109C49.867 16.9439 53.7096 19.2344 56.4727 22.589C59.2358 25.9436 60.7478 30.1539 60.75 34.5Z" fill="#86BA97"/>
<path d="M41.7985 38.8266L37.5 34.5258V48.75C37.5 49.2473 37.3025 49.7242 36.9509 50.0758C36.5992 50.4275 36.1223 50.625 35.625 50.625C35.1277 50.625 34.6508 50.4275 34.2992 50.0758C33.9476 49.7242 33.75 49.2473 33.75 48.75V34.5258L29.4516 38.8266C29.2774 39.0008 29.0706 39.139 28.843 39.2332C28.6153 39.3275 28.3714 39.376 28.125 39.376C27.8787 39.376 27.6347 39.3275 27.4071 39.2332C27.1795 39.139 26.9727 39.0008 26.7985 38.8266C26.6243 38.6524 26.4861 38.4455 26.3918 38.2179C26.2975 37.9903 26.249 37.7464 26.249 37.5C26.249 37.2536 26.2975 37.0097 26.3918 36.7821C26.4861 36.5545 26.6243 36.3476 26.7985 36.1734L34.2985 28.6734C34.4726 28.4991 34.6794 28.3608 34.907 28.2665C35.1346 28.1721 35.3786 28.1235 35.625 28.1235C35.8714 28.1235 36.1154 28.1721 36.343 28.2665C36.5707 28.3608 36.7775 28.4991 36.9516 28.6734L44.4516 36.1734C44.6258 36.3476 44.764 36.5545 44.8583 36.7821C44.9525 37.0097 45.0011 37.2536 45.0011 37.5C45.0011 37.7464 44.9525 37.9903 44.8583 38.2179C44.764 38.4455 44.6258 38.6524 44.4516 38.8266C44.2774 39.0008 44.0706 39.139 43.843 39.2332C43.6153 39.3275 43.3714 39.376 43.125 39.376C42.8787 39.376 42.6347 39.3275 42.4071 39.2332C42.1795 39.139 41.9727 39.0008 41.7985 38.8266ZM37.5 9.375C33.6693 9.37789 29.9149 10.4466 26.657 12.4616C23.399 14.4765 20.7659 17.3583 19.0524 20.7844C17.0122 20.4846 14.9321 20.6087 12.942 21.1489C10.952 21.6891 9.09465 22.6338 7.48609 23.924C5.87752 25.2143 4.55227 26.8223 3.59309 28.6478C2.63392 30.4732 2.06142 32.4768 1.91135 34.5334C1.76129 36.59 2.03689 38.6555 2.72093 40.6008C3.40497 42.5462 4.48276 44.3296 5.887 45.8396C7.29123 47.3497 8.99174 48.554 10.8823 49.3774C12.7729 50.2008 14.8129 50.6255 16.875 50.625H26.25C26.7473 50.625 27.2242 50.4275 27.5759 50.0758C27.9275 49.7242 28.125 49.2473 28.125 48.75C28.125 48.2527 27.9275 47.7758 27.5759 47.4242C27.2242 47.0725 26.7473 46.875 26.25 46.875H16.875C13.8913 46.875 11.0299 45.6897 8.92008 43.58C6.81029 41.4702 5.62503 38.6087 5.62503 35.625C5.62503 32.6413 6.81029 29.7798 8.92008 27.67C11.0299 25.5603 13.8913 24.375 16.875 24.375C17.1328 24.375 17.3907 24.375 17.6461 24.4031C17.1336 26.2245 16.8741 28.1078 16.875 30C16.875 30.4973 17.0726 30.9742 17.4242 31.3258C17.7758 31.6775 18.2527 31.875 18.75 31.875C19.2473 31.875 19.7242 31.6775 20.0759 31.3258C20.4275 30.9742 20.625 30.4973 20.625 30C20.6255 26.9577 21.4484 23.9721 23.0066 21.3592C24.5649 18.7463 26.8005 16.6032 29.477 15.1568C32.1534 13.7104 35.1711 13.0144 38.2107 13.1425C41.2503 13.2706 44.1987 14.2181 46.7439 15.8846C49.2891 17.5511 51.3365 19.8747 52.6694 22.6095C54.0022 25.3443 54.5709 28.3885 54.3154 31.4201C54.0598 34.4516 52.9895 37.3577 51.2176 39.8307C49.4458 42.3038 47.0383 44.2518 44.25 45.4688C43.8541 45.6404 43.5295 45.9433 43.331 46.3265C43.1325 46.7096 43.0722 47.1495 43.1603 47.572C43.2484 47.9944 43.4795 48.3735 43.8147 48.6453C44.1498 48.9171 44.5685 49.065 45 49.0641C45.2584 49.0638 45.5139 49.0096 45.75 48.9047C50.0938 47.0099 53.6525 43.677 55.8277 39.4667C58.0029 35.2563 58.6618 30.4254 57.6936 25.7863C56.7254 21.1472 54.1892 16.983 50.5115 13.9942C46.8338 11.0054 42.2391 9.37418 37.5 9.375Z" fill="black"/>
</g>
<defs>
<clipPath id="clip0_396_91">
<rect width="60" height="60" fill="white"/>
</clipPath>
</defs>
</svg>
