<svg width="120" height="121" viewBox="0 0 120 121" fill="none" xmlns="http://www.w3.org/2000/svg">
<rect opacity="0.2" y="0.26001" width="120" height="120" rx="16" fill="#32A74D"/>
<rect x="42.4932" y="37.7947" width="44.8667" height="54.8372" fill="#86BA97"/>
<path d="M86.7688 45.9913L69.2688 28.4913C69.0364 28.2592 68.7606 28.0751 68.4571 27.9497C68.1536 27.8242 67.8284 27.7598 67.5 27.76H37.5C36.1739 27.76 34.9021 28.2868 33.9645 29.2245C33.0268 30.1622 32.5 31.4339 32.5 32.76V87.76C32.5 89.0861 33.0268 90.3579 33.9645 91.2955C34.9021 92.2332 36.1739 92.76 37.5 92.76H82.5C83.8261 92.76 85.0979 92.2332 86.0355 91.2955C86.9732 90.3579 87.5 89.0861 87.5 87.76V47.76C87.5003 47.4316 87.4358 47.1064 87.3103 46.8029C87.1849 46.4994 87.0008 46.2236 86.7688 45.9913ZM70 36.2944L78.9656 45.26H70V36.2944ZM82.5 87.76H37.5V32.76H65V47.76C65 48.4231 65.2634 49.0589 65.7322 49.5278C66.2011 49.9966 66.837 50.26 67.5 50.26H82.5V87.76ZM68.2688 72.4944C69.7442 70.1499 70.3041 67.344 69.8415 64.6128C69.3789 61.8816 67.9263 59.4166 65.7611 57.6887C63.596 55.9608 60.8701 55.0912 58.1043 55.246C55.3386 55.4009 52.7268 56.5693 50.7681 58.5281C48.8093 60.4868 47.6409 63.0986 47.486 65.8644C47.3312 68.6301 48.2008 71.356 49.9287 73.5211C51.6566 75.6863 54.1216 77.1389 56.8528 77.6015C59.584 78.0641 62.3899 77.5042 64.7344 76.0288L68.2312 79.5288C68.4635 79.761 68.7393 79.9453 69.0428 80.071C69.3462 80.1967 69.6715 80.2614 70 80.2614C70.3285 80.2614 70.6538 80.1967 70.9572 80.071C71.2607 79.9453 71.5365 79.761 71.7688 79.5288C72.001 79.2965 72.1853 79.0207 72.311 78.7173C72.4367 78.4138 72.5014 78.0885 72.5014 77.76C72.5014 77.4315 72.4367 77.1063 72.311 76.8028C72.1853 76.4993 72.001 76.2235 71.7688 75.9913L68.2688 72.4944ZM52.5 66.51C52.5 65.2739 52.8666 64.0655 53.5533 63.0377C54.2401 62.0099 55.2162 61.2088 56.3582 60.7358C57.5003 60.2627 58.7569 60.1389 59.9693 60.3801C61.1817 60.6213 62.2953 61.2165 63.1694 62.0906C64.0435 62.9647 64.6388 64.0783 64.8799 65.2907C65.1211 66.5031 64.9973 67.7597 64.5242 68.9018C64.0512 70.0438 63.2501 71.0199 62.2223 71.7067C61.1945 72.3935 59.9861 72.76 58.75 72.76C57.0924 72.76 55.5027 72.1015 54.3306 70.9294C53.1585 69.7573 52.5 68.1676 52.5 66.51Z" fill="black"/>
</svg>
