<svg width="120" height="120" viewBox="0 0 120 120" fill="none" xmlns="http://www.w3.org/2000/svg">
<rect opacity="0.2" width="120" height="120" rx="16" fill="#32A74D"/>
<g clip-path="url(#clip0_142_63)">
<path d="M101 66C101 72.6304 98.3661 78.9893 93.6777 83.6777C88.9893 88.3661 82.6304 91 76 91H48.5C46.0186 90.997 43.5663 90.4662 41.3056 89.4431C39.045 88.4199 37.0279 86.9277 35.388 85.0654C33.7481 83.2032 32.523 81.0135 31.7939 78.6416C31.0649 76.2697 30.8486 73.7699 31.1594 71.3081C31.4702 68.8463 32.301 66.4787 33.5966 64.3624C34.8923 62.2462 36.6232 60.4297 38.6744 59.0334C40.7257 57.6371 43.0505 56.6931 45.4944 56.2638C47.9384 55.8346 50.4457 55.93 52.85 56.5438V56.575C55.0376 51.2091 59.0214 46.7698 64.12 44.0161C69.2187 41.2625 75.1156 40.3656 80.8024 41.4787C86.4892 42.5919 91.6127 45.6459 95.2969 50.1188C98.981 54.5916 100.997 60.2053 101 66Z" fill="#2A8E41" fill-opacity="0.5"/>
<path d="M70 32.5C64.8928 32.5039 59.8873 33.9286 55.5434 36.6146C51.1996 39.3006 47.6886 43.1421 45.4031 47.7094C42.6842 47.3128 39.9128 47.4808 37.2617 48.2027C34.6106 48.9247 32.1367 50.1852 29.9943 51.9055C27.8519 53.6259 26.087 55.7692 24.8096 58.2019C23.5322 60.6346 22.7697 63.3043 22.5698 66.0447C22.3699 68.785 22.7367 71.5372 23.6475 74.1295C24.5583 76.7218 25.9934 79.0986 27.8634 81.1117C29.7334 83.1248 31.9982 84.731 34.5164 85.8302C37.0347 86.9293 39.7523 87.4977 42.5 87.5H70C77.2934 87.5 84.2882 84.6027 89.4454 79.4454C94.6027 74.2882 97.5 67.2935 97.5 60C97.5 52.7065 94.6027 45.7118 89.4454 40.5546C84.2882 35.3973 77.2934 32.5 70 32.5ZM70 82.5H42.5C38.5217 82.5 34.7064 80.9197 31.8934 78.1066C29.0803 75.2936 27.5 71.4782 27.5 67.5C27.5 63.5218 29.0803 59.7064 31.8934 56.8934C34.7064 54.0804 38.5217 52.5 42.5 52.5C42.8437 52.5 43.1875 52.5 43.5281 52.5344C42.8444 54.9639 42.4985 57.4761 42.5 60C42.5 60.663 42.7634 61.2989 43.2322 61.7678C43.7011 62.2366 44.3369 62.5 45 62.5C45.663 62.5 46.2989 62.2366 46.7678 61.7678C47.2366 61.2989 47.5 60.663 47.5 60C47.5 55.5499 48.8196 51.1998 51.2919 47.4997C53.7643 43.7996 57.2783 40.9157 61.3896 39.2127C65.5009 37.5097 70.025 37.0642 74.3895 37.9323C78.7541 38.8005 82.7632 40.9434 85.9099 44.0901C89.0566 47.2368 91.1995 51.2459 92.0677 55.6105C92.9358 59.975 92.4903 64.499 90.7873 68.6104C89.0843 72.7217 86.2004 76.2357 82.5003 78.7081C78.8002 81.1804 74.4501 82.5 70 82.5ZM81.7687 53.2312C82.0012 53.4634 82.1856 53.7392 82.3114 54.0426C82.4372 54.3461 82.502 54.6715 82.502 55C82.502 55.3285 82.4372 55.6539 82.3114 55.9574C82.1856 56.2608 82.0012 56.5366 81.7687 56.7688L66.7687 71.7688C66.5366 72.0012 66.2608 72.1856 65.9573 72.3114C65.6538 72.4372 65.3285 72.502 65 72.502C64.6715 72.502 64.3461 72.4372 64.0426 72.3114C63.7391 72.1856 63.4634 72.0012 63.2312 71.7688L55.7312 64.2688C55.2621 63.7997 54.9986 63.1634 54.9986 62.5C54.9986 61.8366 55.2621 61.2003 55.7312 60.7312C56.2003 60.2621 56.8366 59.9986 57.5 59.9986C58.1634 59.9986 58.7996 60.2621 59.2687 60.7312L65 66.4656L78.2312 53.2312C78.4634 52.9988 78.7391 52.8144 79.0426 52.6886C79.3461 52.5628 79.6715 52.498 80 52.498C80.3285 52.498 80.6538 52.5628 80.9573 52.6886C81.2608 52.8144 81.5366 52.9988 81.7687 53.2312Z" fill="black"/>
</g>
<defs>
<clipPath id="clip0_142_63">
<rect width="80" height="80" fill="white" transform="translate(20 20)"/>
</clipPath>
</defs>
</svg>
