<svg width="60" height="62" viewBox="0 0 60 62" fill="none" xmlns="http://www.w3.org/2000/svg">
<rect width="60" height="62" rx="8" fill="#F4F4F4"/>
<path d="M43 36H42V24C42 23.2044 41.6839 22.4413 41.1213 21.8787C40.5587 21.3161 39.7956 21 39 21H21C20.2044 21 19.4413 21.3161 18.8787 21.8787C18.3161 22.4413 18 23.2044 18 24V36H17C16.7348 36 16.4804 36.1054 16.2929 36.2929C16.1054 36.4804 16 36.7348 16 37V39C16 39.7956 16.3161 40.5587 16.8787 41.1213C17.4413 41.6839 18.2044 42 19 42H41C41.7956 42 42.5587 41.6839 43.1213 41.1213C43.6839 40.5587 44 39.7956 44 39V37C44 36.7348 43.8946 36.4804 43.7071 36.2929C43.5196 36.1054 43.2652 36 43 36ZM20 24C20 23.7348 20.1054 23.4804 20.2929 23.2929C20.4804 23.1054 20.7348 23 21 23H39C39.2652 23 39.5196 23.1054 39.7071 23.2929C39.8946 23.4804 40 23.7348 40 24V36H20V24ZM42 39C42 39.2652 41.8946 39.5196 41.7071 39.7071C41.5196 39.8946 41.2652 40 41 40H19C18.7348 40 18.4804 39.8946 18.2929 39.7071C18.1054 39.5196 18 39.2652 18 39V38H42V39ZM33 26C33 26.2652 32.8946 26.5196 32.7071 26.7071C32.5196 26.8946 32.2652 27 32 27H28C27.7348 27 27.4804 26.8946 27.2929 26.7071C27.1054 26.5196 27 26.2652 27 26C27 25.7348 27.1054 25.4804 27.2929 25.2929C27.4804 25.1054 27.7348 25 28 25H32C32.2652 25 32.5196 25.1054 32.7071 25.2929C32.8946 25.4804 33 25.7348 33 26Z" fill="black"/>
</svg>
