<svg width="60" height="62" viewBox="0 0 60 62" fill="none" xmlns="http://www.w3.org/2000/svg">
<rect width="60" height="62" rx="8" fill="#F4F4F4"/>
<path d="M32 32.5001C32 32.7967 31.9121 33.0868 31.7472 33.3334C31.5824 33.5801 31.3481 33.7724 31.0741 33.8859C30.8 33.9994 30.4984 34.0291 30.2074 33.9713C29.9164 33.9134 29.6492 33.7705 29.4394 33.5607C29.2296 33.351 29.0867 33.0837 29.0289 32.7927C28.971 32.5017 29.0007 32.2001 29.1142 31.9261C29.2277 31.652 29.42 31.4177 29.6667 31.2529C29.9134 31.088 30.2034 31.0001 30.5 31.0001C30.8979 31.0001 31.2794 31.1581 31.5607 31.4394C31.842 31.7207 32 32.1023 32 32.5001ZM37.5 31.0001C37.2034 31.0001 36.9134 31.088 36.6667 31.2529C36.42 31.4177 36.2277 31.652 36.1142 31.9261C36.0007 32.2001 35.971 32.5017 36.0289 32.7927C36.0867 33.0837 36.2296 33.351 36.4394 33.5607C36.6492 33.7705 36.9164 33.9134 37.2074 33.9713C37.4984 34.0291 37.8 33.9994 38.0741 33.8859C38.3481 33.7724 38.5824 33.5801 38.7472 33.3334C38.9121 33.0868 39 32.7967 39 32.5001C39 32.1023 38.842 31.7207 38.5607 31.4394C38.2794 31.1581 37.8979 31.0001 37.5 31.0001ZM43.9175 41.4338C44.0191 41.7786 44.0259 42.1445 43.9372 42.4928C43.8485 42.8412 43.6675 43.1592 43.4133 43.4133C43.1591 43.6675 42.8411 43.8485 42.4928 43.9372C42.1444 44.026 41.7786 44.0192 41.4338 43.9176L38.345 43.0088C37.1274 43.5961 35.8033 43.9304 34.4528 43.9915C33.1023 44.0525 31.7534 43.8392 30.4877 43.3642C29.222 42.8893 28.0657 42.1626 27.0888 41.2282C26.1118 40.2937 25.3345 39.1709 24.8038 37.9276C23.7103 37.799 22.6461 37.4885 21.655 37.0088L18.5663 37.9176C18.2215 38.0192 17.8556 38.026 17.5073 37.9372C17.1589 37.8485 16.8409 37.6675 16.5868 37.4133C16.3326 37.1592 16.1516 36.8412 16.0629 36.4928C15.9741 36.1445 15.9809 35.7786 16.0825 35.4338L16.9913 32.3451C16.4213 31.1459 16.0959 29.8452 16.034 28.5189C15.9721 27.1927 16.1749 25.8673 16.6306 24.6203C17.0863 23.3732 17.7858 22.2293 18.6882 21.2555C19.5907 20.2816 20.678 19.4972 21.8869 18.948C23.0957 18.3988 24.4018 18.0959 25.7289 18.0568C27.0561 18.0178 28.3777 18.2434 29.6168 18.7205C30.8558 19.1977 31.9874 19.9168 32.9456 20.8359C33.9037 21.755 34.6693 22.8557 35.1975 24.0738C36.777 24.2642 38.2883 24.8286 39.6059 25.7203C40.9235 26.612 42.0093 27.8052 42.7731 29.2007C43.537 30.5963 43.9568 32.154 43.9978 33.7444C44.0388 35.3348 43.6997 36.912 43.0088 38.3451L43.9175 41.4338ZM24.1625 35.7876C23.9152 34.4329 23.9505 33.0417 24.2663 31.7014C24.5821 30.361 25.1715 29.1003 25.9976 27.9986C26.8237 26.8968 27.8686 25.9776 29.0667 25.2988C30.2648 24.62 31.5903 24.1961 32.96 24.0538C32.4531 23.1335 31.7699 22.322 30.9494 21.6658C30.1289 21.0095 29.1872 20.5212 28.178 20.2289C26.1398 19.6385 23.9506 19.882 22.0919 20.9057C20.2332 21.9294 18.8574 23.6496 18.267 25.6878C17.6766 27.7259 17.92 29.9152 18.9438 31.7738C19.0669 32.004 19.0952 32.2731 19.0225 32.5238L18 36.0001L21.47 34.9788C21.7207 34.9062 21.9899 34.9345 22.22 35.0576C22.8328 35.3849 23.4859 35.6304 24.1625 35.7876ZM41.0563 37.7738C41.9609 36.0821 42.2274 34.1215 41.8073 32.2497C41.3872 30.3778 40.3084 28.7192 38.7676 27.5763C37.2268 26.4333 35.3265 25.8821 33.4133 26.0232C31.5 26.1643 29.7012 26.9881 28.3446 28.3447C26.9881 29.7012 26.1642 31.5001 26.0232 33.4133C25.8821 35.3266 26.4333 37.2268 27.5762 38.7676C28.7192 40.3085 30.3777 41.3873 32.2496 41.8074C34.1215 42.2275 36.082 41.9609 37.7738 41.0563C38.0039 40.9332 38.2731 40.9049 38.5238 40.9776L42 42.0001L40.9788 38.5301C40.9041 38.2776 40.9319 38.0059 41.0563 37.7738Z" fill="black"/>
</svg>
