<svg width="80" height="80" viewBox="0 0 80 80" fill="none" xmlns="http://www.w3.org/2000/svg">
<path d="M30 50V62.5C30 63.8261 29.4732 65.0979 28.5355 66.0355C27.5979 66.9732 26.3261 67.5 25 67.5H20C18.6739 67.5 17.4021 66.9732 16.4645 66.0355C15.5268 65.0979 15 63.8261 15 62.5V45H25C26.3261 45 27.5979 45.5268 28.5355 46.4645C29.4732 47.4021 30 48.6739 30 50ZM65 45C63.6739 45 62.4021 45.5268 61.4645 46.4645C60.5268 47.4021 60 48.6739 60 50V62.5C60 63.8261 60.5268 65.0979 61.4645 66.0355C62.4021 66.9732 63.6739 67.5 65 67.5H75V45H65Z" fill="#2A8E41" fill-opacity="0.5"/>
<path d="M63.0906 17.0813C58.5503 12.5144 52.7564 9.39813 46.4432 8.12735C40.13 6.85657 33.5816 7.48851 27.6279 9.94308C21.6742 12.3977 16.5832 16.5644 12.9999 21.9152C9.41669 27.2661 7.50252 33.5603 7.5 40.0001V57.5001C7.5 59.4892 8.29018 61.3969 9.6967 62.8034C11.1032 64.2099 13.0109 65.0001 15 65.0001H20C21.9891 65.0001 23.8968 64.2099 25.3033 62.8034C26.7098 61.3969 27.5 59.4892 27.5 57.5001V45.0001C27.5 43.011 26.7098 41.1033 25.3033 39.6968C23.8968 38.2903 21.9891 37.5001 20 37.5001H12.6125C13.0946 32.2874 15.0526 27.3201 18.257 23.1804C21.4613 19.0407 25.7792 15.9002 30.7047 14.1268C35.6301 12.3535 40.959 12.0209 46.0668 13.1679C51.1745 14.315 55.8495 16.8942 59.5437 20.6032C64.059 25.1416 66.8364 31.1221 67.3906 37.5001H60C58.0109 37.5001 56.1032 38.2903 54.6967 39.6968C53.2902 41.1033 52.5 43.011 52.5 45.0001V57.5001C52.5 59.4892 53.2902 61.3969 54.6967 62.8034C56.1032 64.2099 58.0109 65.0001 60 65.0001H67.5C67.5 66.9892 66.7098 68.8969 65.3033 70.3034C63.8968 71.7099 61.9891 72.5001 60 72.5001H42.5C41.837 72.5001 41.2011 72.7635 40.7322 73.2323C40.2634 73.7012 40 74.337 40 75.0001C40 75.6631 40.2634 76.299 40.7322 76.7679C41.2011 77.2367 41.837 77.5001 42.5 77.5001H60C63.3152 77.5001 66.4946 76.1831 68.8388 73.8389C71.183 71.4947 72.5 68.3153 72.5 65.0001V40.0001C72.5163 35.7488 71.6935 31.536 70.0789 27.6032C68.4643 23.6704 66.0895 20.0948 63.0906 17.0813ZM20 42.5001C20.663 42.5001 21.2989 42.7635 21.7678 43.2323C22.2366 43.7012 22.5 44.337 22.5 45.0001V57.5001C22.5 58.1631 22.2366 58.799 21.7678 59.2679C21.2989 59.7367 20.663 60.0001 20 60.0001H15C14.337 60.0001 13.7011 59.7367 13.2322 59.2679C12.7634 58.799 12.5 58.1631 12.5 57.5001V42.5001H20ZM60 60.0001C59.337 60.0001 58.7011 59.7367 58.2322 59.2679C57.7634 58.799 57.5 58.1631 57.5 57.5001V45.0001C57.5 44.337 57.7634 43.7012 58.2322 43.2323C58.7011 42.7635 59.337 42.5001 60 42.5001H67.5V60.0001H60Z" fill="black"/>
</svg>
