<svg width="120" height="120" viewBox="0 0 120 120" fill="none" xmlns="http://www.w3.org/2000/svg">
<rect opacity="0.2" width="120" height="120" rx="16" fill="#32A74D"/>
<path d="M50 70V82.5C50 83.8261 49.4732 85.0979 48.5355 86.0355C47.5979 86.9732 46.3261 87.5 45 87.5H40C38.6739 87.5 37.4021 86.9732 36.4645 86.0355C35.5268 85.0979 35 83.8261 35 82.5V65H45C46.3261 65 47.5979 65.5268 48.5355 66.4645C49.4732 67.4021 50 68.6739 50 70ZM85 65C83.6739 65 82.4021 65.5268 81.4645 66.4645C80.5268 67.4021 80 68.6739 80 70V82.5C80 83.8261 80.5268 85.0979 81.4645 86.0355C82.4021 86.9732 83.6739 87.5 85 87.5H95V65H85Z" fill="#86BA97"/>
<path d="M83.0906 37.0813C78.5503 32.5144 72.7564 29.3981 66.4432 28.1273C60.13 26.8566 53.5816 27.4885 47.6279 29.9431C41.6742 32.3977 36.5832 36.5644 32.9999 41.9152C29.4167 47.2661 27.5025 53.5603 27.5 60.0001V77.5001C27.5 79.4892 28.2902 81.3969 29.6967 82.8034C31.1032 84.2099 33.0109 85.0001 35 85.0001H40C41.9891 85.0001 43.8968 84.2099 45.3033 82.8034C46.7098 81.3969 47.5 79.4892 47.5 77.5001V65.0001C47.5 63.011 46.7098 61.1033 45.3033 59.6968C43.8968 58.2903 41.9891 57.5001 40 57.5001H32.6125C33.0946 52.2874 35.0526 47.3201 38.257 43.1804C41.4613 39.0407 45.7792 35.9002 50.7047 34.1268C55.6301 32.3535 60.959 32.0209 66.0668 33.1679C71.1745 34.315 75.8495 36.8942 79.5437 40.6032C84.059 45.1416 86.8364 51.1221 87.3906 57.5001H80C78.0109 57.5001 76.1032 58.2903 74.6967 59.6968C73.2902 61.1033 72.5 63.011 72.5 65.0001V77.5001C72.5 79.4892 73.2902 81.3969 74.6967 82.8034C76.1032 84.2099 78.0109 85.0001 80 85.0001H87.5C87.5 86.9892 86.7098 88.8969 85.3033 90.3034C83.8968 91.7099 81.9891 92.5001 80 92.5001H62.5C61.837 92.5001 61.2011 92.7635 60.7322 93.2323C60.2634 93.7012 60 94.337 60 95.0001C60 95.6631 60.2634 96.299 60.7322 96.7679C61.2011 97.2367 61.837 97.5001 62.5 97.5001H80C83.3152 97.5001 86.4946 96.1831 88.8388 93.8389C91.183 91.4947 92.5 88.3153 92.5 85.0001V60.0001C92.5163 55.7488 91.6935 51.536 90.0789 47.6032C88.4643 43.6704 86.0895 40.0948 83.0906 37.0813ZM40 62.5001C40.663 62.5001 41.2989 62.7635 41.7678 63.2323C42.2366 63.7012 42.5 64.337 42.5 65.0001V77.5001C42.5 78.1631 42.2366 78.799 41.7678 79.2679C41.2989 79.7367 40.663 80.0001 40 80.0001H35C34.337 80.0001 33.7011 79.7367 33.2322 79.2679C32.7634 78.799 32.5 78.1631 32.5 77.5001V62.5001H40ZM80 80.0001C79.337 80.0001 78.7011 79.7367 78.2322 79.2679C77.7634 78.799 77.5 78.1631 77.5 77.5001V65.0001C77.5 64.337 77.7634 63.7012 78.2322 63.2323C78.7011 62.7635 79.337 62.5001 80 62.5001H87.5V80.0001H80Z" fill="black"/>
</svg>
