<svg width="80" height="80" viewBox="0 0 80 80" fill="none" xmlns="http://www.w3.org/2000/svg">
<path d="M71 21H21C19.6739 21 18.4021 21.5268 17.4645 22.4645C16.5268 23.4021 16 24.6739 16 26V61C16 62.3261 16.5268 63.5979 17.4645 64.5355C18.4021 65.4732 19.6739 66 21 66H71C72.3261 66 73.5979 65.4732 74.5355 64.5355C75.4732 63.5979 76 62.3261 76 61V26C76 24.6739 75.4732 23.4021 74.5355 22.4645C73.5979 21.5268 72.3261 21 71 21Z" fill="#2A8E41" fill-opacity="0.5"/>
<path d="M65 12.5H15C13.0109 12.5 11.1032 13.2902 9.6967 14.6967C8.29018 16.1032 7.5 18.0109 7.5 20V55C7.5 56.9891 8.29018 58.8968 9.6967 60.3033C11.1032 61.7098 13.0109 62.5 15 62.5H65C66.9891 62.5 68.8968 61.7098 70.3033 60.3033C71.7098 58.8968 72.5 56.9891 72.5 55V20C72.5 18.0109 71.7098 16.1032 70.3033 14.6967C68.8968 13.2902 66.9891 12.5 65 12.5ZM67.5 55C67.5 55.663 67.2366 56.2989 66.7678 56.7678C66.2989 57.2366 65.663 57.5 65 57.5H15C14.337 57.5 13.7011 57.2366 13.2322 56.7678C12.7634 56.2989 12.5 55.663 12.5 55V20C12.5 19.337 12.7634 18.7011 13.2322 18.2322C13.7011 17.7634 14.337 17.5 15 17.5H65C65.663 17.5 66.2989 17.7634 66.7678 18.2322C67.2366 18.7011 67.5 19.337 67.5 20V55ZM52.5 70C52.5 70.663 52.2366 71.2989 51.7678 71.7678C51.2989 72.2366 50.663 72.5 50 72.5H30C29.337 72.5 28.7011 72.2366 28.2322 71.7678C27.7634 71.2989 27.5 70.663 27.5 70C27.5 69.337 27.7634 68.7011 28.2322 68.2322C28.7011 67.7634 29.337 67.5 30 67.5H50C50.663 67.5 51.2989 67.7634 51.7678 68.2322C52.2366 68.7011 52.5 69.337 52.5 70Z" fill="black"/>
<path d="M31.7332 49.2701L21.7332 39.2701C21.5008 39.038 21.3164 38.7622 21.1906 38.4587C21.0648 38.1552 21 37.8299 21 37.5014C21 37.1729 21.0648 36.8475 21.1906 36.544C21.3164 36.2405 21.5008 35.9648 21.7332 35.7326L31.7332 25.7326C32.2023 25.2635 32.8386 25 33.502 25C34.1654 25 34.8016 25.2635 35.2707 25.7326C35.7398 26.2017 36.0034 26.838 36.0034 27.5014C36.0034 28.1648 35.7398 28.801 35.2707 29.2701L27.0363 37.5014L35.2707 45.7326C35.7398 46.2017 36.0034 46.838 36.0034 47.5014C36.0034 48.1648 35.7398 48.801 35.2707 49.2701C34.8016 49.7392 34.1654 50.0028 33.502 50.0028C32.8386 50.0028 32.2023 49.7392 31.7332 49.2701ZM44.2332 49.2701C44.4654 49.5026 44.7411 49.687 45.0446 49.8128C45.3481 49.9386 45.6734 50.0034 46.002 50.0034C46.3305 50.0034 46.6558 49.9386 46.9593 49.8128C47.2628 49.687 47.5385 49.5026 47.7707 49.2701L57.7707 39.2701C58.0032 39.038 58.1876 38.7622 58.3134 38.4587C58.4392 38.1552 58.5039 37.8299 58.5039 37.5014C58.5039 37.1729 58.4392 36.8475 58.3134 36.544C58.1876 36.2405 58.0032 35.9648 57.7707 35.7326L47.7707 25.7326C47.3016 25.2635 46.6654 25 46.002 25C45.3386 25 44.7023 25.2635 44.2332 25.7326C43.7641 26.2017 43.5006 26.838 43.5006 27.5014C43.5006 28.1648 43.7641 28.801 44.2332 29.2701L52.4676 37.5014L44.2332 45.7326C44.0008 45.9648 43.8164 46.2405 43.6906 46.544C43.5648 46.8475 43.5 47.1729 43.5 47.5014C43.5 47.8299 43.5648 48.1552 43.6906 48.4587C43.8164 48.7622 44.0008 49.038 44.2332 49.2701Z" fill="black"/>
</svg>
