<svg width="120" height="120" viewBox="0 0 120 120" fill="none" xmlns="http://www.w3.org/2000/svg">
<rect opacity="0.2" width="120" height="120" rx="16" fill="#32A74D"/>
<path d="M96 46L92.2 66.8938C91.9907 68.0458 91.3837 69.0879 90.4848 69.8383C89.5859 70.5887 88.4522 70.9998 87.2813 71H48.0469L43.5 46H96Z" fill="#86BA97"/>
<path d="M91.9187 38.3969C91.6841 38.116 91.3906 37.8902 91.059 37.7352C90.7275 37.5802 90.366 37.4999 90 37.5H39.5875L37.6875 27.0531C37.5828 26.4771 37.2793 25.956 36.8299 25.5808C36.3805 25.2056 35.8136 25.0001 35.2281 25H27.5C26.837 25 26.2011 25.2634 25.7322 25.7322C25.2634 26.2011 25 26.837 25 27.5C25 28.163 25.2634 28.7989 25.7322 29.2678C26.2011 29.7366 26.837 30 27.5 30H33.125L41.1125 73.8406C41.3478 75.1408 41.9224 76.3558 42.7781 77.3625C41.597 78.4657 40.7445 79.8744 40.3152 81.4325C39.8858 82.9906 39.8964 84.6372 40.3457 86.1896C40.795 87.7421 41.6655 89.1398 42.8607 90.2277C44.0559 91.3156 45.529 92.0513 47.1167 92.3531C48.7045 92.6549 50.3448 92.5111 51.8558 91.9376C53.3668 91.3641 54.6894 90.3833 55.677 89.104C56.6646 87.8247 57.2786 86.2968 57.4509 84.6899C57.6232 83.0829 57.3471 81.4596 56.6531 80H70.8469C70.2876 81.1709 69.9982 82.4524 70 83.75C70 85.4806 70.5132 87.1723 71.4746 88.6112C72.4361 90.0502 73.8027 91.1717 75.4015 91.8339C77.0004 92.4962 78.7597 92.6695 80.457 92.3319C82.1544 91.9943 83.7135 91.1609 84.9372 89.9372C86.1609 88.7135 86.9942 87.1544 87.3319 85.457C87.6695 83.7597 87.4962 82.0004 86.8339 80.4015C86.1717 78.8027 85.0502 77.4361 83.6112 76.4746C82.1723 75.5132 80.4806 75 78.75 75H48.4906C47.9052 74.9999 47.3383 74.7944 46.8888 74.4192C46.4394 74.044 46.1359 73.5229 46.0312 72.9469L45.0406 67.5H81.2906C83.047 67.4997 84.7476 66.8831 86.096 65.7575C87.4443 64.6319 88.3548 63.0687 88.6687 61.3406L92.4687 40.4469C92.5331 40.0857 92.5171 39.7149 92.4221 39.3606C92.327 39.0063 92.1552 38.6773 91.9187 38.3969ZM52.5 83.75C52.5 84.4917 52.2801 85.2167 51.868 85.8334C51.456 86.4501 50.8703 86.9307 50.1851 87.2145C49.4998 87.4984 48.7458 87.5726 48.0184 87.4279C47.291 87.2833 46.6228 86.9261 46.0983 86.4016C45.5739 85.8772 45.2167 85.209 45.0721 84.4816C44.9274 83.7542 45.0016 83.0002 45.2854 82.3149C45.5693 81.6297 46.0499 81.044 46.6666 80.632C47.2833 80.2199 48.0083 80 48.75 80C49.7446 80 50.6984 80.3951 51.4016 81.0984C52.1049 81.8016 52.5 82.7554 52.5 83.75ZM82.5 83.75C82.5 84.4917 82.2801 85.2167 81.868 85.8334C81.4559 86.4501 80.8703 86.9307 80.1851 87.2145C79.4998 87.4984 78.7458 87.5726 78.0184 87.4279C77.291 87.2833 76.6228 86.9261 76.0983 86.4016C75.5739 85.8772 75.2167 85.209 75.0721 84.4816C74.9274 83.7542 75.0016 83.0002 75.2854 82.3149C75.5693 81.6297 76.0499 81.044 76.6666 80.632C77.2833 80.2199 78.0083 80 78.75 80C79.7446 80 80.6984 80.3951 81.4016 81.0984C82.1049 81.8016 82.5 82.7554 82.5 83.75ZM83.75 60.4469C83.6451 61.0245 83.3402 61.5468 82.8888 61.9222C82.4374 62.2976 81.8683 62.5021 81.2812 62.5H44.1312L40.4969 42.5H87.0031L83.75 60.4469Z" fill="black"/>
</svg>
