<svg width="80" height="80" viewBox="0 0 80 80" fill="none" xmlns="http://www.w3.org/2000/svg">
<path d="M25 40C25 44.9445 26.4662 49.778 29.2133 53.8893C31.9603 58.0005 35.8647 61.2048 40.4329 63.097C45.0011 64.9892 50.0277 65.4843 54.8772 64.5196C59.7268 63.555 64.1813 61.174 67.6777 57.6777C71.174 54.1814 73.555 49.7268 74.5196 44.8773C75.4843 40.0277 74.9892 35.0011 73.097 30.4329C71.2048 25.8648 68.0005 21.9603 63.8892 19.2133C59.778 16.4662 54.9445 15 50 15C46.7169 15 43.466 15.6466 40.4329 16.903C37.3998 18.1594 34.6438 20.0009 32.3223 22.3223C30.0009 24.6438 28.1594 27.3998 26.903 30.4329C25.6466 33.4661 25 36.717 25 40Z" fill="#2A8E41" fill-opacity="0.5"/>
<path d="M8.23125 68.2312L23.875 52.5875C19.3319 47.1388 17.0644 40.1484 17.5442 33.0704C18.0239 25.9924 21.214 19.3719 26.4508 14.5862C31.6876 9.8004 38.5679 7.21786 45.6604 7.3758C52.7528 7.53374 59.5113 10.42 64.5299 15.4341C69.5485 20.4483 72.4407 27.2042 72.6049 34.2965C72.7691 41.3888 70.1927 48.2714 65.4115 53.5124C60.6304 58.7535 54.0127 61.9494 46.9352 62.4354C39.8576 62.9215 32.8652 60.6601 27.4125 56.1218L11.7688 71.7687C11.5365 72.001 11.2607 72.1852 10.9572 72.311C10.6538 72.4367 10.3285 72.5014 10 72.5014C9.67152 72.5014 9.34624 72.4367 9.04276 72.311C8.73928 72.1852 8.46353 72.001 8.23125 71.7687C7.99898 71.5364 7.81473 71.2607 7.68903 70.9572C7.56332 70.6537 7.49861 70.3285 7.49861 70C7.49861 69.6715 7.56332 69.3462 7.68903 69.0427C7.81473 68.7393 7.99898 68.4635 8.23125 68.2312ZM67.5 35C67.5 30.5499 66.1804 26.1997 63.7081 22.4996C61.2357 18.7995 57.7217 15.9157 53.6104 14.2127C49.499 12.5097 44.975 12.0641 40.6105 12.9323C36.2459 13.8005 32.2368 15.9434 29.0901 19.0901C25.9434 22.2368 23.8005 26.2459 22.9323 30.6104C22.0642 34.975 22.5097 39.499 24.2127 43.6104C25.9157 47.7217 28.7996 51.2357 32.4997 53.708C36.1998 56.1804 40.5499 57.5 45 57.5C50.9653 57.4934 56.6845 55.1207 60.9026 50.9026C65.1207 46.6844 67.4934 40.9653 67.5 35ZM32.5 35C32.5 35.663 32.7634 36.2989 33.2322 36.7677C33.7011 37.2366 34.337 37.5 35 37.5H42.5V45C42.5 45.663 42.7634 46.2989 43.2322 46.7677C43.7011 47.2366 44.337 47.5 45 47.5C45.663 47.5 46.2989 47.2366 46.7678 46.7677C47.2366 46.2989 47.5 45.663 47.5 45V37.5H55C55.663 37.5 56.2989 37.2366 56.7678 36.7677C57.2366 36.2989 57.5 35.663 57.5 35C57.5 34.3369 57.2366 33.701 56.7678 33.2322C56.2989 32.7634 55.663 32.5 55 32.5H47.5V25C47.5 24.3369 47.2366 23.701 46.7678 23.2322C46.2989 22.7634 45.663 22.5 45 22.5C44.337 22.5 43.7011 22.7634 43.2322 23.2322C42.7634 23.701 42.5 24.3369 42.5 25V32.5H35C34.337 32.5 33.7011 32.7634 33.2322 33.2322C32.7634 33.701 32.5 34.3369 32.5 35Z" fill="black"/>
</svg>
