<svg width="80" height="80" viewBox="0 0 80 80" fill="none" xmlns="http://www.w3.org/2000/svg">
<path d="M22.5 40V55C22.5 60.9674 24.8705 66.6903 29.0901 70.9099C33.3097 75.1295 39.0326 77.5 45 77.5C50.9674 77.5 56.6903 75.1295 60.9099 70.9099C65.1295 66.6903 67.5 60.9674 67.5 55V40H22.5Z" fill="#2A8E41" fill-opacity="0.5"/>
<path d="M15 47.5H10C9.33696 47.5 8.70107 47.2366 8.23223 46.7678C7.76339 46.2989 7.5 45.663 7.5 45C7.5 44.3369 7.76339 43.7011 8.23223 43.2322C8.70107 42.7634 9.33696 42.5 10 42.5H15V37.5H10C9.33696 37.5 8.70107 37.2366 8.23223 36.7678C7.76339 36.2989 7.5 35.663 7.5 35C7.5 34.3369 7.76339 33.7011 8.23223 33.2322C8.70107 32.7634 9.33696 32.5 10 32.5H15.125C15.6772 27.013 18.0335 21.864 21.825 17.8594L15.7312 11.7687C15.2621 11.2996 14.9986 10.6634 14.9986 9.99999C14.9986 9.33658 15.2621 8.70034 15.7312 8.23124C16.2004 7.76213 16.8366 7.4986 17.5 7.4986C18.1634 7.4986 18.7996 7.76213 19.2688 8.23124L25.6094 14.575C29.8176 11.5982 34.8454 9.99964 40 9.99964C45.1546 9.99964 50.1824 11.5982 54.3906 14.575L60.7312 8.23124C61.2004 7.76213 61.8366 7.4986 62.5 7.4986C63.1634 7.4986 63.7996 7.76213 64.2688 8.23124C64.7379 8.70034 65.0014 9.33658 65.0014 9.99999C65.0014 10.6634 64.7379 11.2996 64.2688 11.7687L58.175 17.8594C61.9665 21.864 64.3228 27.013 64.875 32.5H70C70.663 32.5 71.2989 32.7634 71.7678 33.2322C72.2366 33.7011 72.5 34.3369 72.5 35C72.5 35.663 72.2366 36.2989 71.7678 36.7678C71.2989 37.2366 70.663 37.5 70 37.5H65V42.5H70C70.663 42.5 71.2989 42.7634 71.7678 43.2322C72.2366 43.7011 72.5 44.3369 72.5 45C72.5 45.663 72.2366 46.2989 71.7678 46.7678C71.2989 47.2366 70.663 47.5 70 47.5H65V50C65 50.8437 64.9562 51.6781 64.875 52.5H70C70.663 52.5 71.2989 52.7634 71.7678 53.2322C72.2366 53.7011 72.5 54.3369 72.5 55C72.5 55.663 72.2366 56.2989 71.7678 56.7678C71.2989 57.2366 70.663 57.5 70 57.5H63.85C62.2548 62.576 59.0817 67.0107 54.7922 70.159C50.5028 73.3072 45.3208 75.0048 40 75.0048C34.6792 75.0048 29.4972 73.3072 25.2078 70.159C20.9183 67.0107 17.7452 62.576 16.15 57.5H10C9.33696 57.5 8.70107 57.2366 8.23223 56.7678C7.76339 56.2989 7.5 55.663 7.5 55C7.5 54.3369 7.76339 53.7011 8.23223 53.2322C8.70107 52.7634 9.33696 52.5 10 52.5H15.125C15.0437 51.6781 15 50.8437 15 50V47.5ZM40 15C35.1309 15.006 30.4309 16.7862 26.7796 20.0073C23.1282 23.2284 20.7758 27.6697 20.1625 32.5H59.85C59.2364 27.6676 56.8822 23.2246 53.2282 20.0032C49.5743 16.7818 44.8712 15.003 40 15ZM37.5 69.8375V45C37.5 44.3369 37.7634 43.7011 38.2322 43.2322C38.7011 42.7634 39.337 42.5 40 42.5C40.663 42.5 41.2989 42.7634 41.7678 43.2322C42.2366 43.7011 42.5 44.3369 42.5 45V69.8375C47.3303 69.2242 51.7716 66.8718 54.9927 63.2204C58.2138 59.5691 59.9939 54.8691 60 50V37.5H20V50C20.0061 54.8691 21.7862 59.5691 25.0073 63.2204C28.2284 66.8718 32.6697 69.2242 37.5 69.8375Z" fill="black"/>
</svg>
