<svg width="120" height="120" viewBox="0 0 120 120" fill="none" xmlns="http://www.w3.org/2000/svg">
<rect opacity="0.2" width="120" height="120" rx="16" fill="#32A74D"/>
<path d="M93.5 48.5V81H38.5V48.5C38.5 47.1739 39.0268 45.9021 39.9645 44.9645C40.9021 44.0268 42.1739 43.5 43.5 43.5H88.5C89.8261 43.5 91.0979 44.0268 92.0355 44.9645C92.9732 45.9021 93.5 47.1739 93.5 48.5Z" fill="#2A8E41" fill-opacity="0.5"/>
<path d="M92.5 72.5H90V42.5C90 40.5109 89.2098 38.6032 87.8033 37.1967C86.3968 35.7902 84.4891 35 82.5 35H37.5C35.5109 35 33.6032 35.7902 32.1967 37.1967C30.7902 38.6032 30 40.5109 30 42.5V72.5H27.5C26.837 72.5 26.2011 72.7634 25.7322 73.2322C25.2634 73.7011 25 74.337 25 75V80C25 81.9891 25.7902 83.8968 27.1967 85.3033C28.6032 86.7098 30.5109 87.5 32.5 87.5H87.5C89.4891 87.5 91.3968 86.7098 92.8033 85.3033C94.2098 83.8968 95 81.9891 95 80V75C95 74.337 94.7366 73.7011 94.2678 73.2322C93.7989 72.7634 93.163 72.5 92.5 72.5ZM35 42.5C35 41.837 35.2634 41.2011 35.7322 40.7322C36.2011 40.2634 36.837 40 37.5 40H82.5C83.163 40 83.7989 40.2634 84.2678 40.7322C84.7366 41.2011 85 41.837 85 42.5V72.5H35V42.5ZM90 80C90 80.663 89.7366 81.2989 89.2678 81.7678C88.7989 82.2366 88.163 82.5 87.5 82.5H32.5C31.837 82.5 31.2011 82.2366 30.7322 81.7678C30.2634 81.2989 30 80.663 30 80V77.5H90V80ZM67.5 47.5C67.5 48.163 67.2366 48.7989 66.7678 49.2678C66.2989 49.7366 65.663 50 65 50H55C54.337 50 53.7011 49.7366 53.2322 49.2678C52.7634 48.7989 52.5 48.163 52.5 47.5C52.5 46.837 52.7634 46.2011 53.2322 45.7322C53.7011 45.2634 54.337 45 55 45H65C65.663 45 66.2989 45.2634 66.7678 45.7322C67.2366 46.2011 67.5 46.837 67.5 47.5Z" fill="black"/>
</svg>
