<svg width="80" height="80" viewBox="0 0 80 80" fill="none" xmlns="http://www.w3.org/2000/svg">
<path d="M67.5 20V39.7188C67.5 52.125 57.5781 62.4062 45.1719 62.5C42.2027 62.5227 39.2584 61.9574 36.5087 60.8369C33.759 59.7163 31.2583 58.0626 29.1507 55.971C27.0432 53.8794 25.3705 51.3913 24.229 48.6503C23.0875 45.9092 22.4999 42.9693 22.5 40V20H67.5Z" fill="#2A8E41" fill-opacity="0.5"/>
<path d="M72.5 20H65V15C65 14.337 64.7366 13.7011 64.2678 13.2322C63.7989 12.7634 63.163 12.5 62.5 12.5H17.5C16.837 12.5 16.2011 12.7634 15.7322 13.2322C15.2634 13.7011 15 14.337 15 15V20H7.5C6.17392 20 4.90215 20.5268 3.96447 21.4645C3.02678 22.4021 2.5 23.6739 2.5 25V30C2.5 33.3152 3.81696 36.4946 6.16117 38.8388C7.3219 39.9996 8.69989 40.9203 10.2165 41.5485C11.733 42.1767 13.3585 42.5 15 42.5H16.1406C17.6133 47.1669 20.4211 51.3 24.2172 54.3885C28.0133 57.477 32.6311 59.3855 37.5 59.8781V67.5H30C29.337 67.5 28.7011 67.7634 28.2322 68.2322C27.7634 68.7011 27.5 69.337 27.5 70C27.5 70.663 27.7634 71.2989 28.2322 71.7678C28.7011 72.2366 29.337 72.5 30 72.5H50C50.663 72.5 51.2989 72.2366 51.7678 71.7678C52.2366 71.2989 52.5 70.663 52.5 70C52.5 69.337 52.2366 68.7011 51.7678 68.2322C51.2989 67.7634 50.663 67.5 50 67.5H42.5V59.8688C52.4813 58.8594 60.7625 51.8563 63.775 42.5H65C68.3152 42.5 71.4946 41.183 73.8388 38.8388C76.183 36.4946 77.5 33.3152 77.5 30V25C77.5 23.6739 76.9732 22.4021 76.0355 21.4645C75.0979 20.5268 73.8261 20 72.5 20ZM15 37.5C13.0109 37.5 11.1032 36.7098 9.6967 35.3033C8.29018 33.8968 7.5 31.9891 7.5 30V25H15V35C15 35.8333 15.0406 36.6667 15.1219 37.5H15ZM60 34.7188C60 45.8187 50.9375 54.9188 40 55C34.6957 55 29.6086 52.8929 25.8579 49.1421C22.1071 45.3914 20 40.3043 20 35V17.5H60V34.7188ZM72.5 30C72.5 31.9891 71.7098 33.8968 70.3033 35.3033C68.8968 36.7098 66.9891 37.5 65 37.5H64.8438C64.9463 36.5764 64.9985 35.648 65 34.7188V25H72.5V30Z" fill="black"/>
</svg>
