<svg width="60" height="60" viewBox="0 0 60 60" fill="none" xmlns="http://www.w3.org/2000/svg">
<rect width="60" height="60" rx="7.5" fill="white"/>
<g clip-path="url(#clip0_441_91)">
<path d="M17.8619 31.0633C17.8619 31.7494 17.9359 32.3058 18.0654 32.7137C18.2134 33.1217 18.3985 33.5667 18.6575 34.0489C18.75 34.1972 18.7871 34.3456 18.7871 34.4754C18.7871 34.6608 18.676 34.8463 18.4355 35.0317L17.2698 35.8106C17.1033 35.9218 16.9367 35.9775 16.7887 35.9775C16.6037 35.9775 16.4186 35.8847 16.2336 35.7178C15.9746 35.4397 15.7525 35.143 15.5675 34.8463C15.3824 34.531 15.1974 34.1787 14.9939 33.7522C13.5506 35.4582 11.7373 36.3112 9.55391 36.3112C7.99963 36.3112 6.75991 35.8662 5.85325 34.9761C4.94659 34.086 4.48401 32.8992 4.48401 31.4156C4.48401 29.8394 5.03911 28.5599 6.16781 27.5956C7.29651 26.6313 8.79527 26.1492 10.7011 26.1492C11.3302 26.1492 11.9778 26.2048 12.6625 26.2975C13.3471 26.3902 14.0502 26.5386 14.7903 26.7055V25.3518C14.7903 23.9424 14.4943 22.9596 13.9207 22.3847C13.3286 21.8099 12.3294 21.5317 10.9046 21.5317C10.257 21.5317 9.59092 21.6059 8.90629 21.7728C8.22167 21.9397 7.55555 22.1437 6.90794 22.4033C6.61189 22.5331 6.38985 22.6073 6.26032 22.6443C6.1308 22.6814 6.03829 22.7 5.96427 22.7C5.70523 22.7 5.5757 22.5145 5.5757 22.1251V21.2165C5.5757 20.9198 5.61271 20.6972 5.70523 20.5674C5.79774 20.4376 5.96427 20.3078 6.22332 20.178C6.87093 19.8442 7.64807 19.5661 8.55473 19.3435C9.46139 19.1025 10.4236 18.9912 11.4412 18.9912C13.6431 18.9912 15.2529 19.4919 16.2891 20.4932C17.3068 21.4946 17.8249 23.0152 17.8249 25.0551V31.0633H17.8619ZM10.3496 33.882C10.9602 33.882 11.5893 33.7707 12.2554 33.5482C12.9215 33.3257 13.5136 32.9177 14.0132 32.3614C14.3093 32.009 14.5313 31.6196 14.6423 31.1746C14.7533 30.7295 14.8273 30.1917 14.8273 29.5612V28.7824C14.2908 28.6526 13.7171 28.5413 13.125 28.4672C12.5329 28.393 11.9593 28.3559 11.3857 28.3559C10.146 28.3559 9.23935 28.597 8.62875 29.0976C8.01814 29.5983 7.72208 30.303 7.72208 31.2302C7.72208 32.1018 7.94412 32.7508 8.40671 33.1959C8.85078 33.6595 9.4984 33.882 10.3496 33.882ZM25.2077 35.8847C24.8746 35.8847 24.6526 35.8291 24.5046 35.6993C24.3565 35.588 24.227 35.3284 24.116 34.9761L19.7677 20.6416C19.6567 20.2707 19.6012 20.0297 19.6012 19.8998C19.6012 19.6031 19.7492 19.4362 20.0453 19.4362H21.8586C22.2102 19.4362 22.4507 19.4919 22.5802 19.6217C22.7283 19.7329 22.8393 19.9926 22.9503 20.3449L26.0588 32.621L28.9454 20.3449C29.0379 19.974 29.1489 19.7329 29.2969 19.6217C29.4449 19.5104 29.704 19.4362 30.037 19.4362H31.5173C31.8689 19.4362 32.1094 19.4919 32.2574 19.6217C32.4055 19.7329 32.535 19.9926 32.609 20.3449L35.5325 32.7693L38.7336 20.3449C38.8446 19.974 38.9741 19.7329 39.1037 19.6217C39.2517 19.5104 39.4922 19.4362 39.8253 19.4362H41.5461C41.8421 19.4362 42.0087 19.5846 42.0087 19.8998C42.0087 19.9926 41.9902 20.0853 41.9717 20.1965C41.9532 20.3078 41.9162 20.4562 41.8421 20.6601L37.3829 34.9946C37.2718 35.3655 37.1423 35.6066 36.9943 35.7178C36.8463 35.8291 36.6057 35.9033 36.2912 35.9033H34.6999C34.3483 35.9033 34.1078 35.8476 33.9597 35.7178C33.8117 35.588 33.6822 35.347 33.6082 34.9761L30.7402 23.0152L27.8907 34.9575C27.7982 35.3284 27.6871 35.5695 27.5391 35.6993C27.3911 35.8291 27.132 35.8847 26.799 35.8847H25.2077ZM48.9844 36.3854C48.0222 36.3854 47.0601 36.2742 46.1349 36.0516C45.2097 35.8291 44.4881 35.588 44.007 35.3099C43.711 35.143 43.5074 34.9575 43.4334 34.7906C43.3594 34.6237 43.3224 34.4383 43.3224 34.2714V33.3257C43.3224 32.9362 43.4704 32.7508 43.748 32.7508C43.859 32.7508 43.97 32.7693 44.081 32.8064C44.1921 32.8435 44.3586 32.9177 44.5436 32.9919C45.1727 33.27 45.8574 33.4926 46.579 33.6409C47.3191 33.7893 48.0407 33.8634 48.7809 33.8634C49.9466 33.8634 50.8533 33.6595 51.4824 33.2515C52.1115 32.8435 52.4445 32.2501 52.4445 31.4898C52.4445 30.9706 52.278 30.5441 51.9449 30.1917C51.6119 29.8394 50.9828 29.5242 50.0761 29.2275L47.3931 28.393C46.0424 27.9665 45.0432 27.336 44.4326 26.5015C43.822 25.6856 43.5074 24.7769 43.5074 23.8126C43.5074 23.0338 43.674 22.3476 44.007 21.7542C44.3401 21.1608 44.7842 20.6416 45.3393 20.2336C45.8944 19.8071 46.5235 19.4919 47.2636 19.2693C48.0037 19.0468 48.7809 18.9541 49.595 18.9541C50.0021 18.9541 50.4277 18.9726 50.8347 19.0283C51.2603 19.0839 51.6489 19.1581 52.0375 19.2323C52.4075 19.325 52.7591 19.4177 53.0921 19.529C53.4252 19.6402 53.6843 19.7515 53.8693 19.8628C54.1283 20.0111 54.3134 20.1595 54.4244 20.3264C54.5354 20.4747 54.5909 20.6787 54.5909 20.9383V21.8099C54.5909 22.1993 54.4429 22.4033 54.1653 22.4033C54.0173 22.4033 53.7768 22.3291 53.4622 22.1807C52.4075 21.6986 51.2233 21.4575 49.9096 21.4575C48.8549 21.4575 48.0222 21.6244 47.4486 21.9768C46.875 22.3291 46.579 22.8669 46.579 23.6272C46.579 24.1464 46.764 24.5915 47.1341 24.9438C47.5042 25.2961 48.1888 25.6485 49.1695 25.9637L51.7969 26.7982C53.1292 27.2247 54.0913 27.8181 54.6649 28.5784C55.2385 29.3387 55.5161 30.2103 55.5161 31.1746C55.5161 31.972 55.3495 32.6952 55.035 33.3257C54.7019 33.9562 54.2579 34.5125 53.6843 34.9575C53.1107 35.4211 52.426 35.7549 51.6304 35.996C50.7977 36.2556 49.9281 36.3854 48.9844 36.3854Z" fill="#252F3E"/>
<path fill-rule="evenodd" clip-rule="evenodd" d="M52.4815 45.3978C46.3939 49.904 37.5494 52.2962 29.9445 52.2962C19.2866 52.2962 9.68341 48.3463 2.43012 41.7818C1.85652 41.2625 2.37461 40.5579 3.05923 40.9658C10.9046 45.5277 20.5818 48.2907 30.5921 48.2907C37.3458 48.2907 44.7657 46.8814 51.5934 43.9885C52.611 43.5249 53.4807 44.6561 52.4815 45.3978Z" fill="#FF9900"/>
<path fill-rule="evenodd" clip-rule="evenodd" d="M55.0165 42.5047C54.2394 41.5033 49.8726 42.0226 47.8927 42.2637C47.3006 42.3378 47.2081 41.8186 47.7447 41.4292C51.2233 38.9814 56.9409 39.686 57.607 40.502C58.2731 41.3365 57.4219 47.0665 54.1654 49.811C53.6658 50.2376 53.1847 50.015 53.4067 49.4587C54.1469 47.6229 55.7937 43.4876 55.0165 42.5047Z" fill="#FF9900"/>
</g>
<defs>
<clipPath id="clip0_441_91">
<rect width="56.25" height="33.75" fill="white" transform="translate(1.875 18.75)"/>
</clipPath>
</defs>
</svg>
