<svg width="120" height="120" viewBox="0 0 120 120" fill="none" xmlns="http://www.w3.org/2000/svg">
<rect opacity="0.2" width="120" height="120" rx="16" fill="#32A74D"/>
<g clip-path="url(#clip0_142_65)">
<path d="M52.4174 36.8912L42.8668 91.0556C42.6365 92.3616 42.9345 93.7055 43.6951 94.7917C44.4557 95.878 45.6166 96.6176 46.9226 96.8479L76.4668 102.057C77.7727 102.288 79.1167 101.99 80.2029 101.229C81.2892 100.468 82.0288 99.3075 82.2591 98.0015L91.8097 43.8371C92.04 42.5312 91.7421 41.1873 90.9815 40.101C90.2208 39.0147 89.0599 38.2751 87.7539 38.0448L58.2097 32.8354C56.9038 32.6051 55.5598 32.9031 54.4736 33.6637C53.3873 34.4243 52.6477 35.5853 52.4174 36.8912Z" fill="#2A8E41" fill-opacity="0.5"/>
<path d="M51.6438 23.3734L81.188 28.5828C83.1469 28.9282 84.8884 30.0377 86.0293 31.6671C87.1702 33.2965 87.6171 35.3123 87.2717 37.2713L77.7211 91.4357C77.3757 93.3946 76.2662 95.136 74.6369 96.277C73.0075 97.4179 70.9916 97.8648 69.0327 97.5194L39.4884 92.3099C37.5295 91.9645 35.7881 90.8551 34.6472 89.2257C33.5062 87.5963 33.0593 85.5804 33.4047 83.6215L42.9554 29.4571C43.3008 27.4982 44.4102 25.7567 46.0396 24.6158C47.669 23.4749 49.6849 23.028 51.6438 23.3734ZM38.3288 84.4897C38.2136 85.1427 38.3626 85.8147 38.7429 86.3578C39.1232 86.9009 39.7037 87.2708 40.3567 87.3859L69.9009 92.5953C70.5539 92.7105 71.2258 92.5615 71.769 92.1812C72.3121 91.8009 72.6819 91.2204 72.797 90.5674L82.3477 36.403C82.4628 35.75 82.3139 35.0781 81.9336 34.5349C81.5533 33.9918 80.9728 33.622 80.3198 33.5069L50.7756 28.2974C50.1226 28.1823 49.4506 28.3313 48.9075 28.7116C48.3644 29.0919 47.9946 29.6724 47.8794 30.3253L38.3288 84.4897ZM60.3352 38.868C60.2064 39.5984 60.2971 40.3506 60.5958 41.0295C60.8946 41.7084 61.3879 42.2834 62.0134 42.6819C62.6389 43.0804 63.3686 43.2845 64.1101 43.2683C64.8516 43.2521 65.5716 43.0164 66.1792 42.591C66.7867 42.1656 67.2545 41.5696 67.5233 40.8784C67.7921 40.1871 67.8499 39.4317 67.6894 38.7076C67.5288 37.9835 67.1572 37.3232 66.6214 36.8104C66.0857 36.2975 65.4099 35.955 64.6794 35.8262C63.7 35.6535 62.692 35.8769 61.8773 36.4474C61.0627 37.0179 60.5079 37.8886 60.3352 38.868Z" fill="black"/>
</g>
<defs>
<clipPath id="clip0_142_65">
<rect width="80" height="80" fill="white" transform="matrix(-0.984808 -0.173648 -0.173648 0.984808 106.677 28)"/>
</clipPath>
</defs>
</svg>
