<svg width="60" height="60" viewBox="0 0 60 60" fill="none" xmlns="http://www.w3.org/2000/svg">
<g opacity="0.5">
<path d="M30 5.625C34.8209 5.625 39.5336 7.05457 43.542 9.73293C47.5505 12.4113 50.6747 16.2181 52.5196 20.6721C54.3644 25.126 54.8471 30.027 53.9066 34.7553C52.9661 39.4836 50.6446 43.8268 47.2357 47.2357C43.8268 50.6446 39.4836 52.9661 34.7553 53.9066C30.027 54.8472 25.126 54.3644 20.6721 52.5196C16.2181 50.6747 12.4113 47.5505 9.73292 43.542C7.05456 39.5336 5.62499 34.8209 5.62499 30C5.63181 23.5374 8.20208 17.3415 12.7718 12.7718C17.3415 8.20209 23.5374 5.63182 30 5.625ZM30 50.625C34.0792 50.625 38.0669 49.4154 41.4586 47.1491C44.8504 44.8828 47.4939 41.6616 49.055 37.8928C50.6161 34.1241 51.0245 29.9771 50.2287 25.9763C49.4329 21.9754 47.4685 18.3004 44.5841 15.4159C41.6996 12.5315 38.0246 10.5671 34.0237 9.7713C30.0229 8.97548 25.8759 9.38393 22.1071 10.945C18.3384 12.506 15.1172 15.1496 12.8509 18.5414C10.5846 21.9331 9.37499 25.9208 9.37499 30C9.38119 35.4682 11.5562 40.7106 15.4228 44.5772C19.2894 48.4438 24.5318 50.6188 30 50.625ZM19.2984 28.6734C19.1241 28.8476 18.9858 29.0544 18.8914 29.282C18.7971 29.5096 18.7485 29.7536 18.7485 30C18.7485 30.2464 18.7971 30.4904 18.8914 30.718C18.9858 30.9456 19.1241 31.1524 19.2984 31.3266L26.7984 38.8266C27.1503 39.1784 27.6274 39.376 28.125 39.376C28.6225 39.376 29.0997 39.1784 29.4516 38.8266C29.8034 38.4747 30.001 37.9976 30.001 37.5C30.001 37.0024 29.8034 36.5253 29.4516 36.1734L25.1508 31.875H39.375C39.8723 31.875 40.3492 31.6775 40.7008 31.3258C41.0524 30.9742 41.25 30.4973 41.25 30C41.25 29.5027 41.0524 29.0258 40.7008 28.6742C40.3492 28.3225 39.8723 28.125 39.375 28.125H25.1508L29.4516 23.8266C29.8034 23.4747 30.001 22.9976 30.001 22.5C30.001 22.0024 29.8034 21.5253 29.4516 21.1734C29.0997 20.8216 28.6225 20.624 28.125 20.624C27.6274 20.624 27.1503 20.8216 26.7984 21.1734L19.2984 28.6734Z" fill="black"/>
</g>
</svg>
