<svg width="60" height="62" viewBox="0 0 60 62" fill="none" xmlns="http://www.w3.org/2000/svg">
<rect width="60" height="62" rx="8" fill="#F4F4F4"/>
<path d="M40 20H20C19.4696 20 18.9609 20.2107 18.5858 20.5858C18.2107 20.9609 18 21.4696 18 22V29C18 35.59 21.19 39.5837 23.8663 41.7738C26.7487 44.1313 29.6163 44.9312 29.7413 44.965C29.9131 45.0118 30.0944 45.0118 30.2663 44.965C30.3913 44.9312 33.255 44.1313 36.1413 41.7738C38.81 39.5837 42 35.59 42 29V22C42 21.4696 41.7893 20.9609 41.4142 20.5858C41.0391 20.2107 40.5304 20 40 20ZM40 29C40 33.6337 38.2925 37.395 34.925 40.1775C33.4591 41.3846 31.7919 42.324 30 42.9525C28.2315 42.335 26.5849 41.4123 25.135 40.2262C21.7275 37.4387 20 33.6625 20 29V22H40V29ZM24.2925 32.7075C24.1049 32.5199 23.9994 32.2654 23.9994 32C23.9994 31.7346 24.1049 31.4801 24.2925 31.2925C24.4801 31.1049 24.7346 30.9994 25 30.9994C25.2654 30.9994 25.5199 31.1049 25.7075 31.2925L28 33.5863L34.2925 27.2925C34.3854 27.1996 34.4957 27.1259 34.6171 27.0756C34.7385 27.0253 34.8686 26.9994 35 26.9994C35.1314 26.9994 35.2615 27.0253 35.3829 27.0756C35.5043 27.1259 35.6146 27.1996 35.7075 27.2925C35.8004 27.3854 35.8741 27.4957 35.9244 27.6171C35.9747 27.7385 36.0006 27.8686 36.0006 28C36.0006 28.1314 35.9747 28.2615 35.9244 28.3829C35.8741 28.5043 35.8004 28.6146 35.7075 28.7075L28.7075 35.7075C28.6146 35.8005 28.5043 35.8742 28.3829 35.9246C28.2615 35.9749 28.1314 36.0008 28 36.0008C27.8686 36.0008 27.7385 35.9749 27.6171 35.9246C27.4957 35.8742 27.3854 35.8005 27.2925 35.7075L24.2925 32.7075Z" fill="black"/>
</svg>
