<svg width="120" height="121" viewBox="0 0 120 121" fill="none" xmlns="http://www.w3.org/2000/svg">
<rect opacity="0.2" y="0.26001" width="120" height="120" rx="16" fill="#32A74D"/>
<path d="M92.5 50.26C92.5 58.5444 80.1875 65.26 65 65.26C49.8125 65.26 37.5 58.5444 37.5 50.26C37.5 41.9756 49.8125 35.26 65 35.26C80.1875 35.26 92.5 41.9756 92.5 50.26Z" fill="#86BA97"/>
<path d="M60 27.76C43.1781 27.76 30 35.4475 30 45.26V75.26C30 85.0725 43.1781 92.76 60 92.76C76.8219 92.76 90 85.0725 90 75.26V45.26C90 35.4475 76.8219 27.76 60 27.76ZM85 60.26C85 63.2663 82.5375 66.3319 78.2469 68.6725C73.4156 71.3069 66.9344 72.76 60 72.76C53.0656 72.76 46.5844 71.3069 41.7531 68.6725C37.4625 66.3319 35 63.2663 35 60.26V55.06C40.3313 59.7475 49.4469 62.76 60 62.76C70.5531 62.76 79.6688 59.735 85 55.06V60.26ZM41.7531 36.8475C46.5844 34.2131 53.0656 32.76 60 32.76C66.9344 32.76 73.4156 34.2131 78.2469 36.8475C82.5375 39.1881 85 42.2538 85 45.26C85 48.2663 82.5375 51.3319 78.2469 53.6725C73.4156 56.3069 66.9344 57.76 60 57.76C53.0656 57.76 46.5844 56.3069 41.7531 53.6725C37.4625 51.3319 35 48.2663 35 45.26C35 42.2538 37.4625 39.1881 41.7531 36.8475ZM78.2469 83.6725C73.4156 86.3069 66.9344 87.76 60 87.76C53.0656 87.76 46.5844 86.3069 41.7531 83.6725C37.4625 81.3319 35 78.2663 35 75.26V70.06C40.3313 74.7475 49.4469 77.76 60 77.76C70.5531 77.76 79.6688 74.735 85 70.06V75.26C85 78.2663 82.5375 81.3319 78.2469 83.6725Z" fill="black"/>
</svg>
