<svg width="120" height="120" viewBox="0 0 120 120" fill="none" xmlns="http://www.w3.org/2000/svg">
<rect opacity="0.2" width="120" height="120" rx="16" fill="#32A74D"/>
<path d="M91 41H41C39.6739 41 38.4021 41.5268 37.4645 42.4645C36.5268 43.4021 36 44.6739 36 46V81C36 82.3261 36.5268 83.5979 37.4645 84.5355C38.4021 85.4732 39.6739 86 41 86H91C92.3261 86 93.5979 85.4732 94.5355 84.5355C95.4732 83.5979 96 82.3261 96 81V46C96 44.6739 95.4732 43.4021 94.5355 42.4645C93.5979 41.5268 92.3261 41 91 41Z" fill="#2A8E41" fill-opacity="0.5"/>
<path d="M85 32.5H35C33.0109 32.5 31.1032 33.2902 29.6967 34.6967C28.2902 36.1032 27.5 38.0109 27.5 40V75C27.5 76.9891 28.2902 78.8968 29.6967 80.3033C31.1032 81.7098 33.0109 82.5 35 82.5H85C86.9891 82.5 88.8968 81.7098 90.3033 80.3033C91.7098 78.8968 92.5 76.9891 92.5 75V40C92.5 38.0109 91.7098 36.1032 90.3033 34.6967C88.8968 33.2902 86.9891 32.5 85 32.5ZM87.5 75C87.5 75.663 87.2366 76.2989 86.7678 76.7678C86.2989 77.2366 85.663 77.5 85 77.5H35C34.337 77.5 33.7011 77.2366 33.2322 76.7678C32.7634 76.2989 32.5 75.663 32.5 75V40C32.5 39.337 32.7634 38.7011 33.2322 38.2322C33.7011 37.7634 34.337 37.5 35 37.5H85C85.663 37.5 86.2989 37.7634 86.7678 38.2322C87.2366 38.7011 87.5 39.337 87.5 40V75ZM72.5 90C72.5 90.663 72.2366 91.2989 71.7678 91.7678C71.2989 92.2366 70.663 92.5 70 92.5H50C49.337 92.5 48.7011 92.2366 48.2322 91.7678C47.7634 91.2989 47.5 90.663 47.5 90C47.5 89.337 47.7634 88.7011 48.2322 88.2322C48.7011 87.7634 49.337 87.5 50 87.5H70C70.663 87.5 71.2989 87.7634 71.7678 88.2322C72.2366 88.7011 72.5 89.337 72.5 90Z" fill="black"/>
<path d="M51.7332 69.2701L41.7332 59.2701C41.5008 59.038 41.3164 58.7622 41.1906 58.4587C41.0648 58.1552 41 57.8299 41 57.5014C41 57.1729 41.0648 56.8475 41.1906 56.544C41.3164 56.2405 41.5008 55.9648 41.7332 55.7326L51.7332 45.7326C52.2023 45.2635 52.8386 45 53.502 45C54.1654 45 54.8016 45.2635 55.2707 45.7326C55.7398 46.2017 56.0034 46.838 56.0034 47.5014C56.0034 48.1648 55.7398 48.801 55.2707 49.2701L47.0363 57.5014L55.2707 65.7326C55.7398 66.2017 56.0034 66.838 56.0034 67.5014C56.0034 68.1648 55.7398 68.801 55.2707 69.2701C54.8016 69.7392 54.1654 70.0028 53.502 70.0028C52.8386 70.0028 52.2023 69.7392 51.7332 69.2701ZM64.2332 69.2701C64.4654 69.5026 64.7411 69.687 65.0446 69.8128C65.3481 69.9386 65.6734 70.0034 66.002 70.0034C66.3305 70.0034 66.6558 69.9386 66.9593 69.8128C67.2628 69.687 67.5385 69.5026 67.7707 69.2701L77.7707 59.2701C78.0032 59.038 78.1876 58.7622 78.3134 58.4587C78.4392 58.1552 78.5039 57.8299 78.5039 57.5014C78.5039 57.1729 78.4392 56.8475 78.3134 56.544C78.1876 56.2405 78.0032 55.9648 77.7707 55.7326L67.7707 45.7326C67.3016 45.2635 66.6654 45 66.002 45C65.3386 45 64.7023 45.2635 64.2332 45.7326C63.7641 46.2017 63.5006 46.838 63.5006 47.5014C63.5006 48.1648 63.7641 48.801 64.2332 49.2701L72.4676 57.5014L64.2332 65.7326C64.0008 65.9648 63.8164 66.2405 63.6906 66.544C63.5648 66.8475 63.5 67.1729 63.5 67.5014C63.5 67.8299 63.5648 68.1552 63.6906 68.4587C63.8164 68.7622 64.0008 69.038 64.2332 69.2701Z" fill="black"/>
</svg>
