<svg width="60" height="60" viewBox="0 0 60 60" fill="none" xmlns="http://www.w3.org/2000/svg">
<path d="M42.4234 22.7758C42.1164 22.75 41.8093 22.75 41.5 22.75C38.8027 22.7498 36.1447 23.3962 33.7487 24.6349C31.3527 25.8737 29.2886 27.6687 27.7293 29.8696C26.17 32.0704 25.161 34.613 24.7868 37.2842C24.4127 39.9554 24.6843 42.6773 25.5789 45.2219C23.1191 45.0909 20.7185 44.4196 18.5476 43.2555L12.0414 45.168C11.7183 45.2629 11.3756 45.269 11.0494 45.1857C10.7231 45.1025 10.4253 44.9329 10.1872 44.6948C9.94914 44.4567 9.77956 44.1589 9.6963 43.8326C9.61303 43.5064 9.61916 43.1637 9.71403 42.8407L11.6172 36.3438C10.5316 34.2948 9.88003 32.044 9.70302 29.732C9.52601 27.42 9.8274 25.0963 10.5884 22.9059C11.3493 20.7155 12.5536 18.7055 14.1259 17.0012C15.6982 15.2969 17.6049 13.935 19.727 13.0004C21.8491 12.0657 24.1411 11.5785 26.4598 11.569C28.7786 11.5595 31.0744 12.028 33.2041 12.9453C35.3338 13.8625 37.2515 15.2089 38.8377 16.9002C40.424 18.5916 41.6446 20.5917 42.4234 22.7758Z" fill="#86BA97"/>
<path d="M33.7501 32.8126C33.7501 33.3689 33.5851 33.9126 33.2761 34.3752C32.967 34.8377 32.5278 35.1981 32.0139 35.411C31.4999 35.6239 30.9344 35.6796 30.3889 35.5711C29.8433 35.4625 29.3422 35.1947 28.9488 34.8013C28.5555 34.408 28.2876 33.9069 28.1791 33.3613C28.0706 32.8157 28.1263 32.2502 28.3391 31.7363C28.552 31.2224 28.9125 30.7831 29.375 30.4741C29.8375 30.1651 30.3813 30.0001 30.9376 30.0001C31.6835 30.0001 32.3989 30.2964 32.9263 30.8239C33.4537 31.3513 33.7501 32.0667 33.7501 32.8126ZM44.0626 30.0001C43.5063 30.0001 42.9625 30.1651 42.5 30.4741C42.0375 30.7831 41.677 31.2224 41.4642 31.7363C41.2513 32.2502 41.1956 32.8157 41.3041 33.3613C41.4126 33.9069 41.6805 34.408 42.0738 34.8013C42.4672 35.1947 42.9683 35.4625 43.5139 35.5711C44.0594 35.6796 44.6249 35.6239 45.1389 35.411C45.6528 35.1981 46.092 34.8377 46.4011 34.3752C46.7101 33.9126 46.8751 33.3689 46.8751 32.8126C46.8751 32.0667 46.5787 31.3513 46.0513 30.8239C45.5239 30.2964 44.8085 30.0001 44.0626 30.0001ZM56.0954 49.5634C56.2859 50.2099 56.2986 50.8958 56.1322 51.549C55.9659 52.2021 55.6265 52.7984 55.1499 53.275C54.6733 53.7516 54.0771 54.0909 53.4239 54.2573C52.7708 54.4237 52.0849 54.4109 51.4383 54.2204L45.6469 52.5165C43.3638 53.6177 40.8811 54.2444 38.349 54.359C35.8168 54.4735 33.2876 54.0734 30.9144 53.1829C28.5412 52.2924 26.3732 50.9299 24.5415 49.1778C22.7097 47.4257 21.2522 45.3204 20.2571 42.9892C18.2069 42.7481 16.2114 42.1658 14.3532 41.2665L8.56178 42.9704C7.91525 43.1609 7.22933 43.1737 6.57617 43.0073C5.92302 42.8409 5.32678 42.5016 4.85018 42.025C4.37358 41.5484 4.03425 40.9521 3.86787 40.299C3.7015 39.6458 3.71424 38.9599 3.90475 38.3134L5.60865 32.522C4.54002 30.2735 3.92984 27.8348 3.81372 25.348C3.6976 22.8612 4.07785 20.3762 4.9323 18.0379C5.78676 15.6997 7.09829 13.555 8.7904 11.729C10.4825 9.90297 12.5213 8.4322 14.7879 7.40249C17.0544 6.37278 19.5033 5.80474 21.9917 5.7315C24.4801 5.65827 26.9582 6.08131 29.2814 6.97595C31.6046 7.87058 33.7264 9.2189 35.5229 10.9422C37.3195 12.6656 38.7549 14.7294 39.7454 17.0134C42.707 17.3703 45.5406 18.4286 48.0111 20.1005C50.4815 21.7724 52.5174 24.0096 53.9496 26.6263C55.3818 29.243 56.1691 32.1637 56.2459 35.1457C56.3228 38.1277 55.687 41.085 54.3915 43.772L56.0954 49.5634ZM19.0547 38.9767C18.591 36.4367 18.6573 33.8282 19.2494 31.315C19.8415 28.8018 20.9466 26.4381 22.4955 24.3723C24.0444 22.3064 26.0036 20.583 28.2501 19.3102C30.4966 18.0374 32.9819 17.2427 35.5501 16.9759C34.5996 15.2503 33.3186 13.7288 31.7801 12.4983C30.2417 11.2677 28.4759 10.3523 26.5837 9.80416C22.7621 8.69718 18.6573 9.15365 15.1723 11.0732C11.6873 12.9927 9.10757 16.218 8.00059 20.0395C6.89361 23.8611 7.35009 27.9659 9.26959 31.4509C9.50044 31.8824 9.55344 32.3871 9.41725 32.8571L7.50006 39.3751L14.0063 37.4603C14.4764 37.3241 14.981 37.3771 15.4126 37.6079C16.5614 38.2217 17.786 38.6819 19.0547 38.9767ZM50.7305 42.7009C52.4267 39.5288 52.9264 35.8528 52.1387 32.3431C51.351 28.8333 49.3283 25.7235 46.4393 23.5805C43.5502 21.4375 39.9873 20.404 36.3999 20.6685C32.8126 20.9329 29.4397 22.4777 26.8962 25.0213C24.3527 27.5648 22.8079 30.9376 22.5434 34.525C22.2789 38.1123 23.3124 41.6753 25.4554 44.5643C27.5984 47.4533 30.7082 49.4761 34.218 50.2638C37.7278 51.0515 41.4038 50.5517 44.5758 48.8556C45.0074 48.6247 45.512 48.5717 45.9821 48.7079L52.5001 50.6251L50.5852 44.1189C50.4451 43.6455 50.4973 43.136 50.7305 42.7009Z" fill="black"/>
</svg>
