<svg width="142" height="149" viewBox="0 0 142 149" fill="none" xmlns="http://www.w3.org/2000/svg">
<path opacity="0.25" d="M135.298 25.764L116.715 22.4873L118.121 14.5104C118.246 13.8052 118.085 13.0796 117.675 12.4931C117.265 11.9067 116.639 11.5075 115.935 11.3833C115.231 11.2592 114.507 11.4203 113.921 11.8311C113.335 12.242 112.936 12.869 112.812 13.5742L111.405 21.5512L53.0018 11.2531L54.4084 3.27612C54.5327 2.57092 54.3723 1.84528 53.9624 1.25884C53.5524 0.672397 52.9266 0.273193 52.2225 0.149046C51.5185 0.0248995 50.7938 0.18598 50.2081 0.596851C49.6223 1.00772 49.2233 1.63473 49.099 2.33993L47.6924 10.3169L29.1095 7.04021C26.9973 6.66777 24.8234 7.15101 23.0661 8.38362C21.3088 9.61623 20.1119 11.4973 19.7389 13.6129L0.984889 119.972C0.61185 122.088 1.09316 124.265 2.32294 126.024C3.55272 127.783 5.43023 128.981 7.54244 129.353L113.73 148.077C115.843 148.45 118.016 147.966 119.774 146.734C121.531 145.501 122.728 143.62 123.101 141.504L141.855 35.1452C142.228 33.0296 141.747 30.8527 140.517 29.0934C139.287 27.3341 137.41 26.1365 135.298 25.764ZM28.1718 12.3582L46.7547 15.6348L45.3482 23.6118C45.2238 24.317 45.3843 25.0426 45.7942 25.6291C46.2041 26.2155 46.83 26.6147 47.534 26.7389C48.2381 26.863 48.9627 26.7019 49.5485 26.2911C50.1343 25.8802 50.5332 25.2532 50.6576 24.548L52.0641 16.571L110.468 26.8691L109.061 34.8461C108.937 35.5513 109.097 36.2769 109.507 36.8633C109.917 37.4498 110.543 37.849 111.247 37.9731C111.951 38.0973 112.676 37.9362 113.261 37.5253C113.847 37.1145 114.246 36.4875 114.37 35.7823L115.777 27.8053L134.36 31.082C135.064 31.2061 135.69 31.6053 136.1 32.1918C136.51 32.7782 136.67 33.5038 136.546 34.209L132.326 58.1399L20.8286 38.4799L25.0483 14.5491C25.1726 13.8439 25.5716 13.2168 26.1574 12.806C26.7431 12.3951 27.4678 12.234 28.1718 12.3582ZM114.668 142.759L8.48014 124.035C7.77607 123.911 7.15023 123.512 6.7403 122.926C6.33038 122.339 6.16994 121.614 6.29429 120.908L19.8909 43.7978L131.388 63.4578L117.792 140.568C117.667 141.273 117.268 141.9 116.683 142.311C116.097 142.722 115.372 142.883 114.668 142.759ZM97.5222 80.2215C97.7255 80.5119 97.8696 80.8397 97.9462 81.1861C98.0229 81.5324 98.0307 81.8906 97.969 82.24C97.9074 82.5894 97.7777 82.9233 97.5872 83.2225C97.3966 83.5218 97.1491 83.7805 96.8588 83.9839L59.3762 110.275C59.086 110.478 58.7587 110.623 58.4128 110.7C58.0669 110.777 57.7093 110.785 57.3605 110.723C57.0116 110.662 56.6783 110.532 56.3796 110.341C56.0809 110.151 55.8227 109.903 55.6198 109.612L42.5047 90.8498C42.0945 90.263 41.934 89.5369 42.0584 88.8313C42.1828 88.1258 42.582 87.4984 43.1681 87.0873C43.7542 86.6762 44.4792 86.515 45.1837 86.6392C45.8882 86.7635 46.5143 87.1629 46.9245 87.7496L58.4931 104.3L93.7658 79.5591C94.0559 79.3554 94.3833 79.2109 94.7291 79.1339C95.075 79.0569 95.4326 79.0489 95.7815 79.1105C96.1303 79.172 96.4637 79.3018 96.7623 79.4924C97.061 79.683 97.3192 79.9308 97.5222 80.2215Z" fill="white"/>
</svg>
