<svg width="60" height="60" viewBox="0 0 60 60" fill="none" xmlns="http://www.w3.org/2000/svg">
<path d="M52.4672 32.6204L56.4001 27.6985C55.8696 25.7045 55.0759 23.79 54.0399 22.0056L47.7821 21.3024C47.2822 20.7392 46.7492 20.2063 46.186 19.7063L45.4829 13.4462C43.6965 12.4164 41.7813 11.6283 39.7876 11.1024L34.8657 15.0329C34.1132 14.9884 33.3588 14.9884 32.6063 15.0329L27.6844 11.1001C25.6969 11.6321 23.7888 12.4258 22.0102 13.4603L21.3071 19.7181C20.7439 20.218 20.2109 20.7509 19.711 21.3142L13.4508 22.0173C12.4211 23.8037 11.6329 25.7188 11.1071 27.7126L15.0375 32.6345C14.993 33.3869 14.993 34.1414 15.0375 34.8938L11.1047 39.8157C11.6352 41.8098 12.4289 43.7242 13.4649 45.5087L19.7227 46.2118C20.2226 46.775 20.7556 47.308 21.3188 47.8079L22.0219 54.0681C23.8083 55.0978 25.7235 55.886 27.7172 56.4118L32.6391 52.4813C33.3916 52.5259 34.146 52.5259 34.8985 52.4813L39.8204 56.4142C41.8144 55.8837 43.7289 55.09 45.5133 54.054L46.2165 47.7962C46.7797 47.2963 47.3126 46.7633 47.8126 46.2001L54.0727 45.497C55.1025 43.7106 55.8906 41.7954 56.4165 39.8017L52.486 34.8798C52.5243 34.127 52.518 33.3725 52.4672 32.6204ZM33.7501 43.1251C31.8959 43.1251 30.0833 42.5753 28.5416 41.5451C26.9999 40.515 25.7983 39.0508 25.0887 37.3378C24.3791 35.6247 24.1935 33.7397 24.5552 31.9211C24.9169 30.1026 25.8098 28.4321 27.1209 27.121C28.432 25.8099 30.1025 24.917 31.9211 24.5552C33.7397 24.1935 35.6247 24.3792 37.3377 25.0887C39.0508 25.7983 40.5149 26.9999 41.5451 28.5416C42.5752 30.0833 43.125 31.8959 43.125 33.7501C43.125 36.2365 42.1373 38.6211 40.3792 40.3792C38.621 42.1374 36.2365 43.1251 33.7501 43.1251Z" fill="#86BA97"/>
<path d="M29.7753 18.5253C27.5502 18.5253 25.3751 19.1851 23.5251 20.4212C21.675 21.6574 20.2331 23.4144 19.3816 25.4701C18.5301 27.5257 18.3073 29.7877 18.7414 31.97C19.1755 34.1523 20.247 36.1569 21.8203 37.7302C23.3936 39.3035 25.3982 40.375 27.5805 40.8091C29.7628 41.2432 32.0248 41.0204 34.0804 40.1689C36.1361 39.3174 37.8931 37.8755 39.1293 36.0254C40.3655 34.1754 41.0253 32.0003 41.0253 29.7753C41.0222 26.7925 39.8359 23.9328 37.7268 21.8237C35.6177 19.7146 32.758 18.5284 29.7753 18.5253ZM29.7753 37.2753C28.2919 37.2753 26.8418 36.8354 25.6085 36.0113C24.3751 35.1872 23.4138 34.0158 22.8462 32.6454C22.2785 31.2749 22.13 29.7669 22.4194 28.3121C22.7088 26.8572 23.4231 25.5208 24.472 24.472C25.5208 23.4231 26.8572 22.7088 28.3121 22.4194C29.7669 22.13 31.2749 22.2785 32.6454 22.8462C34.0158 23.4138 35.1872 24.3751 36.0113 25.6085C36.8354 26.8418 37.2753 28.2919 37.2753 29.7753C37.2753 31.7644 36.4851 33.672 35.0786 35.0786C33.672 36.4851 31.7644 37.2753 29.7753 37.2753ZM50.4003 30.2815C50.4096 29.944 50.4096 29.6065 50.4003 29.269L53.8971 24.9003C54.0805 24.6709 54.2074 24.4016 54.2676 24.1142C54.3279 23.8268 54.3198 23.5293 54.244 23.2456C53.6697 21.0911 52.8122 19.0223 51.694 17.0932C51.5475 16.8408 51.344 16.6262 51.0999 16.4662C50.8558 16.3063 50.5777 16.2056 50.2878 16.1721L44.7284 15.5534C44.4971 15.3096 44.2628 15.0753 44.0253 14.8503L43.369 9.27682C43.3352 8.98669 43.2342 8.70846 43.0739 8.46431C42.9135 8.22016 42.6984 8.01684 42.4456 7.87057C40.5167 6.75318 38.4478 5.89724 36.2932 5.32525C36.0095 5.24946 35.712 5.24136 35.4246 5.30161C35.1372 5.36186 34.8679 5.48877 34.6385 5.67213L30.2815 9.15025C29.944 9.15025 29.6065 9.15025 29.269 9.15025L24.9003 5.66041C24.6709 5.47705 24.4016 5.35014 24.1142 5.28989C23.8268 5.22964 23.5293 5.23774 23.2456 5.31353C21.0911 5.88782 19.0223 6.74529 17.0932 7.86353C16.8408 8.01008 16.6262 8.21352 16.4662 8.45765C16.3063 8.70178 16.2056 8.97987 16.1721 9.26978L15.5534 14.8385C15.3096 15.0713 15.0753 15.3057 14.8503 15.5417L9.27682 16.1815C8.98669 16.2153 8.70846 16.3163 8.46431 16.4767C8.22016 16.637 8.01684 16.8521 7.87057 17.1049C6.75341 19.0342 5.89674 21.103 5.32291 23.2573C5.24743 23.5412 5.23971 23.8388 5.30037 24.1262C5.36103 24.4137 5.48837 24.6828 5.67213 24.912L9.15025 29.269C9.15025 29.6065 9.15025 29.944 9.15025 30.2815L5.66041 34.6503C5.47705 34.8796 5.35014 35.1489 5.28989 35.4363C5.22964 35.7237 5.23774 36.0212 5.31353 36.3049C5.88782 38.4594 6.74529 40.5283 7.86353 42.4573C8.01008 42.7097 8.21352 42.9244 8.45765 43.0843C8.70178 43.2442 8.97987 43.3449 9.26978 43.3784L14.8292 43.9971C15.062 44.2409 15.2963 44.4753 15.5323 44.7003L16.1815 50.2737C16.2153 50.5638 16.3163 50.842 16.4767 51.0862C16.637 51.3303 16.8521 51.5337 17.1049 51.6799C19.0342 52.7971 21.103 53.6538 23.2573 54.2276C23.5412 54.3031 23.8388 54.3108 24.1262 54.2501C24.4137 54.1895 24.6828 54.0621 24.912 53.8784L29.269 50.4003C29.6065 50.4096 29.944 50.4096 30.2815 50.4003L34.6503 53.8971C34.8796 54.0805 35.1489 54.2074 35.4363 54.2676C35.7237 54.3279 36.0212 54.3198 36.3049 54.244C38.4598 53.6707 40.5287 52.8132 42.4573 51.694C42.7097 51.5475 42.9244 51.344 43.0843 51.0999C43.2442 50.8558 43.3449 50.5777 43.3784 50.2878L43.9971 44.7284C44.2409 44.4971 44.4753 44.2628 44.7003 44.0253L50.2737 43.369C50.5638 43.3352 50.842 43.2342 51.0862 43.0739C51.3303 42.9135 51.5337 42.6984 51.6799 42.4456C52.7971 40.5163 53.6538 38.4475 54.2276 36.2932C54.3031 36.0093 54.3108 35.7117 54.2501 35.4243C54.1895 35.1369 54.0621 34.8677 53.8784 34.6385L50.4003 30.2815ZM46.6268 28.7581C46.6667 29.4356 46.6667 30.1149 46.6268 30.7924C46.5989 31.2563 46.7442 31.714 47.0346 32.0768L50.3604 36.2323C49.9788 37.4451 49.4901 38.6216 48.9003 39.7479L43.6034 40.3479C43.1421 40.3991 42.7162 40.6196 42.4081 40.9667C41.9569 41.4741 41.4764 41.9546 40.969 42.4057C40.6219 42.7138 40.4015 43.1398 40.3503 43.601L39.762 48.8932C38.6358 49.4834 37.4593 49.972 36.2463 50.3534L32.0885 47.0276C31.7558 46.7618 31.3425 46.6171 30.9167 46.6174H30.8042C30.1266 46.6573 29.4473 46.6573 28.7698 46.6174C28.3061 46.5909 27.8488 46.736 27.4854 47.0253L23.3182 50.3534C22.1054 49.9718 20.9289 49.4831 19.8026 48.8932L19.2026 43.6034C19.1514 43.1421 18.9309 42.7162 18.5838 42.4081C18.0764 41.9569 17.5959 41.4764 17.1448 40.969C16.8367 40.6219 16.4108 40.4015 15.9495 40.3503L10.6573 39.7596C10.0671 38.6335 9.57846 37.4569 9.19713 36.244L12.5229 32.0862C12.8133 31.7234 12.9586 31.2657 12.9307 30.8018C12.8909 30.1243 12.8909 29.445 12.9307 28.7674C12.9586 28.3036 12.8133 27.8459 12.5229 27.4831L9.19713 23.3182C9.57875 22.1054 10.0674 20.9289 10.6573 19.8026L15.9471 19.2026C16.4084 19.1514 16.8343 18.9309 17.1424 18.5838C17.5936 18.0764 18.0741 17.5959 18.5815 17.1448C18.93 16.8365 19.1513 16.4096 19.2026 15.9471L19.7909 10.6573C20.9171 10.0671 22.0936 9.57846 23.3065 9.19713L27.4643 12.5229C27.8271 12.8133 28.2848 12.9586 28.7487 12.9307C29.4262 12.8909 30.1055 12.8909 30.7831 12.9307C31.2468 12.9573 31.704 12.8121 32.0674 12.5229L36.2323 9.19713C37.4451 9.57875 38.6216 10.0674 39.7479 10.6573L40.3479 15.9471C40.3991 16.4084 40.6196 16.8343 40.9667 17.1424C41.4741 17.5936 41.9546 18.0741 42.4057 18.5815C42.7138 18.9286 43.1398 19.149 43.601 19.2003L48.8932 19.7885C49.4834 20.9147 49.972 22.0912 50.3534 23.3042L47.0276 27.462C46.7344 27.8278 46.5889 28.2902 46.6198 28.7581H46.6268Z" fill="black"/>
</svg>
