<svg width="97" height="97" viewBox="0 0 97 97" fill="none" xmlns="http://www.w3.org/2000/svg">
<path d="M72.5 54.9185C72.5 58.4785 71.4443 61.9586 69.4665 64.9187C67.4886 67.8788 64.6774 70.1859 61.3883 71.5483C58.0992 72.9107 54.48 73.2671 50.9884 72.5726C47.4967 71.8781 44.2894 70.1637 41.7721 67.6464C39.2547 65.129 37.5404 61.9217 36.8459 58.4301C36.1513 54.9384 36.5078 51.3192 37.8702 48.0302C39.2326 44.7411 41.5397 41.9299 44.4997 39.952C47.4598 37.9741 50.9399 36.9185 54.5 36.9185C59.2739 36.9185 63.8523 38.8149 67.2279 42.1905C70.6036 45.5662 72.5 50.1446 72.5 54.9185Z" fill="#86BA97"/>
<path d="M83.7012 32.1035C87.8642 40.8102 88.6545 50.7504 85.9195 60.0056C83.1846 69.2608 77.1183 77.1748 68.8915 82.2203C60.6646 87.2659 50.8604 89.0852 41.3711 87.3271C31.8818 85.5691 23.38 80.3583 17.5067 72.7005C11.6333 65.0427 8.8047 55.4808 9.5668 45.8601C10.3289 36.2394 14.6277 27.2421 21.6334 20.6045C28.6392 13.9669 37.8553 10.1597 47.5031 9.91757C57.1508 9.67546 66.5463 13.0157 73.8762 19.2935L82.3774 10.7885C82.9404 10.2256 83.7039 9.90932 84.5 9.90932C85.296 9.90932 86.0595 10.2256 86.6225 10.7885C87.1854 11.3514 87.5016 12.1149 87.5016 12.911C87.5016 13.7071 87.1854 14.4706 86.6225 15.0335L50.6224 51.0335C50.0595 51.5964 49.296 51.9127 48.4999 51.9127C47.7039 51.9127 46.9404 51.5964 46.3774 51.0335C45.8145 50.4706 45.4983 49.7071 45.4983 48.911C45.4983 48.1149 45.8145 47.3514 46.3774 46.7885L56.7724 36.3935C53.9553 34.5303 50.5917 33.6725 47.2263 33.9588C43.8609 34.2451 40.6907 35.6589 38.2287 37.9712C35.7668 40.2835 34.1574 43.359 33.6609 46.6999C33.1644 50.0408 33.81 53.4514 35.4931 56.3797C37.1763 59.308 39.7984 61.5826 42.9351 62.8352C46.0718 64.0877 49.5395 64.245 52.7767 63.2816C56.014 62.3181 58.8313 60.2903 60.7726 57.5264C62.7139 54.7625 63.6657 51.4243 63.4737 48.0522C63.4515 47.6583 63.5072 47.2638 63.6375 46.8913C63.7678 46.5189 63.9701 46.1757 64.2331 45.8815C64.496 45.5872 64.8143 45.3477 65.1697 45.1764C65.5252 45.0052 65.911 44.9056 66.3049 44.8835C67.1006 44.8387 67.8814 45.1119 68.4757 45.6428C68.7699 45.9057 69.0095 46.224 69.1808 46.5795C69.352 46.935 69.4515 47.3208 69.4737 47.7147C69.7472 52.4877 68.384 57.211 65.6093 61.1042C62.8346 64.9974 58.8146 67.8273 54.2137 69.1262C49.6128 70.4251 44.7064 70.1152 40.3054 68.2479C35.9044 66.3805 32.2724 63.0674 30.0095 58.8561C27.7466 54.6448 26.9884 49.7874 27.8602 45.0868C28.7319 40.3862 31.1815 36.1238 34.804 33.004C38.4264 29.8842 43.005 28.0937 47.7829 27.9286C52.5608 27.7636 57.252 29.2337 61.0812 32.096L69.6124 23.5647C63.3605 18.374 55.4111 15.6761 47.2912 15.9893C39.1712 16.3024 31.4533 19.6046 25.6196 25.2615C19.786 30.9184 16.2481 38.5311 15.6854 46.6376C15.1226 54.7441 17.5748 62.7726 22.5708 69.1813C27.5668 75.59 34.7545 79.9268 42.7533 81.359C50.7521 82.7911 58.9979 81.2174 65.9072 76.9403C72.8164 72.6632 77.9018 65.9841 80.1867 58.186C82.4715 50.3879 81.7947 42.0205 78.2862 34.691C77.9431 33.9729 77.8993 33.1479 78.1644 32.3976C78.4295 31.6472 78.9819 31.0329 79.7 30.6897C80.418 30.3466 81.243 30.3028 81.9934 30.5679C82.7438 30.8331 83.3581 31.3854 83.7012 32.1035Z" fill="black"/>
</svg>
