<svg width="97" height="97" viewBox="0 0 97 97" fill="none" xmlns="http://www.w3.org/2000/svg">
<path d="M90.5 54.9184C90.5054 59.9671 89.4461 64.9602 87.3913 69.5719C85.3365 74.1835 82.3324 78.3101 78.575 81.6822C76.316 77.2388 72.871 73.5075 68.6217 70.9016C64.3724 68.2958 59.4847 66.9172 54.5 66.9184C57.4667 66.9184 60.3668 66.0387 62.8336 64.3905C65.3003 62.7423 67.2229 60.3996 68.3582 57.6587C69.4935 54.9178 69.7906 51.9018 69.2118 48.9921C68.633 46.0824 67.2044 43.4096 65.1066 41.3118C63.0088 39.214 60.3361 37.7854 57.4264 37.2066C54.5166 36.6279 51.5006 36.9249 48.7598 38.0602C46.0189 39.1956 43.6762 41.1181 42.028 43.5849C40.3797 46.0516 39.5 48.9517 39.5 51.9184C39.5 55.8967 41.0804 59.712 43.8934 62.525C46.7064 65.3381 50.5218 66.9184 54.5 66.9184C49.5153 66.9172 44.6276 68.2958 40.3783 70.9016C36.129 73.5075 32.684 77.2388 30.425 81.6822C25.9635 77.6691 22.5758 72.6044 20.5702 66.9487C18.5646 61.2929 18.0046 55.2255 18.9411 49.2982C19.8777 43.3709 22.281 37.7717 25.9327 33.0098C29.5843 28.2479 34.3684 24.4744 39.8499 22.0324C45.3314 19.5904 51.3363 18.5573 57.3188 19.0272C63.3012 19.497 69.0712 21.4549 74.1043 24.7227C79.1373 27.9906 83.2736 32.4647 86.1371 37.7383C89.0005 43.0119 90.5003 48.9176 90.5 54.9184Z" fill="#86BA97"/>
<path d="M83.5063 39.9598C82.7217 40.0911 82.0213 40.5287 81.5592 41.1764C81.0972 41.8241 80.9113 42.6288 81.0426 43.4135C81.3472 45.2327 81.5002 47.074 81.5001 48.9185C81.5072 56.9967 78.5382 64.7945 73.1601 70.8223C69.8142 65.9738 65.1095 62.2228 59.6376 60.041C62.5769 57.7259 64.7217 54.5524 65.7738 50.9619C66.8259 47.3713 66.733 43.5421 65.5079 40.0068C64.2828 36.4715 61.9865 33.4058 58.9384 31.2361C55.8902 29.0664 52.2416 27.9004 48.5001 27.9004C44.7586 27.9004 41.11 29.0664 38.0618 31.2361C35.0137 33.4058 32.7174 36.4715 31.4923 40.0068C30.2672 43.5421 30.1743 47.3713 31.2264 50.9619C32.2785 54.5524 34.4233 57.7259 37.3626 60.041C31.8907 62.2228 27.186 65.9738 23.8401 70.8223C19.6203 66.0671 16.8639 60.1943 15.9023 53.9099C14.9407 47.6255 15.8148 41.1972 18.4196 35.3977C21.0244 29.5983 25.249 24.6748 30.5853 21.2191C35.9216 17.7635 42.1426 15.9228 48.5001 15.9185C50.3446 15.9182 52.1859 16.0712 54.0051 16.376C54.7863 16.4993 55.5845 16.3091 56.2262 15.8468C56.8679 15.3846 57.3011 14.6877 57.4315 13.9077C57.562 13.1277 57.3793 12.3277 56.923 11.6818C56.4667 11.0359 55.7738 10.5962 54.9951 10.4585C46.848 9.08793 38.4761 10.342 31.0882 14.0397C23.7003 17.7373 17.6787 23.6872 13.8928 31.0302C10.1069 38.3733 8.75255 46.7295 10.0254 54.8925C11.2982 63.0554 15.1323 70.6026 20.9741 76.4444C26.816 82.2863 34.3632 86.1204 42.5261 87.3932C50.6891 88.666 59.0453 87.3117 66.3884 83.5258C73.7314 79.7399 79.6813 73.7183 83.3789 66.3304C87.0766 58.9425 88.3307 50.5706 86.9601 42.4235C86.8288 41.6388 86.3911 40.9384 85.7435 40.4764C85.0958 40.0143 84.2911 39.8285 83.5063 39.9598ZM36.5001 45.9185C36.5001 43.5451 37.2039 41.225 38.5225 39.2517C39.841 37.2783 41.7152 35.7402 43.9079 34.8319C46.1006 33.9237 48.5134 33.6861 50.8412 34.1491C53.169 34.6121 55.3071 35.755 56.9854 37.4332C58.6636 39.1114 59.8065 41.2496 60.2695 43.5774C60.7325 45.9052 60.4949 48.318 59.5867 50.5107C58.6784 52.7034 57.1403 54.5776 55.1669 55.8961C53.1936 57.2147 50.8735 57.9185 48.5001 57.9185C45.3175 57.9185 42.2653 56.6542 40.0148 54.4038C37.7644 52.1533 36.5001 49.1011 36.5001 45.9185ZM28.2801 74.981C30.4504 71.5868 33.4401 68.7936 36.9738 66.8587C40.5075 64.9239 44.4714 63.9097 48.5001 63.9097C52.5288 63.9097 56.4927 64.9239 60.0264 66.8587C63.5601 68.7936 66.5498 71.5868 68.7201 74.981C62.9389 79.4772 55.8239 81.9182 48.5001 81.9182C41.1763 81.9182 34.0613 79.4772 28.2801 74.981ZM89.6226 18.041L77.6226 30.041C77.344 30.3199 77.0131 30.5412 76.6489 30.6922C76.2847 30.8432 75.8943 30.9209 75.5001 30.9209C75.1059 30.9209 74.7155 30.8432 74.3513 30.6922C73.9871 30.5412 73.6562 30.3199 73.3776 30.041L67.3776 24.041C67.0989 23.7623 66.8778 23.4314 66.7269 23.0672C66.5761 22.703 66.4984 22.3127 66.4984 21.9185C66.4984 21.5243 66.5761 21.134 66.7269 20.7698C66.8778 20.4056 67.0989 20.0747 67.3776 19.796C67.9405 19.2331 68.704 18.9168 69.5001 18.9168C69.8943 18.9168 70.2846 18.9945 70.6488 19.1453C71.013 19.2962 71.3439 19.5173 71.6226 19.796L75.5001 23.6772L85.3776 13.796C85.6563 13.5173 85.9872 13.2962 86.3514 13.1453C86.7156 12.9945 87.1059 12.9168 87.5001 12.9168C87.8943 12.9168 88.2846 12.9945 88.6488 13.1453C89.013 13.2962 89.3439 13.5173 89.6226 13.796C89.9013 14.0747 90.1224 14.4056 90.2733 14.7698C90.4241 15.134 90.5018 15.5243 90.5018 15.9185C90.5018 16.3127 90.4241 16.703 90.2733 17.0672C90.1224 17.4314 89.9013 17.7623 89.6226 18.041Z" fill="black"/>
</svg>
