<svg width="97" height="97" viewBox="0 0 97 97" fill="none" xmlns="http://www.w3.org/2000/svg">
<path d="M48.5 69.9185C48.5 72.2918 47.7962 74.6119 46.4776 76.5853C45.1591 78.5587 43.2849 80.0968 41.0922 81.005C38.8995 81.9133 36.4867 82.1509 34.1589 81.6879C31.8311 81.2249 29.693 80.082 28.0147 78.4037C26.3365 76.7255 25.1936 74.5873 24.7306 72.2595C24.2676 69.9318 24.5052 67.519 25.4135 65.3263C26.3217 63.1335 27.8598 61.2594 29.8332 59.9408C31.8066 58.6222 34.1266 57.9185 36.5 57.9185C39.6826 57.9185 42.7349 59.1827 44.9853 61.4332C47.2357 63.6836 48.5 66.7359 48.5 69.9185ZM36.5 18.9185C34.1266 18.9185 31.8066 19.6222 29.8332 20.9408C27.8598 22.2594 26.3217 24.1335 25.4135 26.3263C24.5052 28.519 24.2676 30.9318 24.7306 33.2595C25.1936 35.5873 26.3365 37.7255 28.0147 39.4037C29.693 41.082 31.8311 42.2249 34.1589 42.6879C36.4867 43.1509 38.8995 42.9133 41.0922 42.005C43.2849 41.0968 45.1591 39.5587 46.4776 37.5853C47.7962 35.6119 48.5 33.2918 48.5 30.9185C48.5 27.7359 47.2357 24.6836 44.9853 22.4332C42.7349 20.1827 39.6826 18.9185 36.5 18.9185ZM72.5 57.9185C70.1266 57.9185 67.8066 58.6222 65.8332 59.9408C63.8598 61.2594 62.3217 63.1335 61.4135 65.3263C60.5052 67.519 60.2676 69.9318 60.7306 72.2595C61.1936 74.5873 62.3365 76.7255 64.0147 78.4037C65.693 80.082 67.8312 81.2249 70.1589 81.6879C72.4867 82.1509 74.8995 81.9133 77.0922 81.005C79.2849 80.0968 81.1591 78.5587 82.4776 76.5853C83.7962 74.6119 84.5 72.2918 84.5 69.9185C84.5 66.7359 83.2357 63.6836 80.9853 61.4332C78.7348 59.1827 75.6826 57.9185 72.5 57.9185ZM72.5 42.9185C74.8734 42.9185 77.1935 42.2147 79.1668 40.8961C81.1402 39.5775 82.6783 37.7034 83.5866 35.5107C84.4948 33.318 84.7325 30.9052 84.2694 28.5774C83.8064 26.2496 82.6635 24.1114 80.9853 22.4332C79.3071 20.755 77.1689 19.6121 74.8411 19.149C72.5133 18.686 70.1005 18.9237 67.9078 19.8319C65.7151 20.7402 63.841 22.2782 62.5224 24.2516C61.2038 26.225 60.5 28.5451 60.5 30.9185C60.5 34.1011 61.7643 37.1533 64.0147 39.4037C66.2652 41.6542 69.3174 42.9185 72.5 42.9185Z" fill="#86BA97"/>
<path d="M10.7 48.3184C11.0152 48.5548 11.3738 48.7268 11.7555 48.8245C12.1371 48.9223 12.5343 48.944 12.9243 48.8883C13.3143 48.8325 13.6895 48.7006 14.0285 48.4998C14.3675 48.2991 14.6636 48.0336 14.9 47.7184C16.7164 45.2966 19.0717 43.3309 21.7793 41.9771C24.487 40.6232 27.4727 39.9184 30.5 39.9184C33.5273 39.9184 36.513 40.6232 39.2207 41.9771C41.9283 43.3309 44.2836 45.2966 46.1 47.7184C46.5779 48.3543 47.2889 48.7744 48.0765 48.8862C48.8642 48.998 49.6639 48.7924 50.3 48.3147C50.5268 48.146 50.7276 47.9452 50.8962 47.7184C52.7126 45.2966 55.0679 43.3309 57.7756 41.9771C60.4833 40.6232 63.469 39.9184 66.4963 39.9184C69.5235 39.9184 72.5092 40.6232 75.2169 41.9771C77.9246 43.3309 80.2799 45.2966 82.0963 47.7184C82.5741 48.3549 83.2853 48.7755 84.0733 48.8877C84.8613 48.9999 85.6616 48.7944 86.2981 48.3165C86.9346 47.8386 87.3553 47.1275 87.4674 46.3395C87.5796 45.5515 87.3741 44.7512 86.8962 44.1147C84.2407 40.5547 80.6996 37.7518 76.625 35.9847C78.8588 33.9452 80.4239 31.278 81.1148 28.3331C81.8056 25.3883 81.59 22.3034 80.4963 19.4832C79.4026 16.6631 77.4818 14.2395 74.986 12.5306C72.4902 10.8216 69.5361 9.9071 66.5112 9.9071C63.4864 9.9071 60.5323 10.8216 58.0365 12.5306C55.5407 14.2395 53.6199 16.6631 52.5262 19.4832C51.4325 22.3034 51.2169 25.3883 51.9077 28.3331C52.5986 31.278 54.1637 33.9452 56.3975 35.9847C53.4554 37.2568 50.7827 39.0781 48.5225 41.3509C46.2623 39.0781 43.5896 37.2568 40.6475 35.9847C42.8813 33.9452 44.4464 31.278 45.1373 28.3331C45.8281 25.3883 45.6125 22.3034 44.5188 19.4832C43.4251 16.6631 41.5043 14.2395 39.0085 12.5306C36.5127 10.8216 33.5586 9.9071 30.5337 9.9071C27.5089 9.9071 24.5548 10.8216 22.059 12.5306C19.5632 14.2395 17.6424 16.6631 16.5487 19.4832C15.455 22.3034 15.2394 25.3883 15.9302 28.3331C16.6211 31.278 18.1862 33.9452 20.42 35.9847C16.3274 37.746 12.7689 40.5507 10.1 44.1184C9.86362 44.4336 9.69163 44.7922 9.59386 45.1739C9.49608 45.5555 9.47444 45.9527 9.53015 46.3427C9.58587 46.7327 9.71785 47.1079 9.91858 47.4469C10.1193 47.7859 10.3848 48.082 10.7 48.3184ZM66.5 15.9184C68.28 15.9184 70.0201 16.4462 71.5001 17.4352C72.9802 18.4241 74.1337 19.8297 74.8149 21.4743C75.4961 23.1188 75.6743 24.9284 75.3271 26.6742C74.9798 28.42 74.1226 30.0237 72.864 31.2824C71.6053 32.541 70.0016 33.3982 68.2558 33.7455C66.51 34.0927 64.7004 33.9145 63.0558 33.2333C61.4113 32.5521 60.0057 31.3986 59.0168 29.9185C58.0278 28.4385 57.5 26.6984 57.5 24.9184C57.5 22.5315 58.4482 20.2423 60.136 18.5544C61.8239 16.8666 64.1131 15.9184 66.5 15.9184ZM30.5 15.9184C32.28 15.9184 34.0201 16.4462 35.5001 17.4352C36.9802 18.4241 38.1337 19.8297 38.8149 21.4743C39.4961 23.1188 39.6743 24.9284 39.3271 26.6742C38.9798 28.42 38.1226 30.0237 36.864 31.2824C35.6053 32.541 34.0016 33.3982 32.2558 33.7455C30.51 34.0927 28.7004 33.9145 27.0558 33.2333C25.4113 32.5521 24.0057 31.3986 23.0168 29.9185C22.0278 28.4385 21.5 26.6984 21.5 24.9184C21.5 22.5315 22.4482 20.2423 24.136 18.5544C25.8239 16.8666 28.1131 15.9184 30.5 15.9184ZM76.625 74.9846C78.8588 72.9452 80.4239 70.278 81.1148 67.3331C81.8056 64.3883 81.59 61.3034 80.4963 58.4832C79.4026 55.6631 77.4818 53.2395 74.986 51.5306C72.4902 49.8216 69.5361 48.9071 66.5112 48.9071C63.4864 48.9071 60.5323 49.8216 58.0365 51.5306C55.5407 53.2395 53.6199 55.6631 52.5262 58.4832C51.4325 61.3034 51.2169 64.3883 51.9077 67.3331C52.5986 70.278 54.1637 72.9452 56.3975 74.9846C53.4554 76.2568 50.7827 78.0781 48.5225 80.3509C46.2623 78.0781 43.5896 76.2568 40.6475 74.9846C42.8813 72.9452 44.4464 70.278 45.1373 67.3331C45.8281 64.3883 45.6125 61.3034 44.5188 58.4832C43.4251 55.6631 41.5043 53.2395 39.0085 51.5306C36.5127 49.8216 33.5586 48.9071 30.5337 48.9071C27.5089 48.9071 24.5548 49.8216 22.059 51.5306C19.5632 53.2395 17.6424 55.6631 16.5487 58.4832C15.455 61.3034 15.2394 64.3883 15.9302 67.3331C16.6211 70.278 18.1862 72.9452 20.42 74.9846C16.3274 76.746 12.7689 79.5507 10.1 83.1184C9.86362 83.4336 9.69163 83.7922 9.59386 84.1739C9.49608 84.5555 9.47444 84.9527 9.53015 85.3427C9.58587 85.7327 9.71785 86.1079 9.91858 86.4469C10.1193 86.7859 10.3848 87.082 10.7 87.3184C11.0152 87.5548 11.3738 87.7268 11.7555 87.8245C12.1371 87.9223 12.5343 87.944 12.9243 87.8883C13.3143 87.8325 13.6895 87.7005 14.0285 87.4998C14.3675 87.2991 14.6636 87.0336 14.9 86.7184C16.7164 84.2966 19.0717 82.3309 21.7793 80.9771C24.487 79.6232 27.4727 78.9184 30.5 78.9184C33.5273 78.9184 36.513 79.6232 39.2207 80.9771C41.9283 82.3309 44.2836 84.2966 46.1 86.7184C46.5779 87.3543 47.2889 87.7744 48.0765 87.8862C48.8642 87.998 49.6639 87.7924 50.3 87.3147C50.5268 87.146 50.7276 86.9452 50.8962 86.7184C52.7126 84.2966 55.0679 82.3309 57.7756 80.9771C60.4833 79.6232 63.469 78.9184 66.4963 78.9184C69.5235 78.9184 72.5092 79.6232 75.2169 80.9771C77.9246 82.3309 80.2799 84.2966 82.0963 86.7184C82.5741 87.3549 83.2853 87.7755 84.0733 87.8877C84.8613 87.9999 85.6616 87.7944 86.2981 87.3165C86.9346 86.8386 87.3553 86.1275 87.4674 85.3395C87.5796 84.5515 87.3741 83.7512 86.8962 83.1147C84.2407 79.5546 80.6996 76.7518 76.625 74.9846ZM30.5 54.9184C32.28 54.9184 34.0201 55.4462 35.5001 56.4352C36.9802 57.4241 38.1337 58.8297 38.8149 60.4743C39.4961 62.1188 39.6743 63.9284 39.3271 65.6742C38.9798 67.42 38.1226 69.0237 36.864 70.2824C35.6053 71.541 34.0016 72.3982 32.2558 72.7455C30.51 73.0927 28.7004 72.9145 27.0558 72.2333C25.4113 71.5521 24.0057 70.3986 23.0168 68.9185C22.0278 67.4385 21.5 65.6984 21.5 63.9184C21.5 61.5315 22.4482 59.2423 24.136 57.5544C25.8239 55.8666 28.1131 54.9184 30.5 54.9184ZM66.5 54.9184C68.28 54.9184 70.0201 55.4462 71.5001 56.4352C72.9802 57.4241 74.1337 58.8297 74.8149 60.4743C75.4961 62.1188 75.6743 63.9284 75.3271 65.6742C74.9798 67.42 74.1226 69.0237 72.864 70.2824C71.6053 71.541 70.0016 72.3982 68.2558 72.7455C66.51 73.0927 64.7004 72.9145 63.0558 72.2333C61.4113 71.5521 60.0057 70.3986 59.0168 68.9185C58.0278 67.4385 57.5 65.6984 57.5 63.9184C57.5 61.5315 58.4482 59.2423 60.136 57.5544C61.8239 55.8666 64.1131 54.9184 66.5 54.9184Z" fill="black"/>
</svg>
