<svg width="80" height="80" viewBox="0 0 80 80" fill="none" xmlns="http://www.w3.org/2000/svg">
<path d="M75 41.9719V67.5C75 68.1631 74.7366 68.799 74.2678 69.2678C73.7989 69.7367 73.163 70 72.5 70H17.5C16.837 70 16.2011 69.7367 15.7322 69.2678C15.2634 68.799 15 68.1631 15 67.5V41.9719C24.1173 47.2462 34.4671 50.0159 45 50C55.533 50.0168 65.8831 47.2471 75 41.9719Z" fill="#2A8E41" fill-opacity="0.5"/>
<path d="M32.5 35C32.5 34.337 32.7634 33.7011 33.2322 33.2322C33.7011 32.7634 34.337 32.5 35 32.5H45C45.663 32.5 46.2989 32.7634 46.7678 33.2322C47.2366 33.7011 47.5 34.337 47.5 35C47.5 35.663 47.2366 36.2989 46.7678 36.7678C46.2989 37.2366 45.663 37.5 45 37.5H35C34.337 37.5 33.7011 37.2366 33.2322 36.7678C32.7634 36.2989 32.5 35.663 32.5 35ZM72.5 22.5V62.5C72.5 63.8261 71.9732 65.0979 71.0355 66.0355C70.0979 66.9732 68.8261 67.5 67.5 67.5H12.5C11.1739 67.5 9.90215 66.9732 8.96447 66.0355C8.02678 65.0979 7.5 63.8261 7.5 62.5V22.5C7.5 21.1739 8.02678 19.9021 8.96447 18.9645C9.90215 18.0268 11.1739 17.5 12.5 17.5H25V15C25 13.0109 25.7902 11.1032 27.1967 9.6967C28.6032 8.29018 30.5109 7.5 32.5 7.5H47.5C49.4891 7.5 51.3968 8.29018 52.8033 9.6967C54.2098 11.1032 55 13.0109 55 15V17.5H67.5C68.8261 17.5 70.0979 18.0268 71.0355 18.9645C71.9732 19.9021 72.5 21.1739 72.5 22.5ZM30 17.5H50V15C50 14.337 49.7366 13.7011 49.2678 13.2322C48.7989 12.7634 48.163 12.5 47.5 12.5H32.5C31.837 12.5 31.2011 12.7634 30.7322 13.2322C30.2634 13.7011 30 14.337 30 15V17.5ZM12.5 22.5V35.5063C20.9388 40.0973 30.3931 42.5017 40 42.5C49.6073 42.5017 59.0618 40.0962 67.5 35.5031V22.5H12.5ZM67.5 62.5V41.1344C58.9378 45.3229 49.5318 47.5002 40 47.5C30.4683 47.5018 21.0623 45.3256 12.5 41.1375V62.5H67.5Z" fill="black"/>
</svg>
