<svg width="97" height="97" viewBox="0 0 97 97" fill="none" xmlns="http://www.w3.org/2000/svg">
<path d="M93.5 54.9185C93.5 59.6097 86.8175 63.1497 84.995 67.5522C83.24 71.7972 85.5275 79.046 82.0775 82.496C78.6275 85.946 71.3787 83.6585 67.1338 85.4135C62.75 87.236 59.1875 93.9185 54.5 93.9185C49.8125 93.9185 46.25 87.236 41.8662 85.4135C37.6213 83.6585 30.3725 85.946 26.9225 82.496C23.4725 79.046 25.76 71.7972 24.005 67.5522C22.1825 63.1685 15.5 59.606 15.5 54.9185C15.5 50.231 22.1825 46.6685 24.005 42.2847C25.76 38.0435 23.4725 30.791 26.9225 27.341C30.3725 23.891 37.625 26.1785 41.8662 24.4235C46.2687 22.601 49.8125 15.9185 54.5 15.9185C59.1875 15.9185 62.75 22.601 67.1338 24.4235C71.3787 26.1785 78.6275 23.891 82.0775 27.341C85.5275 30.791 83.24 38.0397 84.995 42.2847C86.8175 46.6872 93.5 50.231 93.5 54.9185Z" fill="#86BA97"/>
<path d="M85.1975 39.476C83.7838 37.9985 82.3213 36.476 81.77 35.1372C81.26 33.911 81.23 31.8785 81.2 29.9097C81.1437 26.2497 81.0837 22.1022 78.2 19.2185C75.3162 16.3347 71.1688 16.2747 67.5088 16.2185C65.54 16.1885 63.5075 16.1585 62.2812 15.6485C60.9463 15.0972 59.42 13.6347 57.9425 12.221C55.355 9.73471 52.415 6.91846 48.5 6.91846C44.585 6.91846 41.6488 9.73471 39.0575 12.221C37.58 13.6347 36.0575 15.0972 34.7188 15.6485C33.5 16.1585 31.46 16.1885 29.4912 16.2185C25.8312 16.2747 21.6838 16.3347 18.8 19.2185C15.9162 22.1022 15.875 26.2497 15.8 29.9097C15.77 31.8785 15.74 33.911 15.23 35.1372C14.6787 36.4722 13.2162 37.9985 11.8025 39.476C9.31625 42.0635 6.5 45.0035 6.5 48.9185C6.5 52.8335 9.31625 55.7697 11.8025 58.361C13.2162 59.8385 14.6787 61.361 15.23 62.6997C15.74 63.926 15.77 65.9585 15.8 67.9272C15.8562 71.5872 15.9162 75.7347 18.8 78.6185C21.6838 81.5022 25.8312 81.5622 29.4912 81.6185C31.46 81.6485 33.4925 81.6785 34.7188 82.1885C36.0537 82.7397 37.58 84.2022 39.0575 85.616C41.645 88.1022 44.585 90.9185 48.5 90.9185C52.415 90.9185 55.3512 88.1022 57.9425 85.616C59.42 84.2022 60.9425 82.7397 62.2812 82.1885C63.5075 81.6785 65.54 81.6485 67.5088 81.6185C71.1688 81.5622 75.3162 81.5022 78.2 78.6185C81.0837 75.7347 81.1437 71.5872 81.2 67.9272C81.23 65.9585 81.26 63.926 81.77 62.6997C82.3213 61.3647 83.7838 59.8385 85.1975 58.361C87.6838 55.7735 90.5 52.8335 90.5 48.9185C90.5 45.0035 87.6838 42.0672 85.1975 39.476ZM80.8662 54.2097C79.07 56.0847 77.21 58.0235 76.2237 60.4047C75.2787 62.6922 75.2375 65.306 75.2 67.8372C75.1625 70.4622 75.1213 73.211 73.955 74.3735C72.7887 75.536 70.0588 75.581 67.4187 75.6185C64.8875 75.656 62.2738 75.6972 59.9863 76.6422C57.605 77.6285 55.6663 79.4885 53.7913 81.2847C51.9163 83.081 50 84.9185 48.5 84.9185C47 84.9185 45.0687 83.0735 43.2087 81.2847C41.3488 79.496 39.395 77.6285 37.0138 76.6422C34.7263 75.6972 32.1125 75.656 29.5813 75.6185C26.9563 75.581 24.2075 75.5397 23.045 74.3735C21.8825 73.2072 21.8375 70.4772 21.8 67.8372C21.7625 65.306 21.7212 62.6922 20.7762 60.4047C19.79 58.0235 17.93 56.0847 16.1337 54.2097C14.3375 52.3347 12.5 50.4185 12.5 48.9185C12.5 47.4185 14.345 45.4872 16.1337 43.6272C17.9225 41.7672 19.79 39.8135 20.7762 37.4322C21.7212 35.1447 21.7625 32.531 21.8 29.9997C21.8375 27.3747 21.8787 24.626 23.045 23.4635C24.2113 22.301 26.9413 22.256 29.5813 22.2185C32.1125 22.181 34.7263 22.1397 37.0138 21.1947C39.395 20.2085 41.3337 18.3485 43.2087 16.5522C45.0837 14.756 47 12.9185 48.5 12.9185C50 12.9185 51.9313 14.7635 53.7913 16.5522C55.6512 18.341 57.605 20.2085 59.9863 21.1947C62.2738 22.1397 64.8875 22.181 67.4187 22.2185C70.0437 22.256 72.7925 22.2972 73.955 23.4635C75.1175 24.6297 75.1625 27.3597 75.2 29.9997C75.2375 32.531 75.2787 35.1447 76.2237 37.4322C77.21 39.8135 79.07 41.7522 80.8662 43.6272C82.6625 45.5022 84.5 47.4185 84.5 48.9185C84.5 50.4185 82.655 52.3497 80.8662 54.2097ZM65.6225 37.796C65.9014 38.0746 66.1227 38.4054 66.2737 38.7696C66.4247 39.1338 66.5024 39.5242 66.5024 39.9185C66.5024 40.3127 66.4247 40.7031 66.2737 41.0673C66.1227 41.4315 65.9014 41.7623 65.6225 42.041L44.6225 63.041C44.3439 63.3199 44.013 63.5412 43.6488 63.6921C43.2846 63.8431 42.8942 63.9208 42.5 63.9208C42.1058 63.9208 41.7154 63.8431 41.3512 63.6921C40.987 63.5412 40.6561 63.3199 40.3775 63.041L31.3775 54.041C30.8146 53.478 30.4983 52.7146 30.4983 51.9185C30.4983 51.1224 30.8146 50.3589 31.3775 49.796C31.9404 49.233 32.7039 48.9168 33.5 48.9168C34.2961 48.9168 35.0596 49.233 35.6225 49.796L42.5 56.6772L61.3775 37.796C61.6561 37.517 61.987 37.2958 62.3512 37.1448C62.7154 36.9938 63.1058 36.9161 63.5 36.9161C63.8942 36.9161 64.2846 36.9938 64.6488 37.1448C65.013 37.2958 65.3439 37.517 65.6225 37.796Z" fill="black"/>
</svg>
