<svg width="120" height="120" viewBox="0 0 120 120" fill="none" xmlns="http://www.w3.org/2000/svg">
<rect opacity="0.2" width="120" height="120" rx="16" fill="#32A74D"/>
<path d="M92.5 40V52.5H37.5V40C37.5 39.337 37.7634 38.7011 38.2322 38.2322C38.7011 37.7634 39.337 37.5 40 37.5H90C90.663 37.5 91.2989 37.7634 91.7678 38.2322C92.2366 38.7011 92.5 39.337 92.5 40Z" fill="#86BA97"/>
<path d="M85 30H77.5V27.5C77.5 26.837 77.2366 26.2011 76.7678 25.7322C76.2989 25.2634 75.663 25 75 25C74.337 25 73.7011 25.2634 73.2322 25.7322C72.7634 26.2011 72.5 26.837 72.5 27.5V30H47.5V27.5C47.5 26.837 47.2366 26.2011 46.7678 25.7322C46.2989 25.2634 45.663 25 45 25C44.337 25 43.7011 25.2634 43.2322 25.7322C42.7634 26.2011 42.5 26.837 42.5 27.5V30H35C33.6739 30 32.4021 30.5268 31.4645 31.4645C30.5268 32.4021 30 33.6739 30 35V85C30 86.3261 30.5268 87.5979 31.4645 88.5355C32.4021 89.4732 33.6739 90 35 90H85C86.3261 90 87.5979 89.4732 88.5355 88.5355C89.4732 87.5979 90 86.3261 90 85V35C90 33.6739 89.4732 32.4021 88.5355 31.4645C87.5979 30.5268 86.3261 30 85 30ZM42.5 35V37.5C42.5 38.163 42.7634 38.7989 43.2322 39.2678C43.7011 39.7366 44.337 40 45 40C45.663 40 46.2989 39.7366 46.7678 39.2678C47.2366 38.7989 47.5 38.163 47.5 37.5V35H72.5V37.5C72.5 38.163 72.7634 38.7989 73.2322 39.2678C73.7011 39.7366 74.337 40 75 40C75.663 40 76.2989 39.7366 76.7678 39.2678C77.2366 38.7989 77.5 38.163 77.5 37.5V35H85V45H35V35H42.5ZM85 85H35V50H85V85ZM73.0188 58.2312C73.2512 58.4634 73.4356 58.7392 73.5614 59.0426C73.6872 59.3461 73.752 59.6715 73.752 60C73.752 60.3285 73.6872 60.6539 73.5614 60.9574C73.4356 61.2608 73.2512 61.5366 73.0188 61.7688L58.0188 76.7688C57.7866 77.0012 57.5108 77.1856 57.2074 77.3114C56.9039 77.4372 56.5785 77.502 56.25 77.502C55.9215 77.502 55.5961 77.4372 55.2926 77.3114C54.9892 77.1856 54.7134 77.0012 54.4812 76.7688L46.9812 69.2688C46.5121 68.7996 46.2486 68.1634 46.2486 67.5C46.2486 66.8366 46.5121 66.2004 46.9812 65.7312C47.4504 65.2621 48.0866 64.9986 48.75 64.9986C49.4134 64.9986 50.0496 65.2621 50.5188 65.7312L56.25 71.4656L69.4812 58.2312C69.7134 57.9988 69.9892 57.8144 70.2926 57.6886C70.5961 57.5628 70.9215 57.498 71.25 57.498C71.5785 57.498 71.9039 57.5628 72.2074 57.6886C72.5108 57.8144 72.7866 57.9988 73.0188 58.2312Z" fill="black"/>
</svg>
