<svg width="60" height="62" viewBox="0 0 60 62" fill="none" xmlns="http://www.w3.org/2000/svg">
<rect width="60" height="62" rx="8" fill="#F4F4F4"/>
<path d="M30 18C29.7348 18 29.4804 18.1054 29.2929 18.2929C29.1053 18.4804 29 18.7348 29 19V26C29 26.2652 29.1053 26.5196 29.2929 26.7071C29.4804 26.8946 29.7348 27 30 27C30.8805 27.0002 31.7363 27.2909 32.4347 27.8271C33.1332 28.3632 33.6352 29.1148 33.863 29.9654C34.0907 30.8159 34.0315 31.7178 33.6944 32.5313C33.3573 33.3447 32.7613 34.0242 31.9987 34.4643C31.2361 34.9045 30.3496 35.0807 29.4766 34.9657C28.6037 34.8507 27.7931 34.4509 27.1705 33.8283C26.5479 33.2056 26.1482 32.395 26.0333 31.522C25.9184 30.649 26.0947 29.7625 26.535 29C26.6007 28.8862 26.6433 28.7607 26.6604 28.6304C26.6776 28.5002 26.6689 28.3679 26.6349 28.241C26.6009 28.1141 26.5422 27.9952 26.4622 27.891C26.3822 27.7868 26.2825 27.6994 26.1687 27.6337L20.1062 24.1337C19.9925 24.0681 19.8669 24.0254 19.7367 24.0083C19.6064 23.9911 19.4741 23.9998 19.3472 24.0338C19.2204 24.0678 19.1014 24.1265 18.9972 24.2065C18.893 24.2865 18.8056 24.3862 18.74 24.5C17.3091 26.9783 16.736 29.8594 17.1095 32.6966C17.483 35.5338 18.7822 38.1685 20.8056 40.1921C22.8291 42.2157 25.4637 43.515 28.3008 43.8887C31.138 44.2624 34.0192 43.6894 36.4976 42.2587C38.976 40.8281 40.913 38.6196 42.0083 35.9758C43.1037 33.3321 43.2961 30.4008 42.5557 27.6366C41.8153 24.8723 40.1835 22.4296 37.9134 20.6873C35.6432 18.945 32.8617 18.0004 30 18ZM20.0112 26.3875L24.375 28.9075C24.1267 29.5772 23.9997 30.2858 24 31C24 31.1912 24.01 31.375 24.0275 31.565L19.16 32.875C18.7804 30.6762 19.0772 28.4139 20.0112 26.3875ZM19.6775 34.8013L24.5525 33.4963C24.9601 34.3847 25.5781 35.1604 26.3531 35.7561C27.1281 36.3518 28.0366 36.7496 29 36.915V41.9538C26.9298 41.7619 24.956 40.9885 23.3065 39.7229C21.6569 38.4574 20.3989 36.7512 19.6775 34.8013ZM31 41.9538V36.915C32.3975 36.6781 33.666 35.9541 34.5807 34.8713C35.4955 33.7885 35.9973 32.4168 35.9973 30.9994C35.9973 29.5819 35.4955 28.2102 34.5807 27.1274C33.666 26.0446 32.3975 25.3206 31 25.0837V20.045C33.7327 20.2947 36.2735 21.5567 38.1235 23.5835C39.9735 25.6102 40.9991 28.2553 40.9991 30.9994C40.9991 33.7435 39.9735 36.3885 38.1235 38.4153C36.2735 40.442 33.7327 41.7041 31 41.9538Z" fill="black"/>
</svg>
