<svg width="60" height="60" viewBox="0 0 60 60" fill="none" xmlns="http://www.w3.org/2000/svg"><g clip-path="url(#clip0_396_76)"><path d="M60.75 34.5C60.75 39.4728 58.7746 44.2419 55.2583 47.7582C51.742 51.2745 46.9729 53.25 42 53.25H21.375C19.514 53.2477 17.6747 52.8496 15.9793 52.0823C14.2838 51.3149 12.7709 50.1957 11.541 48.799C10.3111 47.4023 9.39228 45.7601 8.8455 43.9812C8.29872 42.2023 8.1365 40.3274 8.3696 38.4811C8.6027 36.6347 9.22579 34.859 10.1975 33.2718C11.1693 31.6846 12.4674 30.3222 14.0059 29.275C15.5443 28.2278 17.2879 27.5198 19.1209 27.1979C20.9539 26.8759 22.8343 26.9475 24.6375 27.4078V27.4312C26.2783 23.4068 29.2661 20.0773 33.0901 18.0121C36.9141 15.9468 41.3368 15.2741 45.6019 16.109C49.867 16.9439 53.7096 19.2344 56.4727 22.589C59.2358 25.9436 60.7478 30.1539 60.75 34.5Z" fill="#86BA97"/><path d="M37.5 9.375C33.6696 9.37794 29.9155 10.4464 26.6576 12.4609C23.3997 14.4754 20.7664 17.3565 19.0523 20.782C17.0132 20.4846 14.9346 20.6106 12.9463 21.1521C10.9579 21.6935 9.10252 22.6389 7.49572 23.9291C5.88892 25.2194 4.56521 26.8269 3.60717 28.6514C2.64912 30.4759 2.07729 32.4782 1.92734 34.5335C1.77739 36.5888 2.05253 38.6529 2.73561 40.5971C3.41869 42.5413 4.49505 44.324 5.89756 45.8338C7.30006 47.3436 8.99863 48.5483 10.8873 49.3726C12.776 50.1969 14.8142 50.6233 16.875 50.625H37.5C42.9701 50.625 48.2161 48.452 52.0841 44.5841C55.952 40.7161 58.125 35.4701 58.125 30C58.125 24.5299 55.952 19.2839 52.0841 15.4159C48.2161 11.548 42.9701 9.375 37.5 9.375ZM37.5 46.875H16.875C13.8913 46.875 11.0298 45.6897 8.92002 43.58C6.81024 41.4702 5.62498 38.6087 5.62498 35.625C5.62498 32.6413 6.81024 29.7798 8.92002 27.67C11.0298 25.5603 13.8913 24.375 16.875 24.375C17.1328 24.375 17.3906 24.375 17.6461 24.4008C17.1333 26.223 16.8738 28.1071 16.875 30C16.875 30.4973 17.0725 30.9742 17.4242 31.3258C17.7758 31.6775 18.2527 31.875 18.75 31.875C19.2473 31.875 19.7242 31.6775 20.0758 31.3258C20.4274 30.9742 20.625 30.4973 20.625 30C20.625 26.6624 21.6147 23.3998 23.4689 20.6248C25.3232 17.8497 27.9587 15.6868 31.0422 14.4095C34.1257 13.1323 37.5187 12.7981 40.7921 13.4492C44.0656 14.1004 47.0724 15.7076 49.4324 18.0676C51.7924 20.4276 53.3996 23.4344 54.0507 26.7079C54.7019 29.9813 54.3677 33.3743 53.0904 36.4578C51.8132 39.5413 49.6503 42.1768 46.8752 44.0311C44.1001 45.8853 40.8375 46.875 37.5 46.875ZM46.3265 24.9234C46.5009 25.0976 46.6392 25.3044 46.7335 25.532C46.8279 25.7596 46.8765 26.0036 46.8765 26.25C46.8765 26.4964 46.8279 26.7404 46.7335 26.968C46.6392 27.1956 46.5009 27.4024 46.3265 27.5766L35.0765 38.8266C34.9024 39.0009 34.6956 39.1392 34.468 39.2336C34.2404 39.3279 33.9964 39.3765 33.75 39.3765C33.5036 39.3765 33.2596 39.3279 33.032 39.2336C32.8043 39.1392 32.5976 39.0009 32.4234 38.8266L26.7984 33.2016C26.4466 32.8497 26.2489 32.3726 26.2489 31.875C26.2489 31.3774 26.4466 30.9003 26.7984 30.5484C27.1502 30.1966 27.6274 29.999 28.125 29.999C28.6225 29.999 29.0997 30.1966 29.4515 30.5484L33.75 34.8492L43.6734 24.9234C43.8476 24.7491 44.0543 24.6108 44.282 24.5165C44.5096 24.4221 44.7536 24.3735 45 24.3735C45.2464 24.3735 45.4904 24.4221 45.718 24.5165C45.9456 24.6108 46.1524 24.7491 46.3265 24.9234Z" fill="black"/></g><defs><clipPath id="clip0_396_76"><rect width="60" height="60" fill="white"/></clipPath></defs></svg>