<svg width="80" height="80" viewBox="0 0 80 80" fill="none" xmlns="http://www.w3.org/2000/svg">
<path d="M75 22.5V60C75 60.663 74.7366 61.2989 74.2678 61.7678C73.7989 62.2366 73.163 62.5 72.5 62.5H17.5C16.837 62.5 16.2011 62.2366 15.7322 61.7678C15.2634 61.2989 15 60.663 15 60V22.5C15 21.837 15.2634 21.2011 15.7322 20.7322C16.2011 20.2634 16.837 20 17.5 20H72.5C73.163 20 73.7989 20.2634 74.2678 20.7322C74.7366 21.2011 75 21.837 75 22.5Z" fill="#2A8E41" fill-opacity="0.5"/>
<path d="M67.5 12.5H42.5V7.5C42.5 6.83696 42.2366 6.20107 41.7678 5.73223C41.2989 5.26339 40.663 5 40 5C39.337 5 38.7011 5.26339 38.2322 5.73223C37.7634 6.20107 37.5 6.83696 37.5 7.5V12.5H12.5C11.1739 12.5 9.90215 13.0268 8.96447 13.9645C8.02678 14.9021 7.5 16.1739 7.5 17.5V55C7.5 56.3261 8.02678 57.5979 8.96447 58.5355C9.90215 59.4732 11.1739 60 12.5 60H24.8L18.0469 68.4375C17.6325 68.9555 17.4408 69.6169 17.5141 70.2762C17.5873 70.9355 17.9195 71.5387 18.4375 71.9531C18.9555 72.3675 19.6169 72.5592 20.2762 72.4859C20.9355 72.4127 21.5387 72.0805 21.9531 71.5625L31.2 60H48.8L58.0469 71.5625C58.2521 71.819 58.5058 72.0325 58.7935 72.191C59.0812 72.3494 59.3973 72.4497 59.7238 72.4859C60.0502 72.5222 60.3806 72.4938 60.6961 72.4024C61.0116 72.311 61.306 72.1583 61.5625 71.9531C61.819 71.7479 62.0326 71.4942 62.191 71.2065C62.3494 70.9188 62.4496 70.6027 62.4859 70.2762C62.5222 69.9498 62.4938 69.6194 62.4024 69.3039C62.311 68.9884 62.1583 68.694 61.9531 68.4375L55.2 60H67.5C68.8261 60 70.0979 59.4732 71.0355 58.5355C71.9732 57.5979 72.5 56.3261 72.5 55V17.5C72.5 16.1739 71.9732 14.9021 71.0355 13.9645C70.0979 13.0268 68.8261 12.5 67.5 12.5ZM67.5 55H12.5V17.5H67.5V55ZM32.5 37.5V45C32.5 45.663 32.2366 46.2989 31.7678 46.7678C31.2989 47.2366 30.663 47.5 30 47.5C29.337 47.5 28.7011 47.2366 28.2322 46.7678C27.7634 46.2989 27.5 45.663 27.5 45V37.5C27.5 36.837 27.7634 36.2011 28.2322 35.7322C28.7011 35.2634 29.337 35 30 35C30.663 35 31.2989 35.2634 31.7678 35.7322C32.2366 36.2011 32.5 36.837 32.5 37.5ZM42.5 32.5V45C42.5 45.663 42.2366 46.2989 41.7678 46.7678C41.2989 47.2366 40.663 47.5 40 47.5C39.337 47.5 38.7011 47.2366 38.2322 46.7678C37.7634 46.2989 37.5 45.663 37.5 45V32.5C37.5 31.837 37.7634 31.2011 38.2322 30.7322C38.7011 30.2634 39.337 30 40 30C40.663 30 41.2989 30.2634 41.7678 30.7322C42.2366 31.2011 42.5 31.837 42.5 32.5ZM52.5 27.5V45C52.5 45.663 52.2366 46.2989 51.7678 46.7678C51.2989 47.2366 50.663 47.5 50 47.5C49.337 47.5 48.7011 47.2366 48.2322 46.7678C47.7634 46.2989 47.5 45.663 47.5 45V27.5C47.5 26.837 47.7634 26.2011 48.2322 25.7322C48.7011 25.2634 49.337 25 50 25C50.663 25 51.2989 25.2634 51.7678 25.7322C52.2366 26.2011 52.5 26.837 52.5 27.5Z" fill="black"/>
</svg>
