<svg width="120" height="120" viewBox="0 0 120 120" fill="none" xmlns="http://www.w3.org/2000/svg">
<rect opacity="0.2" width="120" height="120" rx="16" fill="#32A74D"/>
<g clip-path="url(#clip0_142_128)">
<path d="M101 66C101 72.6304 98.3661 78.9893 93.6777 83.6777C88.9893 88.3661 82.6304 91 76 91H48.5C46.0186 90.997 43.5663 90.4662 41.3057 89.4431C39.0451 88.4199 37.0279 86.9277 35.388 85.0654C33.7481 83.2032 32.523 81.0135 31.794 78.6416C31.0649 76.2697 30.8486 73.7699 31.1594 71.3081C31.4702 68.8463 32.301 66.4787 33.5967 64.3624C34.8923 62.2462 36.6232 60.4297 38.6745 59.0334C40.7257 57.6371 43.0505 56.6931 45.4945 56.2638C47.9384 55.8346 50.4457 55.93 52.85 56.5438V56.575C55.0377 51.2091 59.0214 46.7698 64.1201 44.0161C69.2187 41.2625 75.1156 40.3656 80.8024 41.4787C86.4893 42.5919 91.6128 45.6459 95.2969 50.1188C98.981 54.5916 100.997 60.2053 101 66Z" fill="#2A8E41" fill-opacity="0.5"/>
<path d="M75.7313 71.7688L70 66.0344V85C70 85.663 69.7366 86.2989 69.2678 86.7678C68.7989 87.2366 68.1631 87.5 67.5 87.5C66.837 87.5 66.2011 87.2366 65.7323 86.7678C65.2634 86.2989 65 85.663 65 85V66.0344L59.2688 71.7688C59.0365 72.001 58.7607 72.1853 58.4573 72.311C58.1538 72.4367 57.8285 72.5014 57.5 72.5014C57.1715 72.5014 56.8463 72.4367 56.5428 72.311C56.2393 72.1853 55.9635 72.001 55.7313 71.7688C55.499 71.5365 55.3147 71.2607 55.189 70.9572C55.0633 70.6538 54.9986 70.3285 54.9986 70C54.9986 69.6715 55.0633 69.3462 55.189 69.0428C55.3147 68.7393 55.499 68.4635 55.7313 68.2312L65.7313 58.2312C65.9635 57.9988 66.2392 57.8144 66.5427 57.6886C66.8462 57.5628 67.1715 57.498 67.5 57.498C67.8286 57.498 68.1539 57.5628 68.4574 57.6886C68.7609 57.8144 69.0366 57.9988 69.2688 58.2312L79.2688 68.2312C79.501 68.4635 79.6853 68.7393 79.811 69.0428C79.9367 69.3462 80.0014 69.6715 80.0014 70C80.0014 70.3285 79.9367 70.6538 79.811 70.9572C79.6853 71.2607 79.501 71.5365 79.2688 71.7688C79.0365 72.001 78.7607 72.1853 78.4573 72.311C78.1538 72.4367 77.8285 72.5014 77.5 72.5014C77.1715 72.5014 76.8463 72.4367 76.5428 72.311C76.2393 72.1853 75.9635 72.001 75.7313 71.7688ZM70 32.5C64.8924 32.5039 59.8866 33.9288 55.5426 36.6154C51.1986 39.302 47.6879 43.1444 45.4031 47.7125C42.6829 47.3128 39.9095 47.4782 37.256 48.1985C34.6026 48.9188 32.1262 50.1784 29.9814 51.8987C27.8367 53.6191 26.0697 55.7631 24.7908 58.197C23.5119 60.6309 22.7485 63.3024 22.5485 66.0446C22.3484 68.7867 22.7158 71.5407 23.6279 74.1345C24.5399 76.7282 25.977 79.1061 27.8493 81.1195C29.7216 83.133 31.989 84.7387 34.5097 85.8365C37.0305 86.9344 39.7506 87.5006 42.5 87.5H55C55.6631 87.5 56.2989 87.2366 56.7678 86.7678C57.2366 86.2989 57.5 85.663 57.5 85C57.5 84.337 57.2366 83.7011 56.7678 83.2322C56.2989 82.7634 55.6631 82.5 55 82.5H42.5C38.5218 82.5 34.7065 80.9197 31.8934 78.1066C29.0804 75.2936 27.5 71.4782 27.5 67.5C27.5 63.5218 29.0804 59.7064 31.8934 56.8934C34.7065 54.0804 38.5218 52.5 42.5 52.5C42.8438 52.5 43.1875 52.5 43.5281 52.5375C42.8447 54.9661 42.4988 57.4771 42.5 60C42.5 60.663 42.7634 61.2989 43.2323 61.7678C43.7011 62.2366 44.337 62.5 45 62.5C45.6631 62.5 46.2989 62.2366 46.7678 61.7678C47.2366 61.2989 47.5 60.663 47.5 60C47.5006 55.9436 48.5978 51.9629 50.6755 48.479C52.7532 44.9951 55.734 42.1376 59.3026 40.2091C62.8712 38.2805 66.8948 37.3525 70.9476 37.5234C75.0003 37.6942 78.9316 38.9575 82.3252 41.1795C85.7188 43.4015 88.4487 46.4996 90.2258 50.146C92.0029 53.7924 92.7612 57.8514 92.4205 61.8934C92.0798 65.9355 90.6526 69.8102 88.2902 73.1076C85.9277 76.405 82.7178 79.0024 79 80.625C78.4721 80.8538 78.0393 81.2578 77.7746 81.7686C77.5099 82.2795 77.4295 82.866 77.547 83.4293C77.6645 83.9925 77.9727 84.498 78.4196 84.8604C78.8664 85.2229 79.4247 85.4201 80 85.4187C80.3445 85.4185 80.6852 85.3461 81 85.2063C86.7917 82.6799 91.5367 78.2361 94.4369 72.6223C97.3372 67.0084 98.2157 60.5671 96.9248 54.3817C95.6338 48.1963 92.2522 42.6441 87.3486 38.6589C82.4451 34.6738 76.3187 32.4989 70 32.5Z" fill="black"/>
</g>
<defs>
<clipPath id="clip0_142_128">
<rect width="80" height="80" fill="white" transform="translate(20 20)"/>
</clipPath>
</defs>
</svg>
