<svg width="120" height="120" viewBox="0 0 120 120" fill="none" xmlns="http://www.w3.org/2000/svg">
<rect opacity="0.2" width="120" height="120" rx="16" fill="#32A74D"/>
<path d="M76.2312 50.0344C75.8219 50 75.4125 50 75 50C71.4037 49.9998 67.8596 50.8616 64.665 52.5132C61.4703 54.1649 58.7182 56.5583 56.6391 59.4927C54.56 62.4272 53.2147 65.8173 52.7158 69.3789C52.217 72.9405 52.5791 76.5698 53.7719 79.9626C50.4922 79.7879 47.2913 78.8927 44.3969 77.3407L35.7219 79.8907C35.2911 80.0172 34.8342 80.0253 34.3992 79.9143C33.9642 79.8033 33.5671 79.5772 33.2497 79.2597C32.9322 78.9423 32.7061 78.5452 32.5951 78.1102C32.4841 77.6752 32.4922 77.2183 32.6187 76.7875L35.1562 68.125C33.7089 65.393 32.8401 62.3921 32.6041 59.3093C32.3681 56.2266 32.7699 53.1284 33.7845 50.2079C34.7992 47.2874 36.4048 44.6073 38.5012 42.3349C40.5977 40.0626 43.1399 38.2466 45.9694 37.0005C48.7989 35.7543 51.8548 35.1046 54.9465 35.092C58.0382 35.0794 61.0993 35.704 63.9389 36.927C66.7784 38.15 69.3354 39.9451 71.4504 42.2003C73.5653 44.4555 75.1928 47.1223 76.2312 50.0344Z" fill="#86BA97"/>
<path d="M65 63.7501C65 64.4917 64.7801 65.2168 64.368 65.8335C63.956 66.4501 63.3703 66.9308 62.6851 67.2146C61.9998 67.4984 61.2458 67.5727 60.5184 67.428C59.791 67.2833 59.1228 66.9262 58.5984 66.4017C58.0739 65.8773 57.7168 65.2091 57.5721 64.4817C57.4274 63.7542 57.5016 63.0002 57.7855 62.315C58.0693 61.6298 58.5499 61.0441 59.1666 60.6321C59.7833 60.22 60.5083 60.0001 61.25 60.0001C62.2446 60.0001 63.1984 60.3952 63.9016 61.0984C64.6049 61.8017 65 62.7555 65 63.7501ZM78.75 60.0001C78.0083 60.0001 77.2833 60.22 76.6666 60.6321C76.0499 61.0441 75.5693 61.6298 75.2855 62.315C75.0016 63.0002 74.9274 63.7542 75.0721 64.4817C75.2167 65.2091 75.5739 65.8773 76.0984 66.4017C76.6228 66.9262 77.291 67.2833 78.0184 67.428C78.7458 67.5727 79.4998 67.4984 80.1851 67.2146C80.8703 66.9308 81.456 66.4501 81.868 65.8335C82.2801 65.2168 82.5 64.4917 82.5 63.7501C82.5 62.7555 82.1049 61.8017 81.4016 61.0984C80.6984 60.3952 79.7446 60.0001 78.75 60.0001ZM94.7937 86.0844C95.0478 86.9465 95.0647 87.861 94.8429 88.7319C94.6211 89.6028 94.1686 90.3978 93.5332 91.0332C92.8977 91.6687 92.1027 92.1211 91.2318 92.343C90.361 92.5648 89.4464 92.5478 88.5844 92.2938L80.8625 90.0219C77.8183 91.4901 74.5081 92.3258 71.1319 92.4785C67.7556 92.6313 64.3834 92.0978 61.2192 90.9104C58.0549 89.7231 55.1642 87.9064 52.7219 85.5703C50.2795 83.2342 48.3362 80.4272 47.0094 77.3188C44.2757 76.9974 41.6151 76.221 39.1375 75.0219L31.4156 77.2938C30.5536 77.5478 29.639 77.5648 28.7682 77.343C27.8973 77.1211 27.1023 76.6687 26.4668 76.0332C25.8314 75.3978 25.3789 74.6028 25.1571 73.7319C24.9353 72.861 24.9522 71.9465 25.2063 71.0844L27.4781 63.3626C26.0533 60.3646 25.2397 57.1129 25.0849 53.7972C24.9301 50.4815 25.4371 47.1682 26.5763 44.0505C27.7156 40.9328 29.4643 38.0732 31.7205 35.6386C33.9766 33.2039 36.695 31.2429 39.7171 29.8699C42.7391 28.497 46.0044 27.7396 49.3222 27.6419C52.6401 27.5443 55.9442 28.1083 59.0418 29.3012C62.1394 30.494 64.9684 32.2918 67.3638 34.5896C69.7592 36.8874 71.6731 39.6392 72.9938 42.6844C76.9425 43.1603 80.7208 44.5714 84.0147 46.8006C87.3086 49.0298 90.0231 52.0128 91.9327 55.5017C93.8424 58.9906 94.892 62.8848 94.9945 66.8608C95.0969 70.8368 94.2493 74.7799 92.5219 78.3626L94.7937 86.0844ZM45.4063 71.9688C44.7879 68.5821 44.8763 65.1042 45.6657 61.7533C46.4552 58.4023 47.9288 55.2507 49.994 52.4963C52.0591 49.7418 54.6714 47.444 57.6667 45.7469C60.662 44.0498 63.9758 42.9902 67.4 42.6344C66.1327 40.3336 64.4247 38.305 62.3735 36.6643C60.3222 35.0236 57.9678 33.803 55.4448 33.0721C50.3494 31.5962 44.8764 32.2048 40.2297 34.7641C35.583 37.3235 32.1433 41.6239 30.6674 46.7193C29.1914 51.8147 29.8 57.2878 32.3594 61.9344C32.6672 62.5098 32.7378 63.1827 32.5563 63.8094L30 72.5001L38.675 69.9469C39.3017 69.7654 39.9746 69.836 40.55 70.1438C42.0818 70.9622 43.7146 71.5758 45.4063 71.9688ZM87.6406 76.9344C89.9022 72.705 90.5685 67.8037 89.5182 63.124C88.4679 58.4443 85.771 54.2979 81.9189 51.4405C78.0669 48.5832 73.3163 47.2052 68.5332 47.5579C63.75 47.9105 59.2529 49.9702 55.8615 53.3616C52.4702 56.753 50.4104 61.2501 50.0578 66.0332C49.7052 70.8164 51.0831 75.5669 53.9405 79.419C56.7978 83.271 60.9443 85.968 65.6239 87.0183C70.3036 88.0686 75.2049 87.4022 79.4344 85.1407C80.0097 84.8329 80.6826 84.7622 81.3094 84.9438L90 87.5001L87.4469 78.8251C87.2601 78.1939 87.3297 77.5146 87.6406 76.9344Z" fill="black"/>
</svg>
