<svg width="60" height="60" viewBox="0 0 60 60" fill="none" xmlns="http://www.w3.org/2000/svg">
<path d="M53.25 28.8751C53.2525 31.7161 52.6083 34.5204 51.3661 37.0754C50.1239 39.6305 48.3164 41.8692 46.0805 43.622C45.3977 44.1512 44.8443 44.8288 44.4622 45.6036C44.08 46.3784 43.8793 47.23 43.875 48.0938V49.5001C43.875 49.9974 43.6775 50.4743 43.3259 50.8259C42.9742 51.1775 42.4973 51.3751 42 51.3751H27C26.5028 51.3751 26.0258 51.1775 25.6742 50.8259C25.3226 50.4743 25.125 49.9974 25.125 49.5001V48.0938C25.1241 47.2347 24.9274 46.3871 24.5497 45.6155C24.172 44.8438 23.6233 44.1684 22.9454 43.6407C20.7164 41.8995 18.911 39.6758 17.6648 37.1366C16.4185 34.5975 15.7639 31.809 15.75 28.9806C15.6938 18.8181 23.8875 10.3595 34.0477 10.1251C36.5478 10.0648 39.0347 10.5052 41.362 11.4204C43.6893 12.3356 45.8101 13.7072 47.5993 15.4543C49.3886 17.2015 50.8103 19.2889 51.7808 21.5937C52.7512 23.8986 53.2508 26.3743 53.25 28.8751Z" fill="#86BA97"/>
<path d="M41.2499 54.3749C41.2499 54.8722 41.0524 55.3491 40.7008 55.7007C40.3491 56.0523 39.8722 56.2499 39.3749 56.2499H20.6249C20.1277 56.2499 19.6507 56.0523 19.2991 55.7007C18.9475 55.3491 18.7499 54.8722 18.7499 54.3749C18.7499 53.8776 18.9475 53.4007 19.2991 53.0491C19.6507 52.6974 20.1277 52.4999 20.6249 52.4999H39.3749C39.8722 52.4999 40.3491 52.6974 40.7008 53.0491C41.0524 53.4007 41.2499 53.8776 41.2499 54.3749ZM50.6249 24.3749C50.633 27.5006 49.9269 30.5869 48.5605 33.3981C47.194 36.2094 45.2034 38.6713 42.7406 40.596C42.2801 40.949 41.9063 41.4026 41.648 41.9221C41.3896 42.4417 41.2535 43.0134 41.2499 43.5936V44.9999C41.2499 45.9944 40.8549 46.9483 40.1516 47.6515C39.4483 48.3548 38.4945 48.7499 37.4999 48.7499H22.4999C21.5054 48.7499 20.5516 48.3548 19.8483 47.6515C19.145 46.9483 18.7499 45.9944 18.7499 44.9999V43.5936C18.7496 43.0203 18.6177 42.4548 18.3646 41.9404C18.1115 41.426 17.7438 40.9765 17.2898 40.6264C14.8334 38.7134 12.8443 36.2666 11.4731 33.4714C10.1018 30.6761 9.38435 27.6055 9.37494 24.4921C9.314 13.3194 18.3421 4.01941 29.5031 3.74988C32.2531 3.68361 34.9886 4.16813 37.5486 5.17492C40.1086 6.18172 42.4413 7.69044 44.4094 9.61228C46.3776 11.5341 47.9414 13.8303 49.0088 16.3656C50.0762 18.9008 50.6257 21.624 50.6249 24.3749ZM46.8749 24.3749C46.8756 22.1241 46.426 19.8959 45.5525 17.8215C44.6791 15.7471 43.3995 13.8684 41.7891 12.2959C40.1786 10.7235 38.2699 9.48911 36.1752 8.66545C34.0805 7.84179 31.8423 7.44549 29.5921 7.49988C20.4515 7.71551 13.0757 15.3257 13.1249 24.4663C13.1333 27.013 13.7209 29.5244 14.8433 31.8105C15.9656 34.0966 17.5933 36.0975 19.6031 37.6616C20.5064 38.3639 21.2372 39.2636 21.7393 40.2917C22.2414 41.3199 22.5016 42.4494 22.4999 43.5936V44.9999H28.1249V34.5257L21.1734 27.5764C20.8216 27.2246 20.6239 26.7474 20.6239 26.2499C20.6239 25.7523 20.8216 25.2751 21.1734 24.9233C21.5252 24.5715 22.0024 24.3738 22.4999 24.3738C22.9975 24.3738 23.4747 24.5715 23.8265 24.9233L29.9999 31.0991L36.1734 24.9233C36.3476 24.7491 36.5544 24.6109 36.782 24.5166C37.0096 24.4224 37.2536 24.3738 37.4999 24.3738C37.7463 24.3738 37.9903 24.4224 38.2179 24.5166C38.4455 24.6109 38.6523 24.7491 38.8265 24.9233C39.0007 25.0975 39.1389 25.3043 39.2332 25.532C39.3275 25.7596 39.376 26.0035 39.376 26.2499C39.376 26.4962 39.3275 26.7402 39.2332 26.9678C39.1389 27.1954 39.0007 27.4022 38.8265 27.5764L31.8749 34.5257V44.9999H37.4999V43.5936C37.502 42.446 37.7664 41.3141 38.273 40.2844C38.7795 39.2546 39.5148 38.3543 40.4226 37.6522C42.4384 36.0768 44.0677 34.0617 45.1859 31.7606C46.3042 29.4595 46.8819 26.9333 46.8749 24.3749Z" fill="black"/>
</svg>
