<svg width="60" height="60" viewBox="0 0 60 60" fill="none" xmlns="http://www.w3.org/2000/svg">
<path d="M55.125 21.375V45.75H13.875V21.375C13.875 20.3804 14.2701 19.4266 14.9733 18.7233C15.6766 18.0201 16.6304 17.625 17.625 17.625H51.375C52.3696 17.625 53.3234 18.0201 54.0266 18.7233C54.7299 19.4266 55.125 20.3804 55.125 21.375Z" fill="#86BA97"/>
<path d="M54.375 39.375H52.5V16.875C52.5 15.3832 51.9074 13.9524 50.8525 12.8975C49.7976 11.8426 48.3668 11.25 46.875 11.25H13.125C11.6332 11.25 10.2024 11.8426 9.14752 12.8975C8.09263 13.9524 7.5 15.3832 7.5 16.875V39.375H5.625C5.12772 39.375 4.65081 39.5725 4.29917 39.9242C3.94754 40.2758 3.75 40.7527 3.75 41.25V45C3.75 46.4918 4.34263 47.9226 5.39752 48.9775C6.45242 50.0324 7.88316 50.625 9.375 50.625H50.625C52.1168 50.625 53.5476 50.0324 54.6025 48.9775C55.6574 47.9226 56.25 46.4918 56.25 45V41.25C56.25 40.7527 56.0525 40.2758 55.7008 39.9242C55.3492 39.5725 54.8723 39.375 54.375 39.375ZM11.25 16.875C11.25 16.3777 11.4475 15.9008 11.7992 15.5492C12.1508 15.1975 12.6277 15 13.125 15H46.875C47.3723 15 47.8492 15.1975 48.2008 15.5492C48.5525 15.9008 48.75 16.3777 48.75 16.875V39.375H11.25V16.875ZM52.5 45C52.5 45.4973 52.3025 45.9742 51.9508 46.3258C51.5992 46.6775 51.1223 46.875 50.625 46.875H9.375C8.87772 46.875 8.40081 46.6775 8.04918 46.3258C7.69754 45.9742 7.5 45.4973 7.5 45V43.125H52.5V45ZM35.625 20.625C35.625 21.1223 35.4275 21.5992 35.0758 21.9508C34.7242 22.3025 34.2473 22.5 33.75 22.5H26.25C25.7527 22.5 25.2758 22.3025 24.9242 21.9508C24.5725 21.5992 24.375 21.1223 24.375 20.625C24.375 20.1277 24.5725 19.6508 24.9242 19.2992C25.2758 18.9475 25.7527 18.75 26.25 18.75H33.75C34.2473 18.75 34.7242 18.9475 35.0758 19.2992C35.4275 19.6508 35.625 20.1277 35.625 20.625Z" fill="black"/>
</svg>
