<svg width="120" height="121" viewBox="0 0 120 121" fill="none" xmlns="http://www.w3.org/2000/svg">
<rect opacity="0.2" y="0.26001" width="120" height="120" rx="16" fill="#32A74D"/>
<path d="M92.5 42.76V60.26C92.5 90.26 65 97.76 65 97.76C65 97.76 37.5 90.26 37.5 60.26V42.76C37.5 42.097 37.7634 41.4611 38.2322 40.9922C38.7011 40.5234 39.337 40.26 40 40.26H90C90.663 40.26 91.2989 40.5234 91.7678 40.9922C92.2366 41.4611 92.5 42.097 92.5 42.76Z" fill="#86BA97"/>
<path d="M85 32.76H35C33.6739 32.76 32.4021 33.2868 31.4645 34.2245C30.5268 35.1622 30 36.4339 30 37.76V55.26C30 71.735 37.975 81.7194 44.6656 87.1944C51.8719 93.0881 59.0406 95.0881 59.3531 95.1725C59.7828 95.2894 60.2359 95.2894 60.6656 95.1725C60.9781 95.0881 68.1375 93.0881 75.3531 87.1944C82.025 81.7194 90 71.735 90 55.26V37.76C90 36.4339 89.4732 35.1622 88.5355 34.2245C87.5979 33.2868 86.3261 32.76 85 32.76ZM85 55.26C85 66.8444 80.7312 76.2475 72.3125 83.2038C68.6478 86.2216 64.4798 88.57 60 90.1413C55.5788 88.5974 51.4623 86.2906 47.8375 83.3256C39.3188 76.3569 35 66.9163 35 55.26V37.76H85V55.26ZM45.7312 64.5288C45.2621 64.0597 44.9986 63.4234 44.9986 62.76C44.9986 62.0966 45.2621 61.4604 45.7312 60.9913C46.2003 60.5222 46.8366 60.2586 47.5 60.2586C48.1634 60.2586 48.7997 60.5222 49.2688 60.9913L55 66.7256L70.7312 50.9913C70.9635 50.759 71.2393 50.5747 71.5428 50.449C71.8462 50.3233 72.1715 50.2586 72.5 50.2586C72.8285 50.2586 73.1538 50.3233 73.4572 50.449C73.7607 50.5747 74.0365 50.759 74.2688 50.9913C74.501 51.2235 74.6853 51.4993 74.811 51.8028C74.9367 52.1063 75.0014 52.4315 75.0014 52.76C75.0014 53.0885 74.9367 53.4138 74.811 53.7173C74.6853 54.0207 74.501 54.2965 74.2688 54.5288L56.7688 72.0288C56.5366 72.2612 56.2608 72.4456 55.9574 72.5714C55.6539 72.6972 55.3285 72.762 55 72.762C54.6715 72.762 54.3461 72.6972 54.0426 72.5714C53.7392 72.4456 53.4634 72.2612 53.2312 72.0288L45.7312 64.5288Z" fill="black"/>
</svg>
