<svg width="509" height="393" viewBox="0 0 509 393" fill="none" xmlns="http://www.w3.org/2000/svg">
<g clip-path="url(#clip0_86_551)">
<path d="M487.911 343.862C485.89 327.619 475.818 311.615 460.319 306.329C466.431 323.047 466.43 341.388 460.315 358.106C457.933 364.545 454.614 371.459 456.854 377.948C458.248 381.986 461.658 385.075 465.469 387.007C469.281 388.939 473.511 389.86 477.689 390.762L478.511 391.441C485.143 376.475 489.932 360.105 487.911 343.862Z" fill="#32A74D"/>
<path d="M460.165 306.636C469.191 316.744 474.801 329.437 476.198 342.914C476.55 345.809 476.444 348.743 475.882 351.605C475.245 354.376 473.877 356.926 471.92 358.99C470.135 360.95 468.081 362.75 466.803 365.11C466.167 366.328 465.796 367.667 465.714 369.038C465.632 370.41 465.841 371.783 466.327 373.068C467.455 376.302 469.678 378.938 471.942 381.44C474.456 384.218 477.11 387.064 478.179 390.746C478.308 391.193 478.994 390.966 478.864 390.52C477.005 384.113 470.782 380.473 467.814 374.702C466.429 372.009 465.848 368.882 467.146 366.039C468.281 363.554 470.398 361.697 472.223 359.727C474.161 357.742 475.584 355.312 476.366 352.651C477.071 349.826 477.291 346.902 477.015 344.003C476.498 337.468 474.956 331.055 472.445 324.999C469.618 318.071 465.627 311.677 460.643 306.095C460.334 305.749 459.858 306.293 460.165 306.636Z" fill="white"/>
<path d="M476.004 338.548C478.234 338.007 480.2 336.691 481.549 334.835C482.898 332.979 483.543 330.705 483.369 328.417C483.333 327.954 482.611 327.99 482.648 328.453C482.814 330.583 482.213 332.702 480.953 334.427C479.693 336.153 477.857 337.371 475.778 337.863C475.326 337.97 475.555 338.655 476.004 338.548Z" fill="white"/>
<path d="M472.957 358.115C468.928 355.711 465.955 351.877 464.628 347.379C464.497 346.933 463.812 347.16 463.943 347.605C465.332 352.284 468.435 356.266 472.632 358.759C473.032 358.996 473.355 358.351 472.957 358.115Z" fill="white"/>
<path d="M468.949 318.754C468.129 319.143 467.226 319.323 466.32 319.277C465.414 319.231 464.534 318.961 463.758 318.491C463.361 318.249 463.039 318.895 463.434 319.135C464.293 319.651 465.266 319.948 466.266 320.001C467.267 320.054 468.266 319.861 469.175 319.439C469.264 319.407 469.337 319.342 469.38 319.257C469.423 319.172 469.431 319.075 469.405 318.984C469.374 318.893 469.309 318.818 469.224 318.775C469.138 318.732 469.04 318.725 468.949 318.754Z" fill="white"/>
<path d="M413.075 335.341C413.318 335.499 413.562 335.658 413.806 335.822C417.07 337.967 420.154 340.374 423.029 343.019C423.254 343.22 423.479 343.427 423.699 343.634C430.555 350.079 436.155 357.74 440.214 366.229C441.825 369.608 443.178 373.105 444.259 376.689C445.751 381.639 446.976 387.125 449.93 391.173C450.234 391.599 450.563 392.006 450.917 392.391H477.618C477.678 392.361 477.739 392.336 477.8 392.306L478.866 392.355C478.824 392.166 478.775 391.971 478.732 391.782C478.708 391.673 478.677 391.563 478.653 391.454C478.635 391.381 478.617 391.307 478.604 391.24C478.598 391.216 478.592 391.192 478.586 391.173C478.574 391.107 478.556 391.046 478.543 390.985C478.275 389.895 477.999 388.805 477.715 387.715C477.715 387.709 477.715 387.709 477.709 387.703C475.522 379.404 472.622 371.215 468.571 363.726C468.449 363.501 468.328 363.269 468.193 363.044C466.349 359.679 464.232 356.469 461.864 353.449C460.562 351.799 459.177 350.216 457.715 348.706C453.93 344.811 449.556 341.536 444.752 339C435.176 333.947 424.089 332.011 413.854 335.098C413.592 335.177 413.336 335.256 413.075 335.341Z" fill="#32A74D"/>
<path d="M413.135 335.68C426.43 338.319 438.556 345.078 447.79 354.998C449.815 357.098 451.497 359.504 452.773 362.128C453.933 364.723 454.377 367.582 454.058 370.408C453.814 373.048 453.258 375.72 453.659 378.374C453.885 379.729 454.395 381.021 455.156 382.166C455.916 383.31 456.91 384.281 458.073 385.015C460.921 386.918 464.284 387.684 467.599 388.32C471.279 389.025 475.113 389.7 478.185 391.998C478.557 392.276 478.968 391.683 478.596 391.405C473.252 387.407 466.09 388.246 460.244 385.424C457.516 384.107 455.169 381.961 454.493 378.91C453.902 376.242 454.473 373.485 454.744 370.814C455.095 368.063 454.768 365.267 453.789 362.671C452.651 359.991 451.065 357.524 449.098 355.376C444.749 350.47 439.654 346.277 434.001 342.952C427.571 339.122 420.532 336.419 413.19 334.96C412.736 334.87 412.683 335.59 413.135 335.68Z" fill="white"/>
<path d="M445.005 351.629C446.459 349.854 447.236 347.621 447.195 345.328C447.155 343.034 446.3 340.829 444.783 339.108C444.475 338.76 443.92 339.223 444.229 339.57C445.644 341.171 446.44 343.225 446.474 345.36C446.507 347.496 445.776 349.574 444.411 351.218C444.115 351.576 444.71 351.984 445.005 351.629Z" fill="white"/>
<path d="M454.358 369.085C449.694 369.59 445.01 368.319 441.242 365.525C440.869 365.248 440.458 365.842 440.831 366.118C444.758 369.018 449.635 370.331 454.487 369.795C454.95 369.744 454.819 369.034 454.358 369.085Z" fill="white"/>
<path d="M427.448 340.07C427.028 340.874 426.415 341.561 425.664 342.069C424.913 342.578 424.047 342.892 423.145 342.983C422.682 343.029 422.814 343.738 423.274 343.693C424.271 343.587 425.226 343.239 426.057 342.679C426.888 342.12 427.569 341.365 428.041 340.481C428.093 340.401 428.112 340.305 428.095 340.212C428.078 340.119 428.026 340.035 427.95 339.979C427.871 339.925 427.774 339.904 427.68 339.921C427.586 339.938 427.503 339.992 427.448 340.07Z" fill="white"/>
<path opacity="0.5" d="M370.082 58.4386L51.4291 0.0879846C50.7804 -0.0366659 50.1132 -0.0287945 49.4676 0.111123C48.882 0.239299 48.3323 0.495925 47.8581 0.862451C47.3946 1.22377 47.0217 1.68801 46.7689 2.21838C46.4999 2.7912 46.3631 3.41709 46.3687 4.04983V289.375C46.3627 290.008 46.4991 290.634 46.7677 291.207C47.0201 291.738 47.3925 292.202 47.8557 292.564C48.3295 292.931 48.8791 293.188 49.4645 293.316C50.11 293.457 50.7773 293.465 51.4261 293.341L370.082 234.989C370.346 234.935 370.591 234.811 370.791 234.63C371.024 234.422 371.219 234.175 371.368 233.9C371.54 233.586 371.671 233.251 371.756 232.903C371.85 232.525 371.898 232.136 371.898 231.746V61.6917C371.899 61.3008 371.851 60.9112 371.756 60.5319C371.671 60.1839 371.541 59.8486 371.368 59.5345C371.22 59.2595 371.025 59.0122 370.792 58.8039C370.592 58.6229 370.347 58.4987 370.083 58.4441L370.082 58.4386Z" fill="black"/>
<path d="M374.956 58.4386L56.3026 0.0879846C55.6539 -0.0366659 54.9866 -0.0287945 54.341 0.111123C53.7555 0.239299 53.2057 0.495925 52.7316 0.862451C52.2681 1.22377 51.8952 1.68801 51.6424 2.21838C51.3734 2.7912 51.2366 3.41709 51.2421 4.04983V289.375C51.2362 290.008 51.3726 290.634 51.6411 291.207C51.8935 291.738 52.266 292.202 52.7291 292.564C53.203 292.931 53.7525 293.188 54.338 293.316C54.9835 293.457 55.6507 293.465 56.2995 293.341L374.956 234.989C375.22 234.935 375.465 234.811 375.664 234.63C375.898 234.422 376.093 234.175 376.241 233.9C376.414 233.586 376.544 233.251 376.629 232.903C376.724 232.525 376.772 232.136 376.772 231.746V61.6917C376.772 61.3008 376.724 60.9112 376.63 60.5319C376.545 60.1839 376.414 59.8486 376.242 59.5345C376.093 59.2595 375.898 59.0122 375.665 58.8039C375.465 58.6229 375.221 58.4987 374.957 58.4441L374.956 58.4386Z" fill="white"/>
<path d="M374.956 58.4386L56.3026 0.0879846C55.6539 -0.0366659 54.9866 -0.0287945 54.341 0.111123C53.7555 0.239299 53.2057 0.495925 52.7316 0.862451C52.2681 1.22377 51.8952 1.68801 51.6424 2.21838C51.3734 2.7912 51.2366 3.41709 51.2421 4.04983V289.375C51.2362 290.008 51.3726 290.634 51.6411 291.207C51.8935 291.738 52.266 292.202 52.7291 292.564C53.203 292.931 53.7525 293.188 54.338 293.316C54.9835 293.457 55.6507 293.465 56.2995 293.341L374.956 234.989C375.22 234.935 375.465 234.811 375.664 234.63C375.898 234.422 376.093 234.175 376.241 233.9C376.414 233.586 376.544 233.251 376.629 232.903C376.724 232.525 376.772 232.136 376.772 231.746V61.6917C376.772 61.3008 376.724 60.9112 376.63 60.5319C376.545 60.1839 376.414 59.8486 376.242 59.5345C376.093 59.2595 375.898 59.0122 375.665 58.8039C375.465 58.6229 375.221 58.4987 374.957 58.4441L374.956 58.4386ZM376.168 231.849C376.168 232.11 376.136 232.37 376.073 232.623C376.016 232.856 375.929 233.079 375.814 233.289C375.715 233.472 375.585 233.637 375.429 233.776C375.296 233.896 375.133 233.979 374.957 234.015L56.3056 291.718C55.8733 291.8 55.4288 291.794 54.999 291.7C54.6094 291.614 54.2438 291.442 53.9286 291.198C53.6206 290.956 53.3728 290.647 53.2049 290.294C53.0265 289.913 52.9358 289.497 52.9393 289.076V4.35304C52.9356 3.93246 53.0262 3.51638 53.2043 3.13532C53.3719 2.78177 53.6194 2.47203 53.9274 2.23056C54.2423 1.98585 54.6077 1.81407 54.9971 1.72764C55.4269 1.63324 55.8715 1.62681 56.3038 1.70876L374.957 59.414C375.133 59.4499 375.296 59.5323 375.429 59.6527C375.585 59.7915 375.715 59.9563 375.814 60.1398C375.929 60.3491 376.017 60.5726 376.074 60.8046C376.137 61.0579 376.169 61.318 376.169 61.5791V231.848L376.168 231.849Z" fill="black"/>
<path opacity="0.25" d="M0.0530555 89.057C0.0377263 87.1105 0.449667 85.1843 1.25985 83.4141C2.01704 81.7789 3.13604 80.3369 4.53238 79.1971C5.93794 78.0577 7.57889 77.244 9.337 76.8147C11.2391 76.3561 13.2157 76.2966 15.1419 76.6399C17.1623 76.9916 19.1009 77.7108 20.8615 78.7618C22.6009 79.7962 24.1578 81.1098 25.47 82.65C26.7711 84.1682 27.8108 85.8921 28.5464 87.751C29.2795 89.5956 29.6601 91.5613 29.6685 93.5461C29.6822 95.4232 29.2998 97.2821 28.5464 99.0015C27.8388 100.599 26.7886 102.022 25.47 103.17C24.1335 104.325 22.5608 105.176 20.8615 105.661C19.0026 106.186 17.0548 106.318 15.1419 106.05C13.1043 105.769 11.1368 105.112 9.34005 104.111C7.53486 103.11 5.91122 101.812 4.53725 100.272C3.15746 98.7353 2.05049 96.9741 1.26411 95.0646C0.475601 93.1592 0.064328 91.119 0.0530555 89.057Z" fill="black"/>
<path opacity="0.25" d="M0.0530555 148.116C0.0377263 146.17 0.449667 144.244 1.25985 142.473C2.01704 140.838 3.13604 139.396 4.53238 138.256C5.93794 137.117 7.57889 136.303 9.337 135.874C11.2391 135.415 13.2157 135.356 15.1419 135.699C17.1623 136.051 19.1009 136.77 20.8615 137.821C22.6009 138.856 24.1578 140.169 25.47 141.709C26.7711 143.228 27.8108 144.951 28.5464 146.81C29.2795 148.655 29.6601 150.621 29.6685 152.605C29.6822 154.483 29.2998 156.341 28.5464 158.061C27.8388 159.659 26.7886 161.082 25.47 162.229C24.1335 163.385 22.5608 164.235 20.8615 164.721C19.0026 165.245 17.0548 165.377 15.1419 165.109C13.1043 164.828 11.1368 164.171 9.34005 163.17C7.53486 162.169 5.91122 160.872 4.53725 159.332C3.15746 157.795 2.05049 156.033 1.26411 154.124C0.475601 152.219 0.064328 150.178 0.0530555 148.116Z" fill="black"/>
<path opacity="0.25" d="M0.0530555 207.175C0.0377263 205.229 0.449667 203.303 1.25985 201.533C2.01704 199.897 3.13604 198.455 4.53238 197.316C5.93794 196.176 7.57889 195.362 9.337 194.933C11.2391 194.474 13.2157 194.415 15.1419 194.758C17.1623 195.11 19.1009 195.829 20.8615 196.88C22.6009 197.915 24.1578 199.228 25.47 200.768C26.7711 202.287 27.8108 204.01 28.5464 205.869C29.2795 207.714 29.6601 209.68 29.6685 211.665C29.6822 213.542 29.2998 215.4 28.5464 217.12C27.8388 218.718 26.7886 220.141 25.47 221.288C24.1335 222.444 22.5608 223.294 20.8615 223.78C19.0026 224.304 17.0548 224.436 15.1419 224.168C13.1043 223.888 11.1368 223.23 9.34005 222.229C7.53486 221.228 5.91122 219.931 4.53725 218.391C3.15746 216.854 2.05049 215.093 1.26411 213.183C0.475601 211.278 0.064328 209.237 0.0530555 207.175Z" fill="black"/>
<path d="M18.797 106.05C20.7099 106.318 22.6577 106.186 24.5167 105.661C26.2159 105.176 27.7886 104.325 29.1251 103.17C30.4437 102.022 31.4939 100.599 32.2015 99.0015C32.9549 97.2821 33.3373 95.4232 33.3236 93.5461C33.3152 91.5613 32.9346 89.5956 32.2015 87.751L18.797 106.05ZM18.797 106.05C16.7594 105.769 14.7919 105.112 12.9952 104.111M18.797 106.05L12.9952 104.111M12.9952 104.111C11.19 103.11 9.56634 101.812 8.19237 100.272M12.9952 104.111L8.19237 100.272M8.19237 100.272C6.81258 98.7353 5.70561 96.9741 4.91923 95.0646L8.19237 100.272ZM4.20817 89.0543L4.20816 89.0531C4.19341 87.1801 4.58971 85.3266 5.36916 83.6232C6.09439 82.0574 7.16596 80.6766 8.50304 79.585C9.85084 78.4925 11.4243 77.7123 13.11 77.3006C14.9447 76.8583 16.8513 76.801 18.7093 77.1322L18.7113 77.1325C20.6714 77.4737 22.5523 78.1714 24.2604 79.1911L24.2611 79.1916C25.9532 80.1979 27.468 81.4759 28.7445 82.9742L28.7455 82.9753C30.0105 84.4515 31.0213 86.1276 31.7366 87.935L31.7368 87.9357C32.4469 89.7222 32.8155 91.6259 32.8236 93.5482L32.8236 93.5498C32.8368 95.3562 32.4689 97.1452 31.7439 98.8C31.0661 100.33 30.0603 101.693 28.7975 102.792C27.5163 103.9 26.0088 104.715 24.38 105.18C22.588 105.686 20.7104 105.813 18.8665 105.555L18.8652 105.554C16.8891 105.282 14.981 104.645 13.2385 103.674L13.2377 103.674C11.4815 102.7 9.90206 101.437 8.56546 99.9393L8.56443 99.9382C7.22268 98.4437 6.14624 96.731 5.38156 94.8742L5.38123 94.8734C4.61746 93.0278 4.21909 91.0515 4.20817 89.0543Z" fill="#32A74D" stroke="black"/>
<path d="M18.7964 163.595C20.7383 163.718 22.6848 163.442 24.516 162.784C26.2237 162.169 27.7869 161.211 29.1087 159.968C30.4306 158.724 31.4831 157.223 32.2009 155.557C32.9495 153.806 33.3314 151.921 33.323 150.017C33.3208 148.056 32.94 146.114 32.2015 144.297L18.7964 163.595ZM18.7964 163.595C16.783 163.471 14.8126 162.958 12.9946 162.085L18.7964 163.595ZM4.20816 147.712L4.20816 147.711C4.19917 145.807 4.59566 143.923 5.3713 142.184C6.10652 140.549 7.17938 139.088 8.51948 137.897C9.86077 136.705 11.4359 135.807 13.1443 135.259C14.9523 134.684 16.859 134.486 18.7467 134.677L18.7483 134.677C20.6824 134.866 22.5622 135.425 24.2857 136.322L24.286 136.322C25.9672 137.197 27.4803 138.362 28.7552 139.763L28.756 139.764C30.0217 141.149 31.0315 142.748 31.7383 144.486C32.4525 146.243 32.8208 148.121 32.823 150.017L32.823 150.019C32.8311 151.854 32.463 153.672 31.7413 155.36C31.0505 156.963 30.038 158.407 28.7662 159.603C27.4942 160.8 25.9899 161.722 24.3467 162.314C22.5798 162.948 20.7017 163.214 18.828 163.096L18.8271 163.096C16.8781 162.976 14.9709 162.48 13.2111 161.634C9.69095 159.942 6.90731 157.028 5.38003 153.435C4.61241 151.624 4.21402 149.679 4.20816 147.712Z" fill="#32A74D" stroke="black"/>
<path d="M4.20817 206.371L4.20817 206.37C4.20576 204.472 4.58774 202.594 5.33112 200.848C6.07444 199.102 7.16371 197.524 8.53333 196.21C10.2189 194.597 12.2721 193.419 14.5155 192.776C16.759 192.134 19.1252 192.047 21.4098 192.524C23.6943 193 25.8284 194.025 27.6277 195.51C29.4267 196.995 30.8369 198.896 31.7366 201.047C32.6203 203.188 32.966 205.512 32.7435 207.817C32.521 210.122 31.737 212.338 30.4599 214.27C29.1827 216.202 27.4514 217.793 25.4173 218.902C23.3832 220.011 21.1082 220.606 18.7911 220.633L18.7897 220.633C15.9516 220.675 13.1645 219.877 10.7784 218.341C8.39239 216.805 6.51375 214.598 5.37825 211.998C4.60655 210.222 4.20828 208.307 4.20817 206.371Z" fill="#32A74D" stroke="black"/>
<path d="M12.9123 88.9899L17.3362 89.6694V85.31C17.3341 85.1213 17.3727 84.9344 17.4495 84.762C17.5213 84.6026 17.6281 84.4616 17.762 84.3492C17.8972 84.2365 18.0558 84.1552 18.2262 84.1111C18.4119 84.0637 18.6055 84.0554 18.7946 84.0868C18.9949 84.1191 19.1876 84.188 19.3629 84.2901C19.5378 84.3915 19.6946 84.5211 19.8271 84.6737C19.9594 84.8249 20.0654 84.9971 20.1409 85.1833C20.2161 85.368 20.2556 85.5653 20.2572 85.7648V90.1181L24.597 90.7836C24.7942 90.8147 24.9838 90.8822 25.1563 90.9827C25.502 91.1833 25.7709 91.4936 25.9202 91.8643C25.9938 92.0477 26.032 92.2433 26.0329 92.4409C26.0343 92.6277 25.9959 92.8126 25.9202 92.9834C25.8502 93.141 25.7462 93.2811 25.6156 93.3938C25.483 93.5063 25.3272 93.5882 25.1593 93.6337C24.977 93.6823 24.7865 93.6922 24.6001 93.6629L20.2542 93.0132V97.3568C20.2556 97.5456 20.2165 97.7324 20.1396 97.9048C20.0677 98.0648 19.9612 98.2068 19.8277 98.3207C19.693 98.4346 19.535 98.5177 19.3648 98.5642C19.1798 98.6143 18.9865 98.6255 18.797 98.5971C18.5969 98.568 18.404 98.5019 18.228 98.4022C18.053 98.3033 17.8959 98.1757 17.7632 98.0248C17.6307 97.8749 17.5246 97.7036 17.4495 97.5182C17.3748 97.333 17.3364 97.1352 17.3362 96.9355V92.5761L12.9123 91.9124C12.709 91.8812 12.5133 91.8129 12.3348 91.7109C12.1572 91.6099 11.9976 91.48 11.8627 91.3267C11.7285 91.1757 11.6208 91.0032 11.5441 90.8165C11.4676 90.6295 11.4279 90.4297 11.4271 90.2277C11.4256 90.0373 11.4655 89.8489 11.5441 89.6755C11.6177 89.5146 11.7266 89.3722 11.8627 89.259C12.0003 89.1442 12.1614 89.061 12.3348 89.0155C12.5235 88.9674 12.7201 88.9586 12.9123 88.9899Z" fill="black"/>
<path d="M16.0173 152.783L28.3021 153.673H28.3472L22.5861 143.219C22.5504 143.153 22.4992 143.097 22.4369 143.055C22.4063 143.035 22.3734 143.018 22.3388 143.006C22.304 142.994 22.2678 142.986 22.231 142.982C22.1952 142.979 22.1591 142.981 22.1238 142.987C22.0897 142.994 22.0567 143.005 22.0257 143.02C21.9636 143.051 21.9118 143.099 21.8764 143.158L17.9563 149.599L17.7675 149.909L16.0173 152.783Z" fill="black"/>
<path d="M9.00623 152.274L19.8448 153.06L17.7675 149.908L17.6176 149.68L14.8934 145.547C14.8451 145.483 14.7849 145.429 14.7161 145.387C14.6826 145.367 14.6474 145.351 14.6107 145.337C14.5728 145.324 14.5336 145.314 14.4938 145.309C14.4552 145.303 14.4162 145.302 14.3774 145.305C14.3396 145.307 14.3023 145.314 14.2659 145.324C14.2301 145.334 14.1956 145.349 14.163 145.367C14.1301 145.385 14.0995 145.406 14.0716 145.431L14.0624 145.442L14.0509 145.453L14.0417 145.465L14.0326 145.476L9.00623 152.274Z" fill="black"/>
<path d="M17.2028 141.498C17.4527 141.52 17.6961 141.589 17.9198 141.702C18.1391 141.814 18.3369 141.963 18.504 142.144C18.6707 142.323 18.804 142.531 18.8975 142.758C18.9923 142.987 19.0414 143.232 19.0419 143.48C19.043 143.72 18.9938 143.957 18.8975 144.177C18.8061 144.386 18.672 144.572 18.504 144.725C18.3351 144.879 18.1361 144.996 17.9198 145.068C17.6891 145.145 17.445 145.174 17.2028 145.153C16.9526 145.132 16.7087 145.063 16.4845 144.95C16.2642 144.839 16.0653 144.69 15.8973 144.509C15.7293 144.33 15.595 144.121 15.5007 143.894C15.405 143.664 15.3556 143.418 15.3551 143.169C15.3541 142.928 15.4037 142.689 15.5007 142.468C15.593 142.26 15.7281 142.073 15.8973 141.92C16.0674 141.768 16.2674 141.652 16.4845 141.581C16.7158 141.504 16.9602 141.476 17.2028 141.498Z" fill="black"/>
<path d="M149.768 183.171L271.409 67.8186L271.931 68.7319L150.528 184.147L149.768 183.171Z" fill="#989898"/>
<path d="M149.787 52.4292L150.55 51.5159L271.92 177.443L271.397 178.311L149.787 52.4292Z" fill="#989898"/>
<path d="M270.179 66.1346L151.936 49.8988C151.39 49.8208 150.832 49.8682 150.307 50.0376C149.807 50.2025 149.35 50.4781 148.971 50.8438C148.579 51.2221 148.271 51.6784 148.066 52.1832C147.843 52.7402 147.729 53.3354 147.733 53.9355V181.151C147.731 181.759 147.844 182.362 148.066 182.928C148.273 183.455 148.58 183.937 148.97 184.346C149.347 184.74 149.802 185.051 150.306 185.259C150.822 185.47 151.379 185.563 151.936 185.532L270.179 179.023C270.578 178.997 270.965 178.871 271.303 178.658C271.661 178.432 271.971 178.138 272.217 177.793C272.487 177.415 272.695 176.996 272.832 176.552C272.982 176.07 273.058 175.568 273.058 175.063V70.3272C273.057 69.8161 272.981 69.3079 272.832 68.8191C272.693 68.3603 272.486 67.9251 272.217 67.5283C271.971 67.1624 271.662 66.8437 271.303 66.5876C270.969 66.3499 270.584 66.1947 270.179 66.1346ZM151.936 184.223C151.539 184.244 151.142 184.177 150.773 184.026C150.414 183.876 150.089 183.654 149.821 183.372C149.542 183.079 149.323 182.734 149.176 182.357C149.018 181.953 148.938 181.523 148.939 181.089V54.0932C148.936 53.6655 149.017 53.2414 149.176 52.8445C149.322 52.4835 149.541 52.157 149.821 51.8861C150.091 51.6253 150.417 51.4286 150.773 51.3108C151.148 51.189 151.546 51.1542 151.936 51.2091L270.179 67.2251C270.469 67.268 270.744 67.379 270.982 67.549C271.239 67.7311 271.461 67.958 271.637 68.2188C271.829 68.5023 271.978 68.8133 272.077 69.1412C272.184 69.4906 272.239 69.854 272.239 70.2195V175.106C272.239 175.467 272.185 175.826 272.077 176.171C271.979 176.489 271.83 176.788 271.637 177.058C271.461 177.304 271.239 177.514 270.982 177.675C270.74 177.827 270.464 177.915 270.179 177.933L151.936 184.223Z" fill="#989898"/>
<path d="M148.019 198.966C147.705 199.001 147.405 199.117 147.15 199.304C146.868 199.51 146.629 199.769 146.445 200.065C146.235 200.396 146.077 200.757 145.974 201.136C145.861 201.549 145.807 201.975 145.812 202.403C145.814 202.813 145.876 203.221 145.994 203.613C146.098 203.958 146.258 204.283 146.47 204.575C146.654 204.832 146.892 205.044 147.168 205.198C147.429 205.341 147.725 205.407 148.021 205.39L355.024 188.258C355.189 188.244 355.343 188.174 355.461 188.058C355.612 187.914 355.734 187.743 355.821 187.554C355.931 187.321 356.013 187.076 356.065 186.823C356.126 186.531 356.158 186.234 356.16 185.935C356.163 185.64 356.136 185.345 356.079 185.056C356.032 184.809 355.953 184.57 355.845 184.344C355.763 184.163 355.644 184.002 355.496 183.87C355.376 183.763 355.221 183.706 355.061 183.709H355.024L148.019 198.966Z" fill="#989898"/>
<path d="M148.019 218.462C147.703 218.506 147.404 218.63 147.15 218.823C146.869 219.036 146.63 219.3 146.445 219.601C146.235 219.937 146.077 220.302 145.974 220.684C145.861 221.1 145.806 221.529 145.812 221.96C145.814 222.368 145.875 222.774 145.994 223.165C146.097 223.506 146.258 223.827 146.47 224.114C146.653 224.365 146.892 224.572 147.167 224.717C147.43 224.853 147.725 224.912 148.02 224.886L355.024 202.062C355.19 202.043 355.344 201.968 355.461 201.85C355.612 201.702 355.734 201.527 355.821 201.335C355.931 201.099 356.013 200.851 356.065 200.595C356.126 200.302 356.158 200.004 356.16 199.704C356.163 199.41 356.136 199.115 356.079 198.826C356.032 198.582 355.954 198.345 355.845 198.121C355.763 197.944 355.643 197.786 355.494 197.658C355.373 197.555 355.218 197.502 355.059 197.509H355.022L148.019 218.462Z" fill="#989898"/>
<path d="M148.019 237.642C147.702 237.695 147.403 237.828 147.15 238.027C146.869 238.248 146.63 238.518 146.445 238.825C146.236 239.165 146.077 239.535 145.974 239.921C145.861 240.338 145.807 240.768 145.812 241.2C145.814 241.606 145.875 242.011 145.994 242.399C146.097 242.737 146.258 243.054 146.47 243.336C146.654 243.582 146.892 243.782 147.167 243.92C147.432 244.05 147.728 244.1 148.02 244.066L355.024 215.642C355.191 215.619 355.345 215.54 355.461 215.418C355.612 215.266 355.733 215.089 355.821 214.894C355.931 214.655 356.013 214.405 356.065 214.147C356.126 213.853 356.158 213.554 356.16 213.254C356.163 212.96 356.136 212.667 356.079 212.378C356.033 212.136 355.954 211.901 355.845 211.679C355.763 211.504 355.643 211.35 355.494 211.226C355.372 211.126 355.216 211.077 355.059 211.089H355.022L148.019 237.642Z" fill="#989898"/>
<path d="M24.7025 200.193L12.8855 200.052C12.6885 200.045 12.4918 200.073 12.3044 200.134C12.1232 200.193 11.9536 200.283 11.803 200.4C11.6529 200.516 11.5243 200.658 11.4229 200.818C11.3189 200.983 11.2457 201.165 11.2066 201.356C11.1676 201.584 11.1795 201.818 11.2413 202.04C11.2722 202.152 11.3151 202.259 11.3693 202.361C11.4797 202.569 11.6341 202.751 11.8219 202.893C12.1034 203.106 12.4463 203.223 12.7996 203.226L16.3536 203.258C16.5212 203.259 16.6848 203.309 16.8244 203.402C16.964 203.494 17.0735 203.626 17.1394 203.78C17.1838 203.884 17.2066 203.996 17.2065 204.109V211.077C17.1977 211.462 17.3259 211.837 17.5683 212.136C17.8109 212.436 18.1515 212.641 18.5302 212.714C18.8735 212.772 19.2261 212.715 19.5342 212.553C19.8422 212.392 20.0887 212.133 20.2359 211.818C20.3328 211.61 20.3832 211.384 20.3833 211.155V204.129C20.3834 204.019 20.4051 203.911 20.4471 203.809C20.4892 203.708 20.5508 203.616 20.6284 203.539C20.706 203.461 20.7981 203.4 20.8994 203.358C21.0008 203.316 21.1094 203.294 21.2191 203.295L21.2271 203.295L24.622 203.321C25.0011 203.334 25.3721 203.211 25.6692 202.975C25.9663 202.74 26.1701 202.407 26.2443 202.035C26.2815 201.81 26.2697 201.58 26.2097 201.36C26.1496 201.14 26.0427 200.935 25.8963 200.76C25.7499 200.585 25.5675 200.444 25.3614 200.346C25.1553 200.248 24.9306 200.196 24.7025 200.193Z" fill="black"/>
<path d="M24.703 209.581C25.04 209.58 25.368 209.689 25.6385 209.89C25.9091 210.09 26.1077 210.373 26.205 210.695C26.3023 211.018 26.2932 211.363 26.1789 211.68C26.0646 211.997 25.8513 212.268 25.5705 212.454C25.2898 212.64 24.9565 212.731 24.62 212.713C24.2835 212.695 23.9618 212.57 23.7024 212.355C23.443 212.14 23.2598 211.847 23.1799 211.52C23.1 211.193 23.1276 210.849 23.2587 210.538C23.3781 210.254 23.5789 210.012 23.8359 209.841C24.0929 209.671 24.3946 209.58 24.703 209.581Z" fill="black"/>
<path d="M301.667 117.242C301.612 117.667 301.524 118.087 301.403 118.498L326.036 147.977L335.235 146.392L339.443 159.957L323.429 164.343C322.135 164.698 320.761 164.623 319.514 164.131C318.266 163.638 317.212 162.755 316.509 161.613L293.615 124.387C291.964 124.392 290.35 123.894 288.988 122.959C287.627 122.025 286.582 120.698 285.993 119.156C285.404 117.613 285.299 115.928 285.692 114.325C286.085 112.721 286.957 111.276 288.192 110.179C289.427 109.083 290.967 108.389 292.606 108.189C294.246 107.988 295.907 108.292 297.37 109.059C298.833 109.825 300.027 111.019 300.795 112.481C301.562 113.943 301.866 115.603 301.667 117.242Z" fill="#FFB6B6"/>
<path d="M327.126 146.333C327.389 145.907 327.742 145.543 328.158 145.265C328.575 144.987 329.047 144.803 329.542 144.724L346.824 141.969C349.269 141.198 351.92 141.428 354.196 142.607C356.472 143.787 358.187 145.82 358.965 148.262C359.743 150.703 359.521 153.353 358.347 155.631C357.173 157.909 355.143 159.629 352.703 160.413L336.913 168.086C336.462 168.305 335.97 168.424 335.469 168.436C334.968 168.447 334.47 168.351 334.01 168.153C333.55 167.955 333.138 167.66 332.802 167.288C332.466 166.917 332.214 166.477 332.063 166L326.767 149.213C326.616 148.736 326.57 148.231 326.632 147.734C326.694 147.237 326.863 146.759 327.126 146.333Z" fill="#989898"/>
<path d="M328.09 385.114H320.621L317.068 356.323L328.091 356.323L328.09 385.114Z" fill="#FFB6B6"/>
<path d="M329.994 392.35L305.913 392.349V392.045C305.913 389.56 306.901 387.178 308.658 385.421C310.416 383.664 312.8 382.677 315.286 382.677L329.995 382.677L329.994 392.35Z" fill="black"/>
<path d="M406.065 385.114H398.597L395.044 356.323L406.067 356.323L406.065 385.114Z" fill="#FFB6B6"/>
<path d="M407.97 392.35L383.888 392.349V392.045C383.888 389.56 384.876 387.178 386.634 385.421C388.392 383.664 390.776 382.677 393.262 382.677L407.97 382.677L407.97 392.35Z" fill="black"/>
<path d="M331.006 209.733L363.369 200.386C375.158 208.744 383.298 225.496 380.662 247.171C376.414 282.1 401.008 327.01 411.615 372.516L393.274 373.092L353.111 277.026L329.564 375.092L313.18 375.606L324.136 240.58L331.006 209.733Z" fill="black"/>
<path d="M345.417 124.789C354.663 124.789 362.158 117.298 362.158 108.057C362.158 98.8157 354.663 91.3242 345.417 91.3242C336.17 91.3242 328.675 98.8157 328.675 108.057C328.675 117.298 336.17 124.789 345.417 124.789Z" fill="#FFB6B6"/>
<path d="M328.382 182.461C324.682 175.969 322.854 168.084 326.074 161.341C326.885 159.644 329.097 158.039 330.254 156.555L343.189 137.279L357.795 134.931C370.435 145.526 359.637 181.726 369.993 205.471L326.741 228.608C329.833 216.807 334.006 192.327 328.382 182.461Z" fill="#989898"/>
<path d="M328.569 101.356C328.569 101.356 329.703 99.2578 336.488 101.965C338.863 102.913 339.977 102.695 340.131 104.757C340.682 112.517 343.522 119.941 348.292 126.088L348.344 126.155L351.737 123.06L356.099 126.542L374.517 126.928C374.517 126.928 377.425 112.617 367.731 96.3723C358.037 80.1273 338.165 89.0233 338.165 89.0233C324.594 89.7969 328.569 101.356 328.569 101.356Z" fill="black"/>
<path d="M285.829 79.9689L167.586 63.733C167.04 63.655 166.482 63.7025 165.957 63.8719C165.457 64.0367 165 64.3123 164.621 64.678C164.229 65.0563 163.921 65.5126 163.716 66.0175C163.493 66.5744 163.379 67.1696 163.383 67.7698V194.985C163.381 195.593 163.494 196.196 163.716 196.763C163.923 197.289 164.23 197.771 164.62 198.18C164.997 198.574 165.452 198.885 165.956 199.093C166.472 199.304 167.029 199.397 167.586 199.366L285.829 192.857C286.228 192.831 286.615 192.706 286.953 192.492C287.311 192.266 287.621 191.972 287.867 191.627C288.137 191.249 288.345 190.83 288.482 190.387C288.632 189.905 288.708 189.402 288.708 188.897V84.1615C288.707 83.6504 288.631 83.1421 288.482 82.6533C288.343 82.1945 288.136 81.7593 287.867 81.3625C287.621 80.9966 287.312 80.6779 286.953 80.4219C286.619 80.1842 286.234 80.0289 285.829 79.9689Z" fill="#32A74D"/>
<path opacity="0.2" d="M285.829 79.9689L167.586 63.733C167.04 63.655 166.482 63.7025 165.957 63.8719C165.457 64.0367 165 64.3123 164.621 64.678C164.229 65.0563 163.921 65.5126 163.716 66.0175C163.493 66.5744 163.379 67.1696 163.383 67.7698V194.985C163.381 195.593 163.494 196.196 163.716 196.763C163.923 197.289 164.23 197.771 164.62 198.18C164.997 198.574 165.452 198.885 165.956 199.093C166.472 199.304 167.029 199.397 167.586 199.366L285.829 192.857C286.228 192.831 286.615 192.706 286.953 192.492C287.311 192.266 287.621 191.972 287.867 191.627C288.137 191.249 288.345 190.83 288.482 190.387C288.632 189.905 288.708 189.402 288.708 188.897V84.1615C288.707 83.6504 288.631 83.1421 288.482 82.6533C288.343 82.1945 288.136 81.7593 287.867 81.3625C287.621 80.9966 287.312 80.6779 286.953 80.4219C286.619 80.1842 286.234 80.0289 285.829 79.9689Z" fill="black"/>
<path d="M290.702 79.9689L172.46 63.733C171.913 63.655 171.356 63.7025 170.83 63.8719C170.33 64.0367 169.873 64.3123 169.494 64.678C169.102 65.0563 168.794 65.5126 168.59 66.0175C168.366 66.5744 168.253 67.1696 168.257 67.7698V194.985C168.255 195.593 168.368 196.196 168.59 196.763C168.796 197.289 169.103 197.771 169.494 198.18C169.871 198.574 170.326 198.885 170.83 199.093C171.346 199.304 171.903 199.397 172.459 199.366L290.702 192.857C291.102 192.831 291.488 192.706 291.826 192.492C292.185 192.266 292.495 191.972 292.74 191.627C293.011 191.249 293.218 190.83 293.355 190.387C293.506 189.905 293.582 189.402 293.581 188.897V84.1615C293.581 83.6504 293.505 83.1421 293.355 82.6533C293.217 82.1945 293.009 81.7593 292.74 81.3625C292.495 80.9966 292.185 80.6779 291.826 80.4219C291.493 80.1842 291.108 80.0289 290.702 79.9689Z" fill="#32A74D"/>
<path d="M290.195 181.673C290.517 181.956 290.816 182.265 291.089 182.595L329.317 178.689L333.152 170.182L346.754 174.289L341.429 190.008C340.999 191.278 340.168 192.374 339.062 193.132C337.955 193.89 336.633 194.269 335.292 194.211L291.614 192.341C290.693 193.711 289.377 194.77 287.84 195.374C286.303 195.979 284.619 196.102 283.01 195.726C281.402 195.351 279.946 194.495 278.836 193.272C277.726 192.049 277.015 190.518 276.798 188.882C276.58 187.245 276.866 185.581 277.618 184.111C278.369 182.641 279.551 181.435 281.005 180.652C282.459 179.87 284.118 179.548 285.759 179.73C287.401 179.913 288.948 180.591 290.195 181.673Z" fill="#FFB6B6"/>
<path d="M328.565 176.866C328.359 176.41 328.254 175.914 328.257 175.413C328.26 174.912 328.371 174.418 328.583 173.964L335.971 158.108C336.699 155.651 338.373 153.584 340.625 152.359C342.877 151.133 345.523 150.851 347.983 151.573C350.443 152.295 352.516 153.962 353.748 156.209C354.979 158.457 355.269 161.101 354.553 163.561L352.079 180.934C352.008 181.43 351.831 181.904 351.56 182.326C351.29 182.747 350.931 183.105 350.509 183.376C350.088 183.646 349.612 183.822 349.116 183.893C348.62 183.963 348.115 183.926 347.635 183.783L330.752 178.775C330.271 178.633 329.827 178.389 329.45 178.059C329.072 177.73 328.77 177.323 328.565 176.866Z" fill="#989898"/>
<path d="M508.391 393H276.292C276.13 393 275.975 392.936 275.861 392.822C275.747 392.707 275.683 392.553 275.683 392.391C275.683 392.23 275.747 392.075 275.861 391.961C275.975 391.846 276.13 391.782 276.292 391.782H508.391C508.552 391.782 508.707 391.846 508.821 391.961C508.936 392.075 509 392.23 509 392.391C509 392.553 508.936 392.707 508.821 392.822C508.707 392.936 508.552 393 508.391 393Z" fill="black"/>
</g>
<defs>
<clipPath id="clip0_86_551">
<rect width="508.947" height="393" fill="white" transform="translate(0.0526428)"/>
</clipPath>
</defs>
</svg>
