<svg width="315" height="60" viewBox="0 0 315 60" fill="none" xmlns="http://www.w3.org/2000/svg">
<path fill-rule="evenodd" clip-rule="evenodd" d="M22.07 21.48L22.12 7.11C30.06 7.14 36.47 13.6 36.44 21.53L22.07 21.48Z" fill="#2A8E41"/>
<path fill-rule="evenodd" clip-rule="evenodd" d="M22.07 22.68L22.12 37.05C30.06 37.02 36.47 30.56 36.44 22.63L22.07 22.68Z" fill="#2A8E41"/>
<path fill-rule="evenodd" clip-rule="evenodd" d="M22.07 52.84L22.12 38.47C30.06 38.49 36.47 44.95 36.44 52.89L22.07 52.84Z" fill="#F4F4F4"/>
<path d="M20.64 22.63H6.27V37.05H20.64V22.63Z" fill="#F4F4F4"/>
<path d="M58.6993 44.51L52.5641 33.3741H50.8412V44.51H43.6554V15.0105H55.7157C58.0409 15.0105 60.016 15.4167 61.6408 16.2291C63.2937 17.0415 64.5264 18.1621 65.3388 19.5909C66.1512 20.9916 66.5574 22.5604 66.5574 24.2974C66.5574 26.2584 65.9971 28.0093 64.8765 29.5501C63.784 31.0909 62.1591 32.1835 60.002 32.8278L66.8096 44.51H58.6993ZM50.8412 28.2895H55.2955C56.6122 28.2895 57.5927 27.9673 58.237 27.3229C58.9094 26.6786 59.2456 25.7681 59.2456 24.5915C59.2456 23.4709 58.9094 22.5885 58.237 21.9441C57.5927 21.2998 56.6122 20.9776 55.2955 20.9776H50.8412V28.2895Z" fill="#F4F4F4"/>
<path d="M68.9566 32.7438C68.9566 30.3345 69.4049 28.2194 70.3013 26.3985C71.2258 24.5775 72.4725 23.1768 74.0413 22.1962C75.6101 21.2157 77.3611 20.7255 79.2941 20.7255C80.9469 20.7255 82.3897 21.0617 83.6223 21.734C84.883 22.4064 85.8495 23.2888 86.5219 24.3814V21.0617H93.7076V44.51H86.5219V41.1902C85.8215 42.2828 84.841 43.1653 83.5803 43.8376C82.3477 44.51 80.9049 44.8462 79.252 44.8462C77.347 44.8462 75.6101 44.3559 74.0413 43.3754C72.4725 42.3669 71.2258 40.9521 70.3013 39.1312C69.4049 37.2822 68.9566 35.1531 68.9566 32.7438ZM86.5219 32.7858C86.5219 30.9929 86.0176 29.5781 85.0091 28.5416C84.0286 27.505 82.8239 26.9868 81.3952 26.9868C79.9664 26.9868 78.7478 27.505 77.7393 28.5416C76.7587 29.5501 76.2685 30.9509 76.2685 32.7438C76.2685 34.5367 76.7587 35.9655 77.7393 37.03C78.7478 38.0666 79.9664 38.5849 81.3952 38.5849C82.8239 38.5849 84.0286 38.0666 85.0091 37.03C86.0176 35.9935 86.5219 34.5788 86.5219 32.7858Z" fill="#F4F4F4"/>
<path d="M106.061 24.3814C106.762 23.2888 107.728 22.4064 108.961 21.734C110.193 21.0617 111.636 20.7255 113.289 20.7255C115.222 20.7255 116.973 21.2157 118.542 22.1962C120.111 23.1768 121.343 24.5775 122.24 26.3985C123.164 28.2194 123.626 30.3345 123.626 32.7438C123.626 35.1531 123.164 37.2822 122.24 39.1312C121.343 40.9521 120.111 42.3669 118.542 43.3754C116.973 44.3559 115.222 44.8462 113.289 44.8462C111.664 44.8462 110.221 44.51 108.961 43.8376C107.728 43.1653 106.762 42.2968 106.061 41.2323V55.6879H98.8754V21.0617H106.061V24.3814ZM116.315 32.7438C116.315 30.9509 115.81 29.5501 114.802 28.5416C113.821 27.505 112.603 26.9868 111.146 26.9868C109.717 26.9868 108.498 27.505 107.49 28.5416C106.509 29.5781 106.019 30.9929 106.019 32.7858C106.019 34.5788 106.509 35.9935 107.49 37.03C108.498 38.0666 109.717 38.5849 111.146 38.5849C112.575 38.5849 113.793 38.0666 114.802 37.03C115.81 35.9655 116.315 34.5367 116.315 32.7438Z" fill="#F4F4F4"/>
<path d="M134.43 16.78V40.23H127.24V16.78H134.43Z" fill="#F4F4F4"/>
<path d="M138.077 32.7438C138.077 30.3345 138.525 28.2194 139.421 26.3985C140.346 24.5775 141.592 23.1768 143.161 22.1962C144.73 21.2157 146.481 20.7255 148.414 20.7255C149.955 20.7255 151.356 21.0476 152.616 21.692C153.905 22.3363 154.913 23.2048 155.642 24.2974V13.4136H162.828V44.51H155.642V41.1482C154.97 42.2688 154.003 43.1653 152.742 43.8376C151.51 44.51 150.067 44.8462 148.414 44.8462C146.481 44.8462 144.73 44.3559 143.161 43.3754C141.592 42.3669 140.346 40.9521 139.421 39.1312C138.525 37.2822 138.077 35.1531 138.077 32.7438ZM155.642 32.7858C155.642 30.9929 155.138 29.5781 154.129 28.5416C153.149 27.505 151.944 26.9868 150.515 26.9868C149.086 26.9868 147.868 27.505 146.859 28.5416C145.879 29.5501 145.388 30.9509 145.388 32.7438C145.388 34.5367 145.879 35.9655 146.859 37.03C147.868 38.0666 149.086 38.5849 150.515 38.5849C151.944 38.5849 153.149 38.0666 154.129 37.03C155.138 35.9935 155.642 34.5788 155.642 32.7858Z" fill="#F4F4F4"/>
<path d="M172.46 18.3302V28.1214H183.133V31.273H172.46V41.3583H184.394V44.51H168.636V15.1786H184.394V18.3302H172.46Z" fill="#2A8E41"/>
<path d="M188.847 32.9119C188.847 30.5586 189.323 28.4996 190.276 26.7346C191.228 24.9417 192.531 23.555 194.184 22.5744C195.865 21.5939 197.742 21.1037 199.815 21.1037C201.608 21.1037 203.275 21.5239 204.815 22.3643C206.356 23.1768 207.533 24.2553 208.345 25.6V13.4136H212.211V44.51H208.345V40.1817C207.589 41.5544 206.468 42.689 204.983 43.5855C203.499 44.454 201.762 44.8882 199.773 44.8882C197.728 44.8882 195.865 44.3839 194.184 43.3754C192.531 42.3669 191.228 40.9521 190.276 39.1312C189.323 37.3102 188.847 35.2371 188.847 32.9119ZM208.345 32.9539C208.345 31.217 207.995 29.7042 207.295 28.4155C206.594 27.1268 205.642 26.1463 204.437 25.474C203.261 24.7736 201.958 24.4234 200.529 24.4234C199.1 24.4234 197.798 24.7596 196.621 25.4319C195.444 26.1043 194.506 27.0848 193.806 28.3735C193.105 29.6622 192.755 31.175 192.755 32.9119C192.755 34.6768 193.105 36.2176 193.806 37.5343C194.506 38.823 195.444 39.8175 196.621 40.5179C197.798 41.1902 199.1 41.5264 200.529 41.5264C201.958 41.5264 203.261 41.1902 204.437 40.5179C205.642 39.8175 206.594 38.823 207.295 37.5343C207.995 36.2176 208.345 34.6908 208.345 32.9539Z" fill="#2A8E41"/>
<path d="M228.133 21.1037C230.122 21.1037 231.859 21.5379 233.343 22.4064C234.856 23.2748 235.977 24.3674 236.705 25.6841V21.4819H240.571V45.0143C240.571 47.1154 240.123 48.9783 239.227 50.6032C238.33 52.2561 237.041 53.5447 235.361 54.4692C233.708 55.3937 231.775 55.856 229.561 55.856C226.536 55.856 224.015 55.1416 221.997 53.7128C219.98 52.2841 218.79 50.3371 218.426 47.8718H222.208C222.628 49.2725 223.496 50.3931 224.813 51.2335C226.13 52.102 227.712 52.5362 229.561 52.5362C231.663 52.5362 233.371 51.8779 234.688 50.5612C236.033 49.2445 236.705 47.3955 236.705 45.0143V40.1817C235.949 41.5264 234.828 42.647 233.343 43.5435C231.859 44.4399 230.122 44.8882 228.133 44.8882C226.088 44.8882 224.225 44.3839 222.544 43.3754C220.891 42.3669 219.588 40.9521 218.636 39.1312C217.683 37.3102 217.207 35.2371 217.207 32.9119C217.207 30.5586 217.683 28.4996 218.636 26.7346C219.588 24.9417 220.891 23.555 222.544 22.5744C224.225 21.5939 226.088 21.1037 228.133 21.1037ZM236.705 32.9539C236.705 31.217 236.355 29.7042 235.655 28.4155C234.954 27.1268 234.002 26.1463 232.797 25.474C231.621 24.7736 230.318 24.4234 228.889 24.4234C227.46 24.4234 226.158 24.7596 224.981 25.4319C223.804 26.1043 222.866 27.0848 222.166 28.3735C221.465 29.6622 221.115 31.175 221.115 32.9119C221.115 34.6768 221.465 36.2176 222.166 37.5343C222.866 38.823 223.804 39.8175 224.981 40.5179C226.158 41.1902 227.46 41.5264 228.889 41.5264C230.318 41.5264 231.621 41.1902 232.797 40.5179C234.002 39.8175 234.954 38.823 235.655 37.5343C236.355 36.2176 236.705 34.6908 236.705 32.9539Z" fill="#2A8E41"/>
<path d="M268.017 32.1135C268.017 32.8418 267.975 33.6123 267.891 34.4247H249.485C249.625 36.6939 250.396 38.4728 251.796 39.7615C253.225 41.0222 254.948 41.6525 256.965 41.6525C258.618 41.6525 259.991 41.2743 261.083 40.5179C262.204 39.7335 262.988 38.6969 263.436 37.4082H267.555C266.938 39.6214 265.706 41.4284 263.857 42.8291C262.008 44.2018 259.71 44.8882 256.965 44.8882C254.78 44.8882 252.819 44.3979 251.082 43.4174C249.373 42.4369 248.028 41.0502 247.048 39.2572C246.067 37.4363 245.577 35.3352 245.577 32.9539C245.577 30.5727 246.053 28.4856 247.006 26.6926C247.958 24.8997 249.289 23.5269 250.998 22.5744C252.735 21.5939 254.724 21.1037 256.965 21.1037C259.15 21.1037 261.083 21.5799 262.764 22.5324C264.445 23.4849 265.734 24.8016 266.63 26.4825C267.555 28.1354 268.017 30.0124 268.017 32.1135ZM264.067 31.315C264.067 29.8583 263.745 28.6116 263.1 27.5751C262.456 26.5105 261.573 25.7121 260.453 25.1798C259.36 24.6195 258.142 24.3394 256.797 24.3394C254.864 24.3394 253.211 24.9557 251.838 26.1883C250.494 27.421 249.723 29.1299 249.527 31.315H264.067Z" fill="#2A8E41"/>
<path d="M283.23 15.2206V44.51H279.406V15.2206H283.23Z" fill="#F4F4F4"/>
<path d="M307.775 15.2206V18.3302H299.79V44.51H295.966V18.3302H287.94V15.2206H307.775Z" fill="#F4F4F4"/>
<path d="M134.012 58.0414C133.365 58.0414 132.784 57.9289 132.268 57.7038C131.761 57.4693 131.363 57.1505 131.072 56.7472C130.781 56.3345 130.631 55.8609 130.622 55.3263H131.986C132.033 55.7859 132.221 56.1751 132.549 56.494C132.887 56.8035 133.374 56.9582 134.012 56.9582C134.622 56.9582 135.1 56.8081 135.447 56.508C135.804 56.1985 135.982 55.8046 135.982 55.3263C135.982 54.9512 135.879 54.6464 135.672 54.4119C135.466 54.1774 135.208 53.9993 134.899 53.8773C134.589 53.7554 134.172 53.6241 133.646 53.4834C132.999 53.3146 132.479 53.1458 132.085 52.977C131.7 52.8082 131.367 52.5456 131.086 52.1892C130.814 51.8234 130.678 51.3357 130.678 50.7261C130.678 50.1915 130.814 49.7179 131.086 49.3053C131.358 48.8926 131.738 48.5737 132.226 48.3486C132.723 48.1236 133.29 48.011 133.928 48.011C134.847 48.011 135.597 48.2408 136.179 48.7003C136.77 49.1599 137.102 49.7695 137.178 50.5292H135.771C135.724 50.154 135.527 49.8258 135.18 49.5444C134.833 49.2537 134.373 49.1083 133.801 49.1083C133.267 49.1083 132.831 49.249 132.493 49.5303C132.155 49.8023 131.986 50.1869 131.986 50.6839C131.986 51.0403 132.085 51.331 132.282 51.5561C132.488 51.7812 132.737 51.9547 133.027 52.0766C133.328 52.1892 133.745 52.3205 134.28 52.4705C134.927 52.6487 135.447 52.8269 135.841 53.0051C136.235 53.1739 136.573 53.4412 136.854 53.807C137.135 54.1634 137.276 54.6511 137.276 55.2701C137.276 55.7484 137.149 56.1985 136.896 56.6206C136.643 57.0426 136.268 57.3849 135.771 57.6475C135.274 57.9101 134.688 58.0414 134.012 58.0414Z" fill="#F4F4F4"/>
<path d="M142.522 58.0696C141.8 58.0696 141.143 57.9054 140.553 57.5772C139.971 57.2489 139.512 56.7847 139.174 56.1845C138.846 55.5749 138.682 54.8715 138.682 54.0743C138.682 53.2865 138.85 52.5925 139.188 51.9922C139.535 51.3826 140.004 50.9184 140.595 50.5995C141.186 50.2713 141.847 50.1071 142.578 50.1071C143.31 50.1071 143.971 50.2713 144.562 50.5995C145.153 50.9184 145.617 51.3779 145.955 51.9782C146.302 52.5784 146.475 53.2771 146.475 54.0743C146.475 54.8715 146.297 55.5749 145.941 56.1845C145.594 56.7847 145.12 57.2489 144.52 57.5772C143.92 57.9054 143.254 58.0696 142.522 58.0696ZM142.522 56.9441C142.982 56.9441 143.413 56.8363 143.816 56.6206C144.22 56.4049 144.543 56.0813 144.787 55.6499C145.04 55.2185 145.167 54.6933 145.167 54.0743C145.167 53.4553 145.045 52.9301 144.801 52.4987C144.557 52.0673 144.238 51.7484 143.844 51.5421C143.451 51.3263 143.024 51.2185 142.564 51.2185C142.095 51.2185 141.664 51.3263 141.27 51.5421C140.886 51.7484 140.576 52.0673 140.342 52.4987C140.107 52.9301 139.99 53.4553 139.99 54.0743C139.99 54.7026 140.102 55.2325 140.328 55.664C140.562 56.0954 140.871 56.4189 141.256 56.6346C141.641 56.841 142.063 56.9441 142.522 56.9441Z" fill="#F4F4F4"/>
<path d="M149.439 47.5327V57.943H148.158V47.5327H149.439Z" fill="#F4F4F4"/>
<path d="M158.457 50.2337V57.943H157.177V56.8035C156.933 57.1974 156.591 57.5068 156.15 57.7319C155.719 57.9476 155.241 58.0555 154.715 58.0555C154.115 58.0555 153.576 57.9336 153.098 57.6897C152.619 57.4365 152.239 57.0614 151.958 56.5643C151.686 56.0672 151.55 55.4623 151.55 54.7495V50.2337H152.816V54.5807C152.816 55.3404 153.008 55.9266 153.393 56.3392C153.777 56.7425 154.303 56.9441 154.969 56.9441C155.653 56.9441 156.192 56.7331 156.586 56.3111C156.98 55.889 157.177 55.2747 157.177 54.4682V50.2337H158.457Z" fill="#F4F4F4"/>
<path d="M162.18 51.2888V55.8328C162.18 56.2079 162.26 56.4752 162.42 56.6346C162.579 56.7847 162.856 56.8597 163.25 56.8597H164.192V57.943H163.039C162.326 57.943 161.791 57.7788 161.435 57.4506C161.078 57.1223 160.9 56.5831 160.9 55.8328V51.2888H159.901V50.2337H160.9V48.2924H162.18V50.2337H164.192V51.2888H162.18Z" fill="#F4F4F4"/>
<path d="M166.404 48.9817C166.161 48.9817 165.954 48.8973 165.785 48.7285C165.617 48.5597 165.532 48.3533 165.532 48.1095C165.532 47.8656 165.617 47.6593 165.785 47.4905C165.954 47.3217 166.161 47.2373 166.404 47.2373C166.639 47.2373 166.836 47.3217 166.995 47.4905C167.164 47.6593 167.249 47.8656 167.249 48.1095C167.249 48.3533 167.164 48.5597 166.995 48.7285C166.836 48.8973 166.639 48.9817 166.404 48.9817ZM167.023 50.2337V57.943H165.743V50.2337H167.023Z" fill="#F4F4F4"/>
<path d="M172.568 58.0696C171.845 58.0696 171.189 57.9054 170.598 57.5772C170.017 57.2489 169.557 56.7847 169.219 56.1845C168.891 55.5749 168.727 54.8715 168.727 54.0743C168.727 53.2865 168.896 52.5925 169.233 51.9922C169.58 51.3826 170.049 50.9184 170.64 50.5995C171.231 50.2713 171.892 50.1071 172.624 50.1071C173.355 50.1071 174.017 50.2713 174.607 50.5995C175.198 50.9184 175.662 51.3779 176 51.9782C176.347 52.5784 176.521 53.2771 176.521 54.0743C176.521 54.8715 176.342 55.5749 175.986 56.1845C175.639 56.7847 175.165 57.2489 174.565 57.5772C173.965 57.9054 173.299 58.0696 172.568 58.0696ZM172.568 56.9441C173.027 56.9441 173.458 56.8363 173.862 56.6206C174.265 56.4049 174.589 56.0813 174.832 55.6499C175.086 55.2185 175.212 54.6933 175.212 54.0743C175.212 53.4553 175.09 52.9301 174.847 52.4987C174.603 52.0673 174.284 51.7484 173.89 51.5421C173.496 51.3263 173.069 51.2185 172.61 51.2185C172.141 51.2185 171.709 51.3263 171.315 51.5421C170.931 51.7484 170.621 52.0673 170.387 52.4987C170.153 52.9301 170.035 53.4553 170.035 54.0743C170.035 54.7026 170.148 55.2325 170.373 55.664C170.607 56.0954 170.917 56.4189 171.301 56.6346C171.686 56.841 172.108 56.9441 172.568 56.9441Z" fill="#F4F4F4"/>
<path d="M181.96 50.0931C182.898 50.0931 183.657 50.3791 184.239 50.9512C184.82 51.5139 185.111 52.3299 185.111 53.399V57.943H183.845V53.5819C183.845 52.8129 183.653 52.2267 183.268 51.8234C182.884 51.4108 182.359 51.2044 181.693 51.2044C181.017 51.2044 180.478 51.4154 180.075 51.8375C179.681 52.2595 179.484 52.8738 179.484 53.6804V57.943H178.204V50.2337H179.484V51.331C179.737 50.9371 180.08 50.6323 180.511 50.4166C180.952 50.2009 181.435 50.0931 181.96 50.0931Z" fill="#F4F4F4"/>
<path d="M189.931 58.0696C189.341 58.0696 188.811 57.9711 188.342 57.7741C187.873 57.5678 187.502 57.2864 187.23 56.9301C186.958 56.5643 186.808 56.1469 186.78 55.678H188.103C188.14 56.0625 188.318 56.3767 188.637 56.6206C188.965 56.8644 189.392 56.9863 189.917 56.9863C190.405 56.9863 190.79 56.8785 191.071 56.6628C191.352 56.4471 191.493 56.1751 191.493 55.8468C191.493 55.5092 191.343 55.2607 191.043 55.1012C190.743 54.9324 190.278 54.7683 189.65 54.6089C189.078 54.4588 188.609 54.3087 188.243 54.1587C187.887 53.9992 187.577 53.7695 187.315 53.4694C187.062 53.1599 186.935 52.7566 186.935 52.2595C186.935 51.8656 187.052 51.5045 187.287 51.1763C187.521 50.848 187.854 50.5901 188.286 50.4026C188.717 50.2056 189.209 50.1071 189.763 50.1071C190.616 50.1071 191.305 50.3228 191.831 50.7543C192.356 51.1857 192.637 51.7765 192.675 52.5268H191.395C191.366 52.1235 191.202 51.8 190.902 51.5561C190.611 51.3123 190.218 51.1904 189.72 51.1904C189.261 51.1904 188.895 51.2888 188.623 51.4858C188.351 51.6827 188.215 51.9406 188.215 52.2595C188.215 52.5127 188.295 52.7238 188.454 52.8926C188.623 53.052 188.83 53.1833 189.073 53.2865C189.327 53.3803 189.674 53.4881 190.114 53.61C190.668 53.7601 191.118 53.9102 191.465 54.0602C191.812 54.2009 192.107 54.4166 192.351 54.7073C192.604 54.9981 192.736 55.3779 192.745 55.8468C192.745 56.2689 192.628 56.6487 192.393 56.9863C192.159 57.324 191.826 57.5913 191.395 57.7882C190.973 57.9758 190.485 58.0696 189.931 58.0696Z" fill="#F4F4F4"/>
<path d="M126.57 10.18C126.57 9.09 126.96 8.18 127.74 7.47C128.53 6.76 129.57 6.4 130.85 6.4C132.14 6.4 133.18 6.76 133.96 7.47C134.75 8.18 135.14 9.09 135.14 10.18C135.14 11.24 134.75 12.13 133.96 12.85C133.18 13.56 132.14 13.92 130.85 13.92C129.57 13.92 128.53 13.56 127.74 12.85C126.96 12.13 126.57 11.24 126.57 10.18Z" fill="#2A8E41"/>
</svg>
